<svg width="145" height="40" viewBox="0 0 145 40" fill="none" xmlns="http://www.w3.org/2000/svg">
<path d="M3.2 6.93333C3.86667 6.93333 4.66667 6.8 5.33333 6.8C4.93333 5.86667 4.66667 4.93333 4.66667 4.26667C4.66667 2 6.8 1.33333 8 0C9.33333 1.33333 11.6 1.86667 11.6 4.4C11.6 5.2 11.3333 6.13333 10.9333 7.2C12.5333 7.46667 14.2667 8 15.6 8.93333C16.5333 5.86667 18 5.33333 19.4667 5.33333C20.2667 5.33333 21.2 5.46667 22 5.46667C22.1333 5.46667 22.2667 5.46667 22.4 5.46667C22.4 6.53333 22.9333 7.73333 22.9333 8.93333C22.9333 10.4 22.2667 11.7333 19.0667 12.9333C19.4667 13.8667 19.6 14.9333 19.6 16.1333C19.6 22.8 12.1333 24.9333 6.8 25.4667C6.8 26.4 6.8 27.2 6.8 28.1333C6.8 31.2 6.4 34 3.46667 34C-0.133334 34 0.133333 29.3333 0.133333 24.5333C0.133333 23.4667 0 17.4667 0 13.8667C0 12.5333 0 11.6 0 11.3333C0.266667 9.06667 0.666667 7.2 3.2 6.93333ZM13.0667 16C13.0667 11.6 8.8 11.0667 6.66667 11.0667C6.8 12 6.8 17.3333 6.8 21.2C9.86667 20.6667 13.0667 19.3333 13.0667 16ZM16.4 14.1333C14.9333 14.1333 13.7333 14.9333 13.7333 16C13.7333 17.0667 14.9333 17.8667 16.4 17.8667H16.5333C18 17.8667 19.2 17.0667 19.2 16C19.2 14.9333 18 14.1333 16.4 14.1333ZM16.1333 16C16.1333 16.5333 15.8667 16.9333 15.4667 16.9333C15.0667 16.9333 14.8 16.5333 14.8 16.1333C14.8 15.7333 15.0667 15.2 15.4667 15.2C15.8667 15.0667 16.1333 15.6 16.1333 16ZM18.2667 16.1333C18.2667 16.6667 18 17.0667 17.6 17.0667C17.2 17.0667 16.9333 16.6667 16.9333 16.1333C16.9333 15.6 17.2 15.2 17.6 15.2C18 15.2 18.2667 15.6 18.2667 16.1333Z" fill="black"/>
<path d="M33.2 15.6C34 14.2667 34.9333 13.8667 35.7333 13.8667C36.6667 13.8667 37.6 14.4 38.5333 14.5333C38.1333 16.2667 39.3333 18.6667 34.9333 19.3333C35.0667 20.1333 35.0667 21.0667 35.0667 22.1333V25.8667C35.0667 29.7333 34.8 33.0667 32 33.0667C29.2 33.0667 28.8 30.1333 28.8 26.8C28.8 25.7333 28.8 24.6667 28.8 23.7333V21.8667C28.8 20.9333 28.8 20.1333 28.8 19.3333C24.4 18.8 25.6 16.2667 25.2 14.6667C26.1333 14.5333 27.0667 13.8667 28 13.8667C28.8 13.8667 29.6 14.2667 30.4 15.6C30.8 15.4667 31.2 15.3333 31.8667 15.3333C32.5333 15.3333 32.9333 15.3333 33.2 15.6ZM35.4667 10.2667C35.4667 12.2667 33.8667 13.7333 32 13.7333C30 13.7333 28.5333 12.1333 28.5333 10.2667C28.5333 8.4 30.1333 6.66667 32 6.66667C34 6.66667 35.4667 8.26667 35.4667 10.2667ZM31.8667 19.8667C30.5333 19.8667 29.3333 20.6667 29.3333 21.6V21.7333C29.3333 22.8 30.4 23.6 32 23.7333H32.1333C33.4667 23.7333 34.6667 22.9333 34.8 22V21.8667C34.8 20.8 33.6 20 32.2667 19.8667H31.8667ZM31.6 21.6C31.6 22.2667 31.2 22.6667 30.9333 22.6667C30.5333 22.6667 30.2667 22.2667 30.2667 21.7333V21.6C30.2667 21.0667 30.6667 20.6667 30.9333 20.6667C31.3333 20.8 31.6 21.2 31.6 21.6ZM33.7333 21.7333C33.7333 22.2667 33.3333 22.8 32.9333 22.8C32.5333 22.8 32.2667 22.2667 32.2667 21.8667V21.7333C32.2667 21.2 32.6667 20.8 33.0667 20.8C33.4667 20.9333 33.7333 21.3333 33.7333 21.7333Z" fill="black"/>
<path d="M58.6667 22.4V23.6C58.6667 26.4 58.6667 29.2 58.5333 32C58.5333 36.9333 56.5333 40 51.4667 40C49.7333 40 47.8667 39.7333 46.4 38.9333C45.4667 38.5333 45.0667 37.7333 45.0667 36.9333C45.0667 35.7333 46 34.4 46.8 34.4C48 34.4 48.9333 35.6 50.1333 35.6C51.8667 35.6 52.2667 33.3333 52.2667 31.8667V31.4667C51.0667 32.2667 49.4667 32.6667 48 32.6667C42.8 32.6667 40.5333 29.0667 40.5333 25.0667C40.5333 22.4 41.4667 19.7333 43.3333 17.6C41.4667 16.8 41.0667 15.8667 41.0667 14.8C41.0667 14 41.4667 13.0667 41.4667 12.2667C41.6 12.2667 41.7333 12.2667 41.8667 12.2667C42.4 12.2667 43.0667 12.1333 43.6 12.1333C44.8 12.1333 45.8667 12.5333 46.5333 15.2C47.2 14.9333 48 14.6667 48.6667 14.5333C48.5333 14 48.5333 13.6 48.5333 13.2C48.5333 10.5333 50.6667 10.6667 52 9.86667C52.5333 10.9333 53.7333 11.6 53.7333 13.0667C53.7333 13.6 53.4667 14.4 52.8 15.2C53.0667 15.3333 53.2 15.4667 53.3333 15.6C53.7333 15.2 54.4 14.9333 55.3333 14.9333C58.5333 15.3333 58.6667 18.4 58.6667 22.4ZM44.1333 19.4667C42.9333 19.4667 42 20 41.8667 20.9333C41.8667 21.0667 41.8667 21.2 41.8667 21.2C41.8667 22.1333 42.8 23.0667 44.1333 23.3333C44.4 23.3333 44.6667 23.4667 44.9333 23.4667C46.1333 23.4667 47.0667 22.9333 47.2 22C47.2 21.8667 47.2 21.8667 47.2 21.7333C47.2 20.8 46.2667 19.8667 44.9333 19.6C44.6667 19.4667 44.4 19.4667 44.1333 19.4667ZM44.1333 21.0667C44.1333 21.2 44.1333 21.2 44.1333 21.3333C44 21.8667 43.7333 22.1333 43.3333 22.1333H43.2C42.9333 22.1333 42.8 21.7333 42.8 21.3333C42.8 21.2 42.8 21.2 42.8 21.0667C42.9333 20.5333 43.2 20.2667 43.6 20.2667H43.7333C44 20.4 44.1333 20.6667 44.1333 21.0667ZM46.2667 21.6C46.2667 21.7333 46.2667 21.7333 46.2667 21.8667C46.1333 22.2667 45.7333 22.6667 45.4667 22.6667H45.3333C45.0667 22.5333 44.8 22.2667 44.8 21.8667C44.8 21.7333 44.8 21.7333 44.8 21.6C44.9333 21.0667 45.2 20.8 45.6 20.8H45.7333C46 20.8 46.2667 21.2 46.2667 21.6ZM52.4 20C52 19.2 51.4667 18.9333 50.8 18.8C48.6667 18.8 46.9333 21.6 46.9333 25.0667C46.9333 25.2 46.9333 25.4667 46.9333 25.6C47.0667 27.8667 47.7333 28.8 49.4667 28.8C50.6667 28.8 51.8667 27.6 52.2667 24.8V20H52.4Z" fill="black"/>
<path d="M74.6667 10.4C72.1333 10.5333 69.3333 13.3333 69.3333 20.2667V20.5333C69.4667 27.7333 72.2667 30.5333 74.8 30.5333C76.8 30.5333 77.7333 28.8 77.7333 26.2667C77.7333 24.4 78.8 23.2 80.4 23.2H80.5333C82.1333 23.2 84 24.4 84 26.2667C84 31.7333 79.4667 34.8 74.6667 34.8H74.4C68.9333 34.6667 62.9333 30.5333 62.6667 21.0667V20.4C62.6667 16.8 63.6 13.2 65.4667 10.6667C63.4667 9.46667 62.9333 8.4 62.9333 7.2C62.9333 5.86667 63.6 4.66667 63.7333 3.46667C64 3.46667 64.4 3.46667 64.6667 3.46667C65.2 3.46667 65.6 3.46667 66.1333 3.46667C67.7333 3.46667 69.3333 3.86667 70.1333 6.93333C71.3333 6.4 72.8 6.26667 74.2667 6.26667C75.6 6.26667 77.0667 6.53333 78.4 6.93333C79.2 3.33333 80.8 2.93333 82.5333 2.93333C82.9333 2.93333 83.4667 2.93333 83.8667 2.93333C84.2667 2.93333 84.5333 2.93333 84.9333 2.8C85.0667 4 85.7333 5.2 85.7333 6.53333C85.7333 7.73333 85.0667 9.06667 82.6667 10.2667C83.3333 11.4667 83.8667 13.0667 83.8667 14.9333C83.8667 17.0667 82.1333 18.2667 80.5333 18.2667C79.0667 18.2667 77.6 17.2 77.6 14.9333C77.6 12.1333 76.5333 10.4 74.6667 10.4ZM78.1333 13.7333C78.1333 14.8 79.2 15.6 80.6667 15.6H80.8C82.2667 15.6 83.3333 14.8 83.3333 13.7333C83.3333 12.8 82.2667 12 80.8 12H80.6667C79.3333 11.8667 78.1333 12.6667 78.1333 13.7333ZM80.4 13.7333C80.4 14.2667 80.1333 14.6667 79.7333 14.6667C79.3333 14.6667 79.0667 14.2667 79.0667 13.7333C79.0667 13.2 79.3333 12.8 79.7333 12.8C80.1333 12.8 80.4 13.2 80.4 13.7333ZM82.4 13.7333C82.4 14.2667 82.1333 14.6667 81.7333 14.6667C81.3333 14.6667 81.0667 14.2667 81.0667 13.7333C81.0667 13.2 81.3333 12.8 81.7333 12.8C82.1333 12.8 82.4 13.2 82.4 13.7333Z" fill="black"/>
<path d="M97.3333 14.6667C98.5333 14.6667 99.7333 14.9333 100.933 15.3333C101.733 14.1333 102.4 13.7333 103.2 13.7333C104.133 13.7333 104.933 14.1333 105.867 14.2667C105.867 14.4 105.867 14.5333 105.867 14.8C105.867 15.3333 106 15.8667 106 16.4C106 17.2 105.733 18 104.8 18.6667C105.733 20.1333 106.267 22 106.267 24.4C106.267 30.8 101.867 33.6 97.4667 33.6H97.3333C93.0667 33.4667 88.8 30.9333 88.5333 24.6667V24C88.5333 21.7333 89.0667 20 90 18.5333C88.8 17.8667 88.6667 16.9333 88.6667 16V15.0667C88.6667 14.8 88.6667 14.5333 88.6667 14.2667C89.6 14.1333 90.5333 13.6 91.4667 13.6C92.2667 13.6 93.0667 14 93.8667 15.3333C94.6667 14.9333 96 14.6667 97.3333 14.6667ZM97.2 29.3333C98.9333 29.3333 100.8 27.8667 100.8 24V23.8667C100.8 19.8667 99.0667 18.4 97.3333 18.4C95.4667 18.4 93.6 20 93.6 24V24.4C93.7333 28.1333 95.4667 29.3333 97.2 29.3333ZM97.2 30C96.1333 30 95.2 30.6667 95.2 31.3333C95.2 32.1333 96.1333 32.8 97.2 32.8H97.3333C98.4 32.8 99.3333 32.1333 99.3333 31.4667C99.3333 30.6667 98.4 30.1333 97.2 30ZM97.0667 31.4667C97.0667 31.8667 96.8 32.1333 96.5333 32.1333C96.2667 32.1333 96 31.7333 96 31.4667C96 31.0667 96.2667 30.8 96.5333 30.8C96.8 30.8 97.0667 31.0667 97.0667 31.4667ZM98.5333 31.4667C98.5333 31.8667 98.2667 32.2667 98 32.2667C97.7333 32.2667 97.4667 31.8667 97.4667 31.6C97.4667 31.3333 97.7333 30.9333 98 30.9333C98.2667 30.8 98.5333 31.0667 98.5333 31.4667Z" fill="black"/>
<path d="M117.067 15.6C117.867 14.2667 118.8 13.8667 119.6 13.8667C120.533 13.8667 121.467 14.4 122.4 14.5333C122 16.2667 123.2 18.6667 118.8 19.3333C118.933 20.1333 118.933 21.0667 118.933 22.1333V25.8667C118.933 29.7333 118.667 33.0667 115.867 33.0667C113.067 33.0667 112.667 30.1333 112.667 26.8C112.667 25.7333 112.667 24.6667 112.667 23.7333V21.8667C112.667 20.9333 112.667 20.1333 112.667 19.3333C108.267 18.6667 109.467 16.2667 109.067 14.6667C110 14.5333 110.933 13.8667 111.867 13.8667C112.667 13.8667 113.467 14.2667 114.267 15.6C114.667 15.4667 115.067 15.3333 115.733 15.3333C116.267 15.3333 116.667 15.3333 117.067 15.6ZM119.333 10.2667C119.333 12.2667 117.733 13.7333 115.867 13.7333C113.867 13.7333 112.4 12.1333 112.4 10.2667C112.4 8.4 113.867 6.66667 115.733 6.66667C117.733 6.66667 119.333 8.26667 119.333 10.2667ZM115.6 19.8667C114.267 19.8667 113.067 20.6667 113.067 21.6V21.7333C113.067 22.8 114.133 23.6 115.733 23.7333H116C117.333 23.7333 118.533 22.9333 118.667 22V21.8667C118.667 20.8 117.467 20 116.133 19.8667H115.6ZM115.467 21.6C115.467 22.2667 115.067 22.6667 114.8 22.6667C114.4 22.6667 114.133 22.2667 114.133 21.7333V21.6C114.133 21.0667 114.533 20.6667 114.8 20.6667C115.067 20.8 115.467 21.2 115.467 21.6ZM117.467 21.7333C117.467 22.2667 117.067 22.8 116.667 22.8C116.267 22.8 116 22.2667 116 21.8667V21.7333C116 21.2 116.4 20.8 116.8 20.8C117.2 20.9333 117.467 21.3333 117.467 21.7333Z" fill="black"/>
<path d="M134 18.8C132.8 18.8 131.333 20.5333 131.2 24.1333V25.4667C131.2 29.4667 131.067 33.0667 128.133 33.0667C125.333 33.0667 124.933 30.1333 124.933 26.9333C124.933 25.8667 124.933 24.8 124.933 23.7333V21.4667C124.933 18 125.2 15.3333 128 15.3333C129.333 15.3333 130.133 15.8667 130.533 16.9333C131.067 16.4 131.6 16 132.133 15.6C131.867 15.2 131.733 14.8 131.733 14.2667C131.733 13.3333 132.267 12.4 132.4 11.4667C132.667 11.4667 132.933 11.4667 133.333 11.4667H134C135.333 11.4667 136.8 11.7333 137.2 14.8C137.733 14.9333 138.4 15.2 138.8 15.4667C140 14.2667 140.933 13.8667 141.733 13.8667C143.067 13.8667 143.867 15.0667 144.8 15.6C144 16.8 144.133 18.9333 141.6 19.0667C142 20.1333 142 21.2 142 22.2667V23.4667C142 24.5333 142 25.6 142 26.6667C142 30 141.6 32.8 138.8 32.8C135.867 32.8 135.733 29.4667 135.733 25.6V21.8667C136 20 135.067 18.8 134 18.8ZM138.267 17.6C137.467 17.6 136.667 18 136.4 18.6667C136.267 18.8 136.267 19.0667 136.267 19.2C136.267 20 136.933 20.9333 138.133 21.4667C138.667 21.6 139.067 21.7333 139.467 21.7333C140.4 21.7333 141.067 21.3333 141.333 20.6667C141.467 20.5333 141.467 20.2667 141.467 20.1333C141.467 19.3333 140.8 18.4 139.6 17.8667C139.2 17.7333 138.667 17.6 138.267 17.6ZM138.667 19.2C138.667 19.3333 138.667 19.4667 138.533 19.7333C138.4 20.1333 138 20.4 137.733 20.4C137.6 20.4 137.6 20.4 137.467 20.4C137.2 20.2667 137.067 20 137.067 19.7333C137.067 19.6 137.067 19.4667 137.2 19.2C137.333 18.8 137.733 18.5333 138 18.5333C138.133 18.5333 138.133 18.5333 138.267 18.5333C138.533 18.5333 138.667 18.8 138.667 19.2ZM140.533 20C140.533 20.1333 140.533 20.2667 140.4 20.5333C140.267 20.9333 139.867 21.2 139.6 21.2C139.467 21.2 139.467 21.2 139.333 21.2C139.067 21.0667 138.933 20.8 138.933 20.5333C138.933 20.4 138.933 20.2667 139.067 20C139.2 19.6 139.6 19.3333 139.867 19.3333C139.867 19.3333 140 19.3333 140.133 19.3333C140.4 19.3333 140.533 19.6 140.533 20Z" fill="black"/>
</svg>
