<svg width="115" height="130" viewBox="0 0 115 130" fill="none" xmlns="http://www.w3.org/2000/svg">
<g clip-path="url(#clip0_231_506)">
<path d="M113.697 74.5172L113.654 74.3038C112.16 68.4995 108.831 57.8725 103.198 51.5133C102.814 51.0012 101.234 48.9099 98.9298 47.4588C96.6251 40.0753 93.3815 32.9907 89.5404 26.8876C92.6986 14.2973 92.0158 8.40759 90.8634 5.67614C90.4367 4.60917 89.199 2.81665 86.0407 2.81665C82.7971 2.81665 77.8464 4.7372 71.3165 8.49295C62.7807 3.88362 53.8181 3.88362 45.2824 8.49295C38.7525 4.77988 33.8017 2.85933 30.5154 2.85933C27.3572 2.85933 26.1195 4.65184 25.6927 5.71882C24.5404 8.45027 23.8575 14.34 27.0158 26.9302C23.1747 33.0333 19.9738 40.0753 17.6691 47.4161C15.2791 48.8672 13.6146 51.0012 13.2305 51.556C6.1031 59.5796 2.64611 74.688 2.21932 76.6085V76.6512V76.6939C2.09128 77.334 2.262 78.0169 2.68879 78.4864C3.11558 78.9985 3.75576 79.2546 4.39594 79.1692L7.76758 78.9132L10.7978 80.9618C11.3526 81.3459 12.0782 81.4312 12.7183 81.1751C13.3585 80.9191 13.828 80.4069 13.9987 79.7241C14.0414 79.468 14.1267 79.2546 14.2121 78.9985L14.2975 78.7851C14.2975 78.7425 14.2975 78.7424 14.3401 78.6998C16.2607 93.2106 23.9429 104.777 36.1064 111.093L39.35 124.366V124.409L40.4596 128.506C40.7157 129.402 41.5266 130.043 42.4655 130.043H46.1786C46.392 130.043 46.6054 130 46.8188 129.957C47.0322 130 47.2456 130.043 47.459 130.043H51.8122C52.8792 130.043 53.7755 129.232 53.8608 128.165L54.2449 124.11L55.1412 116.172C55.6107 116.215 56.1228 116.215 56.5923 116.257H56.8483C57.8726 116.3 58.8969 116.3 59.8785 116.257H60.1346C60.6041 116.257 61.1162 116.215 61.5857 116.172L62.482 124.067L62.8661 128.165C62.9514 129.232 63.8477 130.043 64.9147 130.043H69.3106C69.524 130.043 69.7374 130 69.9508 129.957C70.1642 130 70.3776 130.043 70.591 130.043H74.304C75.243 130.043 76.0539 129.402 76.3099 128.506L77.4196 124.409V124.366L80.6632 111.093C92.7413 104.819 100.381 93.3813 102.387 78.9985C102.472 79.2546 102.515 79.468 102.6 79.7241C102.771 80.3643 103.24 80.9191 103.881 81.1751C104.521 81.4312 105.204 81.3459 105.801 80.9618L108.831 78.9132L112.203 79.1692C112.843 79.2119 113.483 78.9558 113.91 78.4864C114.337 78.0169 114.508 77.334 114.38 76.6939C114.209 76.6512 114.038 75.8403 113.697 74.5172Z" fill="white"/>
<path d="M113.525 74.2187L113.482 74.0053C111.988 68.2009 108.659 57.5739 103.026 51.2147C102.642 50.7026 101.063 48.6113 98.7579 47.1602C96.4532 39.7768 93.2096 32.6921 89.3685 26.589C92.5268 13.9987 91.8439 8.10901 90.6916 5.37755C90.2648 4.31058 89.0271 2.51807 85.8689 2.51807C82.6253 2.51807 77.6745 4.43862 71.1446 8.19436C62.6088 3.58504 53.6463 3.58504 45.1105 8.19436C38.5379 4.52398 33.5872 2.60342 30.3436 2.60342C27.1853 2.60342 25.9476 4.39594 25.5209 5.46291C24.3685 8.19436 23.6857 14.0841 26.8439 26.6743C23.0028 32.7774 19.8019 39.8194 17.4972 47.1602C15.1072 48.6113 13.4427 50.7452 13.0586 51.3001C5.93123 59.3237 2.47423 74.4321 2.04744 76.3526V76.3953V76.438C1.91941 77.0781 2.09012 77.761 2.51691 78.2305C2.9437 78.7426 3.58389 78.9987 4.22407 78.9133L7.5957 78.6573L10.6259 80.7059C11.1807 81.09 11.9063 81.1753 12.5465 80.9193C13.1866 80.6632 13.6561 80.151 13.8268 79.4682C13.8695 79.2121 13.9549 78.9987 14.0402 78.7426L14.1256 78.5292C14.1256 78.4865 14.1256 78.4865 14.1683 78.4439C16.0888 92.9547 23.771 104.521 35.9345 110.837L39.1781 124.11V124.153L40.2878 128.25C40.5438 129.146 41.3547 129.787 42.2937 129.787H46.0067C46.2201 129.787 46.4335 129.744 46.6469 129.701C46.8603 129.744 47.0737 129.787 47.2871 129.787H51.6404C52.7073 129.787 53.6036 128.976 53.6889 127.909L54.0731 123.854L54.9693 115.916C55.4388 115.959 55.9509 115.959 56.4204 116.001H56.6765C57.7008 116.044 58.7251 116.044 59.7067 116.001H59.9627C60.4322 116.001 60.9444 115.959 61.4138 115.916L62.3101 123.812L62.6942 127.909C62.7796 128.976 63.6758 129.787 64.7428 129.787H69.1387C69.3521 129.787 69.5655 129.744 69.7789 129.701C69.9923 129.744 70.2057 129.787 70.4191 129.787H74.1321C75.0711 129.787 75.882 129.146 76.1381 128.25L77.2477 124.153V124.11L80.4913 110.837C92.5695 104.563 100.209 93.1254 102.215 78.7426C102.3 78.9987 102.343 79.2121 102.428 79.4682C102.599 80.1083 103.068 80.6632 103.709 80.9193C104.349 81.1753 105.032 81.09 105.629 80.7059L108.659 78.6573L112.031 78.9133C112.671 78.956 113.311 78.6999 113.738 78.2305C114.165 77.761 114.336 77.0781 114.208 76.438C113.994 76.3526 113.866 75.5844 113.525 74.2187Z" fill="#F1F1F1"/>
<path d="M113.312 73.9626L113.269 73.7492C111.775 67.9448 108.447 57.3178 102.813 50.9586C102.429 50.4465 100.85 48.3552 98.545 46.9041C96.2403 39.5207 92.9967 32.436 89.1556 26.3329C92.3139 13.7426 91.631 7.8529 90.4787 5.12145C90.0519 4.05448 88.8142 2.26196 85.656 2.26196C82.4124 2.26196 77.4616 4.18251 70.9317 7.93826C62.396 3.32894 53.4334 3.32894 44.8976 7.93826C38.3677 4.26787 33.417 2.34732 30.1307 2.34732C26.9724 2.34732 25.7348 4.13984 25.308 5.20681C24.1556 7.93826 23.4728 13.828 26.631 26.4182C22.7899 32.5213 19.589 39.5633 17.2843 46.9041C14.8943 48.3552 13.2298 50.4891 12.8457 51.044C5.71834 59.0676 2.26134 74.1759 1.83455 76.0965V76.1392V76.1819C1.70652 76.822 1.87723 77.5049 2.30402 77.9744C2.73081 78.4865 3.37099 78.7426 4.01118 78.6572L7.38281 78.4012L10.413 80.4497C10.9678 80.8339 11.6934 80.9192 12.3336 80.6631C12.9738 80.4071 13.4432 79.8949 13.6139 79.2121C13.6566 78.956 13.742 78.7426 13.8273 78.4865L13.9127 78.2731C13.9127 78.2304 13.9127 78.2304 13.9554 78.1878C15.8759 92.6986 23.5581 104.265 35.7216 110.581L38.9652 123.854V123.897L40.0749 127.994C40.3309 128.89 41.1418 129.531 42.0808 129.531H45.7938C46.0072 129.531 46.2206 129.488 46.434 129.445C46.6474 129.488 46.8608 129.531 47.0742 129.531H51.4275C52.4944 129.531 53.3907 128.72 53.4761 127.653L53.8602 123.598L54.7564 115.66C55.2259 115.703 55.738 115.703 56.2075 115.745H56.4636C57.4879 115.788 58.5122 115.788 59.4938 115.745H59.7499C60.2193 115.745 60.7315 115.703 61.2009 115.66L62.0972 123.555L62.4813 127.653C62.5667 128.72 63.4629 129.531 64.5299 129.531H68.9258C69.1392 129.531 69.3526 129.488 69.566 129.445C69.7794 129.488 69.9928 129.531 70.2062 129.531H73.9193C74.8582 129.531 75.6691 128.89 75.9252 127.994L77.0348 123.897V123.854L80.2784 110.581C92.3566 104.307 99.9961 92.8693 102.002 78.4865C102.087 78.7426 102.13 78.956 102.215 79.2121C102.386 79.8522 102.856 80.4071 103.496 80.6631C104.136 80.9192 104.819 80.8339 105.416 80.4497L108.447 78.4012L111.818 78.6572C112.458 78.6999 113.099 78.4438 113.525 77.9744C113.952 77.5049 114.123 76.822 113.995 76.1819C113.824 76.0965 113.653 75.3283 113.312 73.9626Z" fill="#E2E2E2"/>
<path d="M113.099 73.7065L113.056 73.4931C111.563 67.6887 108.234 57.0617 102.6 50.7025C102.216 50.1904 100.637 48.0991 98.3321 46.648C96.0274 39.2646 92.7838 32.1799 88.9427 26.0768C92.101 13.4865 91.4181 7.5968 90.2658 4.86535C89.839 3.79837 88.6013 2.00586 85.4431 2.00586C82.1995 2.00586 77.2487 3.92641 70.7188 7.68216C62.1831 3.07283 53.2205 3.07283 44.6847 7.68216C38.1548 4.01177 33.2041 2.09122 29.9605 2.09122C26.8022 2.09122 25.5645 3.88373 25.1377 4.95071C23.9854 7.68216 23.3026 13.5718 26.4608 26.1621C22.6197 32.2225 19.3761 39.2646 17.0714 46.6053C14.6814 48.0564 13.0169 50.1904 12.6328 50.7452C5.50544 58.7688 2.04845 73.8772 1.62166 75.7977V75.8404V75.8831C1.49363 76.5233 1.66434 77.2061 2.09113 77.6756C2.51792 78.1877 3.1581 78.4438 3.79829 78.3585L7.16992 78.1024L10.2001 80.151C10.755 80.5351 11.4805 80.6204 12.1207 80.3644C12.7609 80.1083 13.2303 79.5961 13.401 78.9133C13.4437 78.6572 13.5291 78.4438 13.6144 78.1877L13.6998 77.9743C13.6998 77.9317 13.6998 77.9317 13.6998 77.889C15.6203 92.3998 23.3026 103.966 35.466 110.282L38.7096 123.555V123.598L39.8193 127.695C40.0754 128.592 40.8863 129.232 41.8252 129.232H45.5383C45.7517 129.232 45.9651 129.189 46.1785 129.146C46.3919 129.189 46.6052 129.232 46.8186 129.232H51.1719C52.2389 129.232 53.1351 128.421 53.2205 127.354L53.6046 123.299L54.5008 115.361C54.9703 115.404 55.4825 115.404 55.9519 115.446H56.208C57.2323 115.489 58.2566 115.489 59.2382 115.446H59.4943C59.9637 115.446 60.4759 115.404 60.9454 115.361L61.8416 123.257L62.2257 127.354C62.3111 128.421 63.2074 129.232 64.2743 129.232H68.6702C68.8836 129.232 69.097 129.189 69.3104 129.146C69.5238 129.189 69.7372 129.232 69.9506 129.232H73.6637C74.6026 129.232 75.4135 128.592 75.6696 127.695L76.7792 123.598V123.555L80.0228 110.282C92.101 104.008 99.7405 92.5705 101.746 78.1877C101.832 78.4438 101.874 78.6572 101.96 78.9133C102.131 79.5535 102.6 80.1083 103.24 80.3644C103.88 80.6204 104.563 80.5351 105.161 80.151L108.191 78.1024L111.563 78.3585C112.203 78.4011 112.843 78.1451 113.27 77.6756C113.697 77.2061 113.867 76.5233 113.739 75.8831C113.611 75.8404 113.44 75.0722 113.099 73.7065Z" fill="#D4D4D4"/>
<path d="M112.927 73.4503L112.884 73.237C111.391 67.4326 108.062 56.8056 102.428 50.4464C102.044 49.9343 100.465 47.843 98.1602 46.3919C95.8556 39.0085 92.612 31.9238 88.7709 25.8207C91.9291 13.2304 91.2462 7.34069 90.0939 4.60924C89.6671 3.54227 88.4294 1.74976 85.2712 1.74976C82.0276 1.74976 77.0768 3.67031 70.547 7.42605C62.0112 2.81673 53.0486 2.81673 44.5128 7.42605C37.9403 3.71299 32.9895 1.83511 29.7459 1.83511C26.5877 1.83511 25.35 3.62763 24.9232 4.6946C23.7709 7.42605 23.088 13.3157 26.2462 25.906C22.4051 32.0091 19.2042 39.0511 16.8996 46.3919C14.5095 47.843 12.8451 49.9769 12.461 50.5318C5.29089 58.5127 1.8339 73.6211 1.44979 75.5416V75.5843V75.627C1.32175 76.2672 1.49247 76.95 1.91926 77.4195C2.34605 77.9316 2.98623 78.1877 3.62641 78.1023L6.99805 77.8463L10.0283 79.8949C10.5831 80.279 11.3086 80.3643 11.9488 80.1083C12.589 79.8522 13.0585 79.34 13.2292 78.6572C13.2718 78.4011 13.3572 78.1877 13.4426 77.9316L13.5279 77.7182C13.5279 77.6756 13.5279 77.6756 13.5706 77.6329C15.4912 92.1437 23.1734 103.71 35.3369 110.026L38.5805 123.299V123.342L39.6901 127.439C39.9462 128.335 40.7571 128.976 41.696 128.976H45.4091C45.6225 128.976 45.8359 128.933 46.0493 128.89C46.2627 128.933 46.4761 128.976 46.6894 128.976H51.0427C52.1097 128.976 53.0059 128.165 53.0913 127.098L53.4754 123.043L54.3717 115.105C54.8411 115.148 55.3533 115.148 55.8227 115.19H56.0788C57.1031 115.233 58.1274 115.233 59.109 115.19H59.3651C59.8346 115.19 60.3467 115.148 60.8162 115.105L61.7124 123.001L62.0965 127.098C62.1819 128.165 63.0782 128.976 64.1451 128.976H68.5411C68.7545 128.976 68.9678 128.933 69.1812 128.89C69.3946 128.933 69.608 128.976 69.8214 128.976H73.5345C74.4734 128.976 75.2843 128.335 75.5404 127.439L76.6501 123.342V123.299L79.8937 110.026C91.9718 103.752 99.6113 92.3144 101.617 77.9316C101.703 78.1877 101.745 78.4011 101.831 78.6572C102.001 79.2974 102.471 79.8522 103.111 80.1083C103.751 80.3643 104.434 80.279 105.032 79.8949L108.062 77.8463L111.433 78.1023C112.074 78.145 112.714 77.8889 113.141 77.4195C113.567 76.95 113.738 76.2672 113.61 75.627C113.439 75.5843 113.269 74.8161 112.927 73.4503Z" fill="#C5C5C5"/>
<path d="M112.714 73.1942L112.672 72.9809C111.178 67.1765 107.849 56.5495 102.215 50.1903C101.831 49.6782 100.252 47.5869 97.9473 46.1358C95.6427 38.7523 92.3991 31.6677 88.558 25.5646C91.7162 12.9743 91.0334 7.08459 89.881 4.35314C89.4542 3.28617 88.2165 1.49365 85.0583 1.49365C81.8147 1.49365 76.864 3.4142 70.3341 7.16995C61.7983 2.56062 52.8357 2.56062 44.2999 7.16995C37.7701 3.45688 32.8193 1.53633 29.533 1.53633C26.3748 1.53633 25.1371 3.32885 24.7103 4.39582C23.558 7.12727 22.8751 13.017 26.0334 25.6072C22.1922 31.7103 18.9913 38.7523 16.6867 46.0931C14.2966 47.5442 12.6322 49.6782 12.2481 50.233C5.12068 58.2566 1.66369 73.365 1.2369 75.2428V75.2855V75.3282C1.10886 75.9684 1.27958 76.6512 1.70637 77.1207C2.13315 77.6329 2.77334 77.8889 3.41352 77.8036L6.78516 77.5475L9.81536 79.5961C10.3702 79.9802 11.0957 80.0656 11.7359 79.8095C12.3761 79.5534 12.8456 79.0413 13.0163 78.3584C13.059 78.1023 13.1443 77.8889 13.2297 77.6329L13.315 77.4195C13.315 77.3768 13.315 77.3768 13.3577 77.3341C15.2783 91.8449 22.9605 103.411 35.124 109.727L38.3676 123.001V123.043L39.4772 127.14C39.7333 128.037 40.5442 128.677 41.4831 128.677H45.1962C45.4096 128.677 45.623 128.634 45.8364 128.591C46.0498 128.634 46.2632 128.677 46.4766 128.677H50.8298C51.8968 128.677 52.793 127.866 52.8784 126.799L53.2625 122.744L54.1588 114.806C54.6282 114.849 55.1404 114.849 55.6098 114.892H55.8659C56.8902 114.934 57.9145 114.934 58.8961 114.892H59.1522C59.6217 114.892 60.1338 114.849 60.6033 114.806L61.4995 122.702L61.8836 126.799C61.969 127.866 62.8653 128.677 63.9322 128.677H68.3282C68.5416 128.677 68.755 128.634 68.9684 128.591C69.1817 128.634 69.3951 128.677 69.6085 128.677H73.3216C74.2605 128.677 75.0714 128.037 75.3275 127.14L76.4372 123.043V123.001L79.6808 109.727C91.7589 103.454 99.3984 92.0156 101.404 77.6329C101.49 77.8889 101.532 78.1023 101.618 78.3584C101.788 78.9986 102.258 79.5534 102.898 79.8095C103.538 80.0656 104.221 79.9802 104.819 79.5961L107.849 77.5475L111.22 77.8036C111.861 77.8462 112.501 77.5902 112.928 77.1207C113.354 76.6512 113.525 75.9684 113.397 75.3282C113.226 75.3282 113.056 74.56 112.714 73.1942Z" fill="#B7B7B7"/>
<path d="M112.544 72.9381L112.502 72.7247C111.008 66.9204 107.679 56.2934 102.045 49.9342C101.661 49.4221 100.082 47.3308 97.7774 45.8797C95.4728 38.4962 92.2292 31.4115 88.3881 25.3085C91.5463 12.7182 90.8634 6.82849 89.7111 4.09704C89.2843 3.03006 88.0466 1.23755 84.8884 1.23755C81.6448 1.23755 76.694 3.1581 70.1642 6.91385C61.6284 2.30452 52.6658 2.30452 44.13 6.91385C37.5575 3.20078 32.6067 1.28023 29.3631 1.28023C26.2049 1.28023 24.9672 3.07274 24.5404 4.13972C23.3881 6.87117 22.7052 12.7609 25.8634 25.3511C22.0223 31.4542 18.8214 38.4962 16.5167 45.837C14.1267 47.2881 12.4622 49.4221 12.0781 49.9769C4.95076 58.0005 1.45109 73.1089 1.06698 75.0294V75.0721V75.1148C0.938938 75.755 1.10965 76.4378 1.53644 76.9073C1.96323 77.4194 2.60342 77.6755 3.2436 77.5901L6.61524 77.3341L9.64544 79.3827C10.2003 79.7668 10.9258 79.8521 11.566 79.5961C12.2062 79.34 12.6756 78.8278 12.8464 78.145C12.889 77.8889 12.9744 77.6755 13.0598 77.4194L13.1451 77.206C13.1451 77.1634 13.1451 77.1634 13.1451 77.1207C15.0657 91.6315 22.7479 103.198 34.9114 109.514L38.155 122.787V122.83L39.2646 126.927C39.5207 127.823 40.3316 128.463 41.2705 128.463H44.9836C45.197 128.463 45.4104 128.421 45.6238 128.378C45.8372 128.421 46.0506 128.463 46.264 128.463H50.6172C51.6842 128.463 52.5804 127.653 52.6658 126.586L53.0499 122.531L53.9462 114.593C54.4156 114.635 54.9278 114.635 55.3973 114.678H55.6533C56.6776 114.721 57.7019 114.721 58.6835 114.678H58.9396C59.4091 114.678 59.9212 114.635 60.3907 114.593L61.2869 122.488L61.6711 126.586C61.7564 127.653 62.6527 128.463 63.7196 128.463H68.1156C68.329 128.463 68.5424 128.421 68.7558 128.378C68.9692 128.421 69.1825 128.463 69.3959 128.463H73.109C74.048 128.463 74.8588 127.823 75.1149 126.927L76.2246 122.83V122.787L79.4682 109.514C91.5463 103.24 99.1858 91.8022 101.192 77.4194C101.277 77.6755 101.32 77.8889 101.405 78.145C101.576 78.7852 102.045 79.34 102.686 79.5961C103.326 79.8521 104.009 79.7668 104.606 79.3827L107.636 77.3341L111.008 77.5901C111.648 77.6328 112.288 77.3767 112.715 76.9073C113.142 76.4378 113.313 75.755 113.185 75.1148C113.014 75.0721 112.886 74.2612 112.544 72.9381Z" fill="#A8A8A8"/>
<path d="M112.329 72.6823L112.287 72.4689C110.793 66.6646 107.464 56.0375 101.83 49.6783C101.446 49.1662 99.8672 47.0749 97.5626 45.6238C95.2579 38.2404 92.0143 31.1557 88.1732 25.0526C91.3315 12.4623 90.6486 6.57263 89.4963 3.84118C89.0695 2.7742 87.8318 0.981689 84.6735 0.981689C81.4299 0.981689 76.4792 2.90224 69.9493 6.65799C61.4135 2.04866 52.451 2.04866 43.9152 6.65799C37.3853 2.94492 32.4345 1.02437 29.1483 1.02437C25.99 1.02437 24.7523 2.81688 24.3255 3.88386C23.1732 6.61531 22.4903 12.505 25.6486 25.0953C21.8075 31.1984 18.6066 38.2404 16.3019 45.5812C13.9119 47.0322 12.2474 49.1662 11.8633 49.721C4.73591 57.7447 1.23624 72.8103 0.852131 74.7309V74.7735V74.8162C0.724095 75.4564 0.89481 76.1393 1.3216 76.6087C1.74839 77.1209 2.38857 77.377 3.02876 77.2916L6.40039 77.0355L9.43059 79.0841C9.98542 79.4682 10.711 79.5536 11.3511 79.2975C11.9913 79.0414 12.4608 78.5293 12.6315 77.8464C12.6742 77.5904 12.7596 77.377 12.8449 77.1209L12.9303 76.9075C12.9303 76.8648 12.9303 76.8648 12.9729 76.8221C14.8935 91.333 22.5757 102.899 34.7392 109.215L37.9828 122.489V122.531L39.0924 126.628C39.3485 127.525 40.1594 128.165 41.0984 128.165H44.8114C45.0248 128.165 45.2382 128.122 45.4516 128.08C45.665 128.122 45.8784 128.165 46.0918 128.165H50.445C51.512 128.165 52.4083 127.354 52.4936 126.287L52.8777 122.233L53.774 114.294C54.2435 114.337 54.7556 114.337 55.2251 114.38H55.4812C56.5054 114.422 57.5297 114.422 58.5114 114.38H58.7674C59.2369 114.38 59.7491 114.337 60.2185 114.294L61.1148 122.19L61.4989 126.287C61.5842 127.354 62.4805 128.165 63.5475 128.165H67.858C68.0714 128.165 68.2848 128.122 68.4982 128.08C68.7116 128.122 68.925 128.165 69.1384 128.165H72.8515C73.7904 128.165 74.6013 127.525 74.8574 126.628L75.967 122.531V122.489L79.2106 109.215C91.2888 102.942 98.9283 91.5037 100.934 77.1209C101.02 77.377 101.062 77.5904 101.148 77.8464C101.318 78.4866 101.788 79.0414 102.428 79.2975C103.068 79.5536 103.751 79.4682 104.349 79.0841L107.379 77.0355L110.75 77.2916C111.391 77.3343 112.031 77.0782 112.458 76.6087C112.884 76.1393 113.055 75.4564 112.927 74.8162C112.842 74.8162 112.671 74.0053 112.329 72.6823Z" fill="#9A9A9A"/>
<path d="M112.117 72.4262L112.074 72.2128C110.58 66.4084 107.251 55.7814 101.618 49.4222C101.233 48.9101 99.6544 46.8188 97.3497 45.3677C95.045 37.9843 91.8014 30.8996 87.9603 24.7965C91.1186 12.2062 90.4357 6.31652 89.2834 3.58507C88.8566 2.5181 87.6189 0.725586 84.4607 0.725586C81.2171 0.725586 76.2663 2.64614 69.7364 6.40188C61.2006 1.79256 52.2381 1.79256 43.7023 6.40188C37.1724 2.68882 32.2216 0.768265 28.9781 0.768265C25.8198 0.768265 24.5821 2.56078 24.1553 3.62775C23.003 6.3592 22.3201 12.2489 25.4784 24.8392C21.6373 30.9423 18.4364 37.9843 16.1317 45.3251C13.7417 46.7761 12.0772 48.9101 11.6931 49.4649C4.52302 57.4886 1.06603 72.5542 0.639241 74.4748V74.5174V74.5601C0.511204 75.2003 0.68192 75.8832 1.10871 76.3526C1.5355 76.8648 2.17568 77.1209 2.81587 77.0355L6.1875 76.7794L9.2177 78.828C9.77253 79.2121 10.4981 79.2975 11.1383 79.0414C11.7784 78.7853 12.2479 78.2732 12.4186 77.5903C12.4613 77.3343 12.5467 77.1209 12.632 76.8648L12.7174 76.6514C12.7174 76.6087 12.7174 76.6087 12.7174 76.566C14.6379 91.0769 22.3201 102.643 34.4836 108.959L37.7272 122.232V122.275L38.8369 126.372C39.093 127.269 39.9039 127.909 40.8428 127.909H44.5559C44.7693 127.909 44.9826 127.866 45.196 127.823C45.4094 127.866 45.6228 127.909 45.8362 127.909H50.1895C51.2565 127.909 52.1527 127.098 52.2381 126.031L52.6222 121.976L53.5184 114.038C53.9879 114.081 54.5 114.081 54.9695 114.123H55.2256C56.2499 114.166 57.2742 114.166 58.2558 114.123H58.5119C58.9813 114.123 59.4935 114.081 59.963 114.038L60.8592 121.934L61.2433 126.031C61.3287 127.098 62.2249 127.909 63.2919 127.909H67.6878C67.9012 127.909 68.1146 127.866 68.328 127.823C68.5414 127.866 68.7548 127.909 68.9682 127.909H72.6813C73.6202 127.909 74.4311 127.269 74.6872 126.372L75.7968 122.275V122.232L79.0404 108.959C91.1186 102.686 98.7581 91.2476 100.764 76.8648C100.849 77.1209 100.892 77.3343 100.977 77.5903C101.148 78.2305 101.618 78.7853 102.258 79.0414C102.898 79.2975 103.581 79.2121 104.178 78.828L107.209 76.7794L110.58 77.0355C111.22 77.0782 111.861 76.8221 112.287 76.3526C112.714 75.8832 112.885 75.2003 112.757 74.5601C112.629 74.5601 112.458 73.7492 112.117 72.4262Z" fill="#8B8B8B"/>
<path d="M111.947 72.1701L111.904 71.9567C110.41 66.1523 107.081 55.5253 101.448 49.1661C101.064 48.654 99.4844 46.5627 97.1798 45.1116C94.8751 37.7282 91.6315 30.6435 87.7904 24.5404C90.9486 11.9501 90.2658 6.06042 89.1134 3.32897C88.6867 2.262 87.449 0.469482 84.2907 0.469482C81.0471 0.469482 76.0964 2.39003 69.5665 6.14578C61.0307 1.53646 52.0681 1.53646 43.5324 6.14578C36.9598 2.43271 32.009 0.512161 28.7654 0.512161C25.6072 0.512161 24.3695 2.30468 23.9427 3.37165C22.7904 6.1031 22.1075 11.9928 25.2658 24.5831C21.4247 30.6862 18.2238 37.7282 15.9191 45.069C13.5291 46.52 11.8646 48.654 11.4805 49.2088C4.3531 57.2325 0.853429 72.2981 0.469319 74.2187V74.2613V74.304C0.341282 74.9442 0.511998 75.6271 0.938787 76.0965C1.36558 76.6087 2.00576 76.8647 2.64594 76.7794L6.01758 76.5233L9.04778 78.5719C9.60261 78.956 10.3282 79.0414 10.9683 78.7853C11.6085 78.5292 12.078 78.0171 12.2487 77.3342C12.2914 77.0781 12.3767 76.8648 12.4621 76.6087L12.5475 76.3953C12.5475 76.3526 12.5475 76.3526 12.5901 76.3099C14.5107 90.8208 22.1929 102.387 34.3564 108.703L37.6 121.976V122.019L38.7096 126.116C38.9657 127.012 39.7766 127.653 40.7155 127.653H44.4286C44.642 127.653 44.8554 127.61 45.0688 127.567C45.2822 127.61 45.4956 127.653 45.709 127.653H49.9342C51.0012 127.653 51.8974 126.842 51.9828 125.775L52.3669 121.72L53.2631 113.782C53.7326 113.825 54.2448 113.825 54.7142 113.867H54.9703C55.9946 113.91 57.0189 113.91 58.0005 113.867H58.2566C58.726 113.867 59.2382 113.825 59.7077 113.782L60.6039 121.678L60.988 125.775C61.0734 126.842 61.9696 127.653 63.0366 127.653H67.4325C67.6459 127.653 67.8593 127.61 68.0727 127.567C68.2861 127.61 68.4995 127.653 68.7129 127.653H72.426C73.3649 127.653 74.1758 127.012 74.4319 126.116L75.5415 122.019V121.976L78.7851 108.703C90.8633 102.429 98.5028 90.9915 100.509 76.6087C100.594 76.8648 100.637 77.0781 100.722 77.3342C100.893 77.9744 101.362 78.5292 102.002 78.7853C102.643 79.0414 103.326 78.956 103.923 78.5719L106.953 76.5233L110.325 76.7794C110.965 76.8221 111.605 76.566 112.032 76.0965C112.459 75.6271 112.63 74.9442 112.501 74.304C112.459 74.304 112.288 73.4931 111.947 72.1701Z" fill="#7D7D7D"/>
<path d="M111.732 71.914L111.689 71.7006C110.195 65.8962 106.866 55.2692 101.233 48.91C100.849 48.3979 99.2696 46.3066 96.9649 44.8555C94.6603 37.4721 91.4167 30.3874 87.5756 24.2843C90.7338 11.694 90.0509 5.80432 88.8986 3.07287C88.4718 2.00589 87.2341 0.213379 84.0759 0.213379C80.8323 0.213379 75.8815 2.13393 69.3517 5.88968C60.8159 1.28035 51.8533 1.28035 43.3175 5.88968C36.7876 2.17661 31.8369 0.256058 28.5506 0.256058C25.3924 0.256058 24.1547 2.04857 23.7279 3.11555C22.5756 5.847 21.8927 11.7367 25.0509 24.327C21.2098 30.4301 18.0089 37.4721 15.7042 44.8129C13.3142 46.2639 11.6497 48.3979 11.2656 48.9527C4.13826 56.9337 0.681264 72.042 0.254475 73.9626V74.0052V74.0479C0.126438 74.6881 0.297154 75.371 0.723943 75.8404C1.15073 76.3526 1.79092 76.6087 2.4311 76.5233L5.80274 76.2672L8.83294 78.3158C9.38777 78.6999 10.1133 78.7853 10.7535 78.5292C11.3937 78.2731 11.8631 77.761 12.0339 77.0781C12.0765 76.822 12.1619 76.6087 12.2473 76.3526L12.3326 76.1392C12.3326 76.0965 12.3326 76.0965 12.3326 76.0538C14.2532 90.5647 21.9354 102.131 34.0989 108.447L37.3425 121.72V121.763L38.4521 125.86C38.7082 126.756 39.5191 127.397 40.458 127.397H44.1711C44.3845 127.397 44.5979 127.354 44.8113 127.311C45.0247 127.354 45.2381 127.397 45.4515 127.397H49.8474C50.9144 127.397 51.8106 126.586 51.896 125.519L52.2801 121.464L53.1763 113.526C53.6458 113.569 54.158 113.569 54.6274 113.611H54.8835C55.9078 113.654 56.9321 113.654 57.9137 113.611H58.1698C58.6392 113.611 59.1514 113.569 59.6209 113.526L60.5171 121.422L60.9012 125.519C60.9866 126.586 61.8828 127.397 62.9498 127.397H67.3457C67.5591 127.397 67.7725 127.354 67.9859 127.311C68.1993 127.354 68.4127 127.397 68.6261 127.397H72.3392C73.2781 127.397 74.089 126.756 74.3451 125.86L75.4547 121.763V121.72L78.6983 108.447C90.7765 102.173 98.416 90.7354 100.422 76.3526C100.507 76.6087 100.55 76.822 100.635 77.0781C100.806 77.7183 101.275 78.2731 101.916 78.5292C102.556 78.7853 103.239 78.6999 103.836 78.3158L106.866 76.2672L110.238 76.5233C110.878 76.566 111.518 76.3099 111.945 75.8404C112.372 75.371 112.543 74.6881 112.415 74.0479C112.244 74.0479 112.073 73.237 111.732 71.914Z" fill="#6E6E6E"/>
<path d="M111.562 71.6579L111.519 71.4445C110.025 65.6401 106.697 55.0131 101.063 48.6539C100.679 48.1418 99.0997 46.0505 96.795 44.5994C94.4903 37.216 91.2467 30.1313 87.4056 24.0282C90.5639 11.4379 89.881 5.54821 88.7287 2.81676C88.3019 1.74979 87.0642 -0.0427246 83.906 -0.0427246C80.6624 -0.0427246 75.7116 1.87783 69.1817 5.63357C60.646 1.02425 51.6834 1.02425 43.1476 5.63357C36.575 1.92051 31.6243 -4.5687e-05 28.3807 -4.5687e-05C25.2224 -4.5687e-05 23.9848 1.79247 23.558 2.85944C22.4056 5.59089 21.7228 11.4806 24.881 24.0709C21.0399 30.174 17.839 37.216 15.5343 44.5567C13.1443 46.0078 11.4798 48.1418 11.0957 48.6966C3.92566 56.6776 0.468664 71.7859 0.0845533 73.7065V73.7491V73.7918C-0.0434835 74.432 0.127232 75.1149 0.554021 75.5843C0.980811 76.0965 1.62099 76.3525 2.26118 76.2672L5.63281 76.0111L8.66302 78.0597C9.21784 78.4438 9.94339 78.5292 10.5836 78.2731C11.2238 78.017 11.6932 77.5049 11.8639 76.822C11.9066 76.5659 11.992 76.3525 12.0773 76.0965L12.1627 75.8831C12.1627 75.8404 12.1627 75.8404 12.2054 75.7977C14.1259 90.3086 21.8081 101.875 33.9716 108.191L37.2152 121.464V121.507L38.3249 125.604C38.5809 126.5 39.3918 127.14 40.3308 127.14H44.0438C44.2572 127.14 44.4706 127.098 44.684 127.055C44.8974 127.098 45.1108 127.14 45.3242 127.14H49.6775C50.7444 127.14 51.6407 126.33 51.7261 125.263L52.1102 121.208L53.0064 113.27C53.4759 113.312 53.988 113.312 54.4575 113.355H54.7136C55.7379 113.398 56.7622 113.398 57.7438 113.355H57.9999C58.4693 113.355 58.9815 113.312 59.4509 113.27L60.3472 121.165L60.7313 125.263C60.8167 126.33 61.7129 127.14 62.7799 127.14H67.1758C67.3892 127.14 67.6026 127.098 67.816 127.055C68.0294 127.098 68.2428 127.14 68.4562 127.14H72.1693C73.1082 127.14 73.9191 126.5 74.1752 125.604L75.2848 121.507V121.464L78.5284 108.191C90.6066 101.917 98.2461 90.4793 100.252 76.0965C100.337 76.3525 100.38 76.5659 100.465 76.822C100.636 77.4622 101.106 78.017 101.746 78.2731C102.386 78.5292 103.069 78.4438 103.666 78.0597L106.697 76.0111L110.068 76.2672C110.708 76.3099 111.349 76.0538 111.775 75.5843C112.202 75.1149 112.373 74.432 112.245 73.7918C112.074 73.7918 111.903 72.9809 111.562 71.6579Z" fill="#606060"/>
<path d="M111.562 71.6579L111.519 71.4445C110.025 65.6401 106.697 55.0131 101.063 48.6539C100.679 48.1418 99.0997 46.0505 96.795 44.5994C94.4903 37.216 91.2467 30.1313 87.4056 24.0282C90.5639 11.4379 89.881 5.54821 88.7287 2.81676C88.3019 1.74979 87.0642 -0.0427246 83.906 -0.0427246C80.6624 -0.0427246 75.7116 1.87783 69.1817 5.63357C60.646 1.02425 51.6834 1.02425 43.1476 5.63357C36.575 1.92051 31.6243 -4.5687e-05 28.3807 -4.5687e-05C25.2224 -4.5687e-05 23.9848 1.79247 23.558 2.85944C22.4056 5.59089 21.7228 11.4806 24.881 24.0709C21.0399 30.174 17.839 37.216 15.5343 44.5567C13.1443 46.0078 11.4798 48.1418 11.0957 48.6966C3.92566 56.6776 0.468664 71.7859 0.0845533 73.7065V73.7491V73.7918C-0.0434835 74.432 0.127232 75.1149 0.554021 75.5843C0.980811 76.0965 1.62099 76.3525 2.26118 76.2672L5.63281 76.0111L8.66302 78.0597C9.21784 78.4438 9.94339 78.5292 10.5836 78.2731C11.2238 78.017 11.6932 77.5049 11.8639 76.822C11.9066 76.5659 11.992 76.3525 12.0773 76.0965L12.1627 75.8831C12.1627 75.8404 12.1627 75.8404 12.2054 75.7977C14.1259 90.3086 21.8081 101.875 33.9716 108.191L37.2152 121.464V121.507L38.3249 125.604C38.5809 126.5 39.3918 127.14 40.3308 127.14H44.0438C44.2572 127.14 44.4706 127.098 44.684 127.055C44.8974 127.098 45.1108 127.14 45.3242 127.14H49.6775C50.7444 127.14 51.6407 126.33 51.7261 125.263L52.1102 121.208L53.0064 113.27C53.4759 113.312 53.988 113.312 54.4575 113.355H54.7136C55.7379 113.398 56.7622 113.398 57.7438 113.355H57.9999C58.4693 113.355 58.9815 113.312 59.4509 113.27L60.3472 121.165L60.7313 125.263C60.8167 126.33 61.7129 127.14 62.7799 127.14H67.1758C67.3892 127.14 67.6026 127.098 67.816 127.055C68.0294 127.098 68.2428 127.14 68.4562 127.14H72.1693C73.1082 127.14 73.9191 126.5 74.1752 125.604L75.2848 121.507V121.464L78.5284 108.191C90.6066 101.917 98.2461 90.4793 100.252 76.0965C100.337 76.3525 100.38 76.5659 100.465 76.822C100.636 77.4622 101.106 78.017 101.746 78.2731C102.386 78.5292 103.069 78.4438 103.666 78.0597L106.697 76.0111L110.068 76.2672C110.708 76.3099 111.349 76.0538 111.775 75.5843C112.202 75.1149 112.373 74.432 112.245 73.7918C112.074 73.7918 111.903 72.9809 111.562 71.6579Z" fill="white"/>
<path d="M12.6756 49.9343C12.6756 49.9343 15.6204 45.6237 19.5469 45.2396C23.8575 44.8128 27.7413 49.5502 23.388 56.0374C20.6992 60.0919 11.7793 67.9875 9.73074 76.3525L6.10304 73.9198L2.00586 74.2613C2.09122 74.2186 5.46285 58.0006 12.6756 49.9343Z" fill="#F3C3D0"/>
<path d="M11.0117 72.8955L3.03073 70.4202C2.39055 72.7248 2.0918 74.2186 2.0918 74.2186L6.18897 73.8772L9.81668 76.3099C10.0728 75.2002 10.4995 74.0479 11.0117 72.8955Z" fill="#A25962"/>
<path d="M99.4001 49.9343C99.4001 49.9343 96.4553 45.6237 92.5288 45.2396C88.2182 44.8128 84.3345 49.5502 88.6877 56.0374C91.3765 60.0919 100.296 67.9875 102.345 76.3525L105.973 73.9198L110.07 74.2613C110.027 74.2186 106.656 58.0006 99.4001 49.9343Z" fill="#F3C3D0"/>
<path d="M101.107 72.8955L109.088 70.4202C109.729 72.7248 110.027 74.2186 110.027 74.2186L105.93 73.8772L102.302 76.3099C102.046 75.2002 101.62 74.0479 101.107 72.8955Z" fill="#A25962"/>
<path d="M49.9335 120.995L53.8599 86.2542H30.6426L39.093 120.995H49.9335Z" fill="#F3A1B6"/>
<path d="M49.9342 120.995H39.0938L40.2034 125.092H43.9165L44.514 123.897L45.1542 125.092H49.5501L49.9342 120.995Z" fill="#A25962"/>
<path d="M58.3848 86.2542L62.3112 120.995H73.1517L81.6021 86.2542H58.3848Z" fill="#F3A1B6"/>
<path d="M62.3105 120.995H73.151L72.0413 125.092H68.3283L67.7308 123.897L67.0906 125.092H62.6947L62.3105 120.995Z" fill="#A25962"/>
<path d="M46.8616 10.4563C46.8616 10.4563 27.9549 -2.30466 25.4368 3.62771C22.7053 10.1149 27.8268 27.1011 27.8268 27.1011C27.8268 27.1011 36.9174 21.3821 46.8616 10.4563Z" fill="#F3A1B6"/>
<path d="M44.1307 12.761C44.1307 12.761 30.0039 3.28632 28.1687 7.68225C26.1628 12.5476 29.9613 25.1806 29.9613 25.1806C29.9613 25.1806 36.7045 20.9127 44.1307 12.761Z" fill="#D47492"/>
<path d="M65.3848 10.4563C65.3848 10.4563 84.2915 -2.30466 86.8096 3.62771C89.541 10.1149 84.4196 27.1011 84.4196 27.1011C84.4196 27.1011 75.329 21.3821 65.3848 10.4563Z" fill="#F3A1B6"/>
<path d="M68.1172 12.761C68.1172 12.761 82.2439 3.28632 84.0791 7.68225C86.1277 12.5476 82.2866 25.1806 82.2866 25.1806C82.2866 25.1806 75.5433 20.9127 68.1172 12.761Z" fill="#D47492"/>
<path d="M98.5873 68.3716C98.5873 95.9421 79.5952 111.307 56.1218 111.307C32.6484 111.307 13.6562 95.9421 13.6562 68.3716C13.6562 40.801 32.691 4.26782 56.1218 4.26782C79.5525 4.26782 98.5873 40.801 98.5873 68.3716Z" fill="#F3A1B6"/>
<path d="M86.8522 88.0466C86.8522 102.984 73.1096 111.307 56.1234 111.307C39.1371 111.307 25.3945 102.984 25.3945 88.0466C25.3945 73.109 39.1371 53.3486 56.1234 53.3486C73.1096 53.3486 86.8522 73.1517 86.8522 88.0466Z" fill="#F3C3D0"/>
<path d="M68.9257 34.2285C68.9257 39.2646 63.2067 42.7643 56.122 42.7643C49.0373 42.7643 43.3184 39.2219 43.3184 34.2285C43.3184 29.1924 49.0373 22.5771 56.122 22.5771C63.2067 22.5771 68.9257 29.1924 68.9257 34.2285Z" fill="#D47492"/>
<path d="M68.9257 35.1673C68.9257 39.3499 63.2067 42.7642 56.122 42.7642C49.0373 42.7642 43.3184 39.3499 43.3184 35.1673C43.3184 30.9848 49.0373 25.4365 56.122 25.4365C63.2067 25.4365 68.9257 30.9848 68.9257 35.1673Z" fill="#F3C3D0"/>
<path d="M53.0073 34.9968C53.0073 36.7893 52.2817 38.2404 51.3855 38.2404C50.4892 38.2404 49.7637 36.7893 49.7637 34.9968C49.7637 33.2043 50.4892 31.7532 51.3855 31.7532C52.2817 31.7532 53.0073 33.2043 53.0073 34.9968Z" fill="#D47492"/>
<path d="M62.4819 34.9968C62.4819 36.7893 61.7563 38.2404 60.8601 38.2404C59.9638 38.2404 59.2383 36.7893 59.2383 34.9968C59.2383 33.2043 59.9638 31.7532 60.8601 31.7532C61.7563 31.7532 62.4819 33.2043 62.4819 34.9968Z" fill="#D47492"/>
<path d="M55.6962 47.5017C52.2392 47.5017 48.9956 45.9652 46.7763 43.3191C46.6909 43.2338 46.6909 43.0631 46.819 42.9777C46.9043 42.8923 47.075 42.8923 47.1604 43.0204C49.2943 45.5811 52.4099 47.0322 55.6962 47.0322C59.0251 47.0322 62.1407 45.5811 64.232 43.0204C64.3173 42.935 64.488 42.8923 64.5734 42.9777C64.6588 43.0631 64.7014 43.2338 64.6161 43.3191C62.3968 45.9652 59.1532 47.5017 55.6962 47.5017Z" fill="#A25962"/>
<path d="M47.2454 21.0834C47.2454 22.7905 45.8796 24.1563 44.1725 24.1563C42.4653 24.1563 41.0996 22.7905 41.0996 21.0834C41.0996 19.3762 42.4653 18.0105 44.1725 18.0105C45.837 18.0105 47.2454 19.3762 47.2454 21.0834Z" fill="#4E292C"/>
<path d="M43.9169 20.1017C43.9169 20.6139 43.4901 21.0833 42.978 21.0833C42.4659 21.0833 42.0391 20.6566 42.0391 20.1017C42.0391 19.5896 42.4659 19.1201 42.978 19.1201C43.4901 19.1628 43.9169 19.5896 43.9169 20.1017Z" fill="white"/>
<path d="M42.8497 22.1504C42.8497 22.3638 42.679 22.5772 42.4229 22.5772C42.2095 22.5772 41.9961 22.4065 41.9961 22.1504C41.9961 21.937 42.1668 21.7236 42.4229 21.7236C42.6363 21.7236 42.8497 21.8943 42.8497 22.1504Z" fill="white"/>
<path d="M71.1887 21.0834C71.1887 22.7905 69.823 24.1563 68.1159 24.1563C66.4087 24.1563 65.043 22.7905 65.043 21.0834C65.043 19.3762 66.4087 18.0105 68.1159 18.0105C69.823 18.0105 71.1887 19.3762 71.1887 21.0834Z" fill="#4E292C"/>
<path d="M67.9027 20.1017C67.9027 20.6139 67.4759 21.0833 66.9211 21.0833C66.3662 21.0833 65.9395 20.6566 65.9395 20.1017C65.9395 19.5896 66.3662 19.1201 66.9211 19.1201C67.4332 19.1628 67.9027 19.5896 67.9027 20.1017Z" fill="white"/>
<path d="M66.793 22.1504C66.793 22.3638 66.6223 22.5772 66.3662 22.5772C66.1528 22.5772 65.9395 22.4065 65.9395 22.1504C65.9395 21.937 66.1102 21.7236 66.3662 21.7236C66.6223 21.7236 66.793 21.8943 66.793 22.1504Z" fill="white"/>
</g>
<defs>
<clipPath id="clip0_231_506">
<rect width="114.251" height="130" fill="white"/>
</clipPath>
</defs>
</svg>
