<svg width="105" height="130" viewBox="0 0 105 130" fill="none" xmlns="http://www.w3.org/2000/svg">
<path d="M5.20262 72.0938L8.09349 71.8715L10.7175 73.6505C11.2957 74.0507 12.0518 74.1397 12.7189 73.8728C13.2526 73.6505 13.6973 73.2502 13.9197 72.7609C15.9211 85.2139 22.7257 95.0873 33.2663 100.647L34.556 105.939C22.5478 107.629 16.4548 110.565 16.4548 114.701C16.4548 115.768 16.855 116.702 17.6111 117.592C8.93851 118.837 6.93714 121.327 6.93714 123.418C6.93714 129.511 23.7931 130 28.9522 130C33.7555 130 48.5656 129.6 50.7004 124.663C51.8123 124.708 52.8797 124.708 53.9915 124.708C57.4161 124.708 60.7962 124.619 63.9984 124.396C63.865 124.708 63.8205 125.019 63.8205 125.375C63.8205 127.91 67.0671 129.2 73.4715 129.2C79.8759 129.2 83.1226 127.91 83.1226 125.375C83.1226 123.907 82.0552 122.884 79.9204 122.261C87.659 120.482 91.4838 117.992 91.4838 114.701C91.4838 111.676 88.1927 109.72 84.4568 108.385C86.9474 107.096 86.9474 105.717 86.9474 105.05C86.9474 101.625 81.3881 100.202 75.5174 99.6238C84.9905 93.9755 91.128 84.5913 93.0405 72.9389C93.2628 73.3836 93.6631 73.6949 94.1523 73.8728C94.8195 74.1397 95.5311 74.0507 96.1537 73.6505L98.7777 71.8715L101.669 72.0938C101.713 72.0938 101.802 72.0938 101.846 72.0938C103.047 72.0938 103.981 71.1154 103.981 69.9146C103.981 69.6922 103.937 69.4698 103.892 69.2474V69.203V69.1585L103.848 68.8916C103.759 68.4469 103.581 67.6908 103.314 66.7124V66.6679C101.98 61.6422 99.0001 52.347 94.0634 46.7876C93.7076 46.2539 92.2844 44.4749 90.2385 43.1852C88.1927 36.6474 85.3018 30.3319 81.8773 24.8615C83.4784 18.4127 84.9016 10.1848 83.0336 5.78181C82.5889 4.75889 81.4325 3.06885 78.4082 3.06885C75.4729 3.06885 71.0254 4.75889 65.1992 8.13898C57.5495 4.04729 49.4996 4.04729 41.8499 8.13898C36.0237 4.80337 31.5762 3.06885 28.6409 3.06885C25.6166 3.06885 24.4602 4.75889 24.0155 5.78181C22.192 10.2293 23.5707 18.4571 25.1718 24.906C21.7917 30.3319 18.9009 36.6029 16.855 43.0962C14.7202 44.386 13.2526 46.2984 12.8968 46.8321C7.96007 52.3915 4.98025 61.6422 3.646 66.6679V66.7568C3.37916 67.7353 3.20126 68.4914 3.11231 68.9806L2.97888 69.5143C2.84546 70.1814 3.02336 70.893 3.4681 71.3822C3.86838 71.9159 4.5355 72.1828 5.20262 72.0938Z" fill="white"/>
<path d="M4.93655 71.827L7.82742 71.6046L10.4514 73.3836C11.0296 73.7839 11.7857 73.8728 12.4528 73.606C12.9865 73.3836 13.4312 72.9833 13.6536 72.4941C15.655 84.9471 22.4596 94.8205 33.0002 100.38L34.29 105.672C22.2373 107.362 16.1442 110.298 16.1442 114.434C16.1442 115.501 16.5445 116.435 17.3006 117.325C8.62797 118.57 6.6266 121.061 6.6266 123.151C6.6266 129.244 23.4826 129.733 28.6417 129.733C33.4449 129.733 48.2551 129.333 50.3899 124.396C51.5017 124.441 52.5691 124.441 53.681 124.441C57.1056 124.441 60.4857 124.352 63.6878 124.129C63.5544 124.441 63.5099 124.752 63.5099 125.108C63.5099 127.643 66.7566 128.933 73.161 128.933C79.5654 128.933 82.812 127.643 82.812 125.108C82.812 123.64 81.7446 122.617 79.6098 121.995C87.3485 120.216 91.1733 117.725 91.1733 114.434C91.1733 111.41 87.8822 109.453 84.1463 108.118C86.6369 106.829 86.6369 105.45 86.6369 104.783C86.6369 101.358 81.0775 99.9351 75.2068 99.3569C84.68 93.7086 90.8175 84.3244 92.7299 72.672C92.9523 73.1167 93.3526 73.4281 93.8418 73.606C94.5089 73.8728 95.2205 73.7839 95.8432 73.3836L98.4672 71.6046L101.358 71.827C101.403 71.827 101.491 71.827 101.536 71.827C102.737 71.827 103.671 70.8485 103.671 69.6922C103.671 69.4698 103.626 69.2474 103.582 69.0251V68.9806V68.9361L103.537 68.6693C103.448 68.2245 103.226 67.4684 103.004 66.49V66.4455C101.447 61.4643 98.6896 52.1246 93.7528 46.5653C93.397 46.0316 91.9739 44.2526 89.928 42.9628C87.8822 36.425 84.9913 30.1096 81.5667 24.6392C83.1678 18.1903 84.591 9.96245 82.7231 5.55944C82.2783 4.53652 81.122 2.84648 78.0977 2.84648C75.1624 2.84648 70.7149 4.53652 64.8887 7.91661C57.239 3.82492 49.189 3.82492 41.5394 7.91661C35.7576 4.49205 31.3101 2.802 28.3748 2.802C25.3505 2.802 24.1942 4.49205 23.7494 5.51497C21.8815 9.91798 23.3047 18.1458 24.9058 24.5947C21.4812 30.0206 18.6348 36.2916 16.589 42.7849C14.4542 44.0747 12.9865 45.9871 12.6307 46.5208C7.69399 52.1246 4.71418 61.3754 3.37993 66.401V66.49C3.11308 67.4684 2.93518 68.2245 2.84623 68.7137L2.66833 69.203C2.53491 69.8701 2.71281 70.5817 3.15756 71.0709C3.60231 71.6046 4.26943 71.8715 4.93655 71.827Z" fill="#F1F1F1"/>
<path d="M4.71345 71.5601L7.60431 71.3378L10.2283 73.1168C10.8065 73.517 11.5626 73.606 12.2297 73.3391C12.7634 73.1168 13.2081 72.7165 13.4305 72.2272C15.4319 84.6802 22.2365 94.5536 32.7771 100.113L34.0669 105.405C22.0142 107.096 15.9211 110.031 15.9211 114.167C15.9211 115.234 16.3214 116.168 17.0775 117.058C8.40486 118.303 6.40349 120.794 6.40349 122.884C6.40349 128.977 23.2595 129.466 28.4185 129.466C33.2218 129.466 48.032 129.066 50.1668 124.129C51.2786 124.174 52.346 124.174 53.4579 124.174C56.8825 124.174 60.2625 124.085 63.4647 123.863C63.3313 124.174 63.2868 124.485 63.2868 124.841C63.2868 127.376 66.5335 128.666 72.9379 128.666C79.3423 128.666 82.5889 127.376 82.5889 124.841C82.5889 123.373 81.5215 122.35 79.3867 121.728C87.1254 119.949 90.9502 117.458 90.9502 114.167C90.9502 111.143 87.659 109.186 83.9232 107.852C86.4138 106.562 86.4138 105.183 86.4138 104.516C86.4138 101.091 80.8544 99.6682 74.9837 99.0901C84.4569 93.4418 90.5944 84.0576 92.5068 72.4052C92.7292 72.8499 93.1295 73.1612 93.6187 73.3391C94.2858 73.606 94.9974 73.517 95.62 73.1168L98.2441 71.3378L101.135 71.5601C101.179 71.5601 101.268 71.5601 101.313 71.5601C102.514 71.5601 103.448 70.5817 103.448 69.4253C103.448 69.203 103.403 68.9806 103.359 68.7582V68.7137V68.6693L103.314 68.4024C103.225 67.9577 103.047 67.2016 102.781 66.2231V66.1787C101.402 61.153 98.4664 51.8578 93.5297 46.2984C93.1739 45.7647 91.7507 43.9857 89.7049 42.696C87.6146 36.1137 84.7682 29.7982 81.3436 24.3278C82.9447 17.879 84.3679 9.65113 82.5 5.24812C82.0552 4.2252 80.8989 2.53516 77.8746 2.53516C74.9392 2.53516 70.4918 4.2252 64.6656 7.60529C57.0159 3.5136 48.9659 3.5136 41.3163 7.60529C35.49 4.2252 31.0426 2.53516 28.1072 2.53516C25.0829 2.53516 23.9266 4.2252 23.4818 5.24812C21.6139 9.65113 23.0371 17.879 24.6382 24.3278C21.2581 29.7538 18.3672 36.0247 16.3214 42.5625C14.1866 43.8523 12.7189 45.7647 12.3631 46.2984C7.42641 51.8578 4.4466 61.1085 3.11235 66.0897V66.1787C2.8455 67.1571 2.66761 67.9132 2.57866 68.4024L2.40076 68.9361C2.26733 69.6032 2.44523 70.3148 2.88998 70.8041C3.33473 71.3378 4.00185 71.6046 4.71345 71.5601Z" fill="#E2E2E2"/>
<path d="M4.44632 71.2486L7.33718 71.0262L9.9612 72.8052C10.5394 73.2055 11.2954 73.2944 11.9626 73.0276C12.4963 72.8052 12.941 72.405 13.1634 71.9157C15.1648 84.3687 21.9694 94.2421 32.51 99.8015L33.7997 105.094C21.747 106.784 15.654 109.719 15.654 113.856C15.654 114.923 16.0543 115.857 16.8103 116.746C8.13773 117.992 6.13636 120.482 6.13636 122.573C6.13636 128.666 22.9923 129.155 28.1514 129.155C32.9547 129.155 47.7648 128.755 49.8996 123.818C51.0115 123.862 52.0789 123.862 53.1908 123.862C56.6153 123.862 59.9954 123.773 63.1976 123.551C63.0642 123.862 63.0197 124.174 63.0197 124.529C63.0197 127.065 66.2664 128.354 72.6707 128.354C79.0751 128.354 82.3218 127.065 82.3218 124.529C82.3218 123.062 81.2544 122.039 79.1196 121.416C86.8582 119.637 90.6831 117.147 90.6831 113.856C90.6831 110.831 87.3919 108.874 83.656 107.54C86.1466 106.25 86.1466 104.872 86.1466 104.204C86.1466 100.78 80.5873 99.3567 74.7166 98.7785C84.1897 93.1302 90.3273 83.746 92.2397 72.0936C92.4621 72.5384 92.8623 72.8497 93.3516 73.0276C94.0187 73.2944 94.7303 73.2055 95.3529 72.8052L97.9769 71.0262L100.868 71.2486C100.912 71.2486 101.001 71.2486 101.046 71.2486C102.247 71.2486 103.181 70.2702 103.181 69.0693C103.181 68.847 103.136 68.6246 103.092 68.4022V68.3577V68.3133L103.047 68.0464C102.958 67.6017 102.78 66.8456 102.513 65.8672V65.8227C100.957 60.8415 98.1993 51.5018 93.2626 45.9424C92.9068 45.4087 91.4836 43.6297 89.4378 42.34C87.3919 35.8021 84.5011 29.4867 81.0765 24.0163C82.6776 17.5675 84.1008 9.33961 82.2328 4.9366C81.7881 3.91368 80.6318 2.22363 77.6075 2.22363C74.6721 2.22363 70.2246 3.91368 64.3984 7.29377C56.7488 3.20208 48.6988 3.20208 41.0491 7.29377C35.2229 3.95815 30.8199 2.26811 27.8401 2.26811C24.8158 2.26811 23.6595 3.95815 23.2147 4.98107C21.3468 9.38408 22.77 17.6119 24.3711 24.0608C20.991 29.4867 18.1446 35.7577 16.0543 42.251C13.9195 43.5408 12.4518 45.4532 12.096 45.9869C7.15928 51.5462 4.17947 60.8415 2.84522 65.8227V65.9116C2.57837 66.8901 2.40047 67.6461 2.31152 68.1354L2.1781 68.6691C2.04468 69.3362 2.22257 70.0478 2.66732 70.537C3.0676 71.0707 3.73472 71.3376 4.44632 71.2486Z" fill="#D4D4D4"/>
<path d="M4.18069 70.9818L7.07156 70.7594L9.69557 72.5384C10.2737 72.9387 11.0298 73.0276 11.6969 72.7608C12.2306 72.5384 12.6754 72.1381 12.8978 71.6489C14.8991 84.1019 21.7038 93.9753 32.2443 99.5346L33.5341 104.827C21.4814 106.517 15.3884 109.453 15.3884 113.589C15.3884 114.656 15.7886 115.59 16.5447 116.48C7.87211 117.725 5.87074 120.215 5.87074 122.306C5.87074 128.399 22.7267 128.888 27.8858 128.888C32.6891 128.888 47.4992 128.488 49.634 123.551C50.7459 123.596 51.8133 123.596 52.9251 123.596C56.3497 123.596 59.7298 123.507 62.932 123.284C62.7986 123.596 62.7541 123.907 62.7541 124.263C62.7541 126.798 66.0007 128.087 72.4051 128.087C78.8095 128.087 82.0562 126.798 82.0562 124.263C82.0562 122.795 80.9888 121.772 78.854 121.149C86.5926 119.37 90.4174 116.88 90.4174 113.589C90.4174 110.564 87.1263 108.607 83.3904 107.273C85.881 105.983 85.881 104.605 85.881 103.938C85.881 100.513 80.3216 99.0899 74.451 98.5117C83.9241 92.8634 90.0616 83.4792 91.9741 71.8268C92.1964 72.2715 92.5967 72.5829 93.0859 72.7608C93.7531 73.0276 94.4647 72.9387 95.0873 72.5384L97.7113 70.7594L100.602 70.9818C100.647 70.9818 100.736 70.9818 100.78 70.9818C101.981 70.9818 102.915 70.0033 102.915 68.8025C102.915 68.5801 102.87 68.3577 102.826 68.1354V68.0909V68.0464L102.781 67.7796C102.693 67.3348 102.515 66.5788 102.248 65.6003V65.5558C100.869 60.5302 97.9337 51.2349 92.997 45.6756C92.6412 45.1419 91.218 43.3629 89.1721 42.0731C87.1263 35.5353 84.2354 29.2199 80.8109 23.7495C82.412 17.3006 83.8352 9.07276 81.9672 4.66975C81.5225 3.64683 80.3661 1.95679 77.3418 1.95679C74.4065 1.95679 69.959 3.64683 64.1328 7.02692C56.4831 2.93523 48.4332 2.93523 40.7835 7.02692C34.9573 3.64683 30.5543 1.95679 27.5745 1.95679C24.5502 1.95679 23.3938 3.64683 22.9491 4.66975C21.0811 9.07276 22.5043 17.3006 24.1054 23.7495C20.7253 29.1754 17.8345 35.4464 15.7886 41.9397C13.6538 43.2295 12.1862 45.1419 11.8304 45.6756C6.89366 51.2349 3.91384 60.4857 2.5796 65.5114V65.6003C2.31275 66.5788 2.13485 67.3348 2.0459 67.8241L1.91248 68.3577C1.77905 69.0249 1.95695 69.7365 2.4017 70.2257C2.80197 70.7594 3.46909 71.0262 4.18069 70.9818Z" fill="#C5C5C5"/>
<path d="M92.1957 68.3577C92.1957 68.4022 92.1957 68.4022 92.1957 68.3577V68.3577ZM3.91311 70.7149L6.80398 70.4925L9.428 72.2715C10.0062 72.6718 10.7622 72.7608 11.4294 72.4939C11.9631 72.2715 12.4078 71.8713 12.6302 71.382C14.6316 83.835 21.4362 93.7084 31.9768 99.2678L33.2665 104.56C21.2138 106.206 15.1208 109.141 15.1208 113.277C15.1208 114.345 15.5211 115.279 16.2771 116.168C7.60453 117.414 5.60316 119.904 5.60316 121.994C5.60316 128.087 22.4591 128.577 27.6182 128.577C32.4215 128.577 47.2316 128.176 49.3664 123.24C50.4783 123.284 51.5457 123.284 52.6576 123.284C56.0821 123.284 59.4622 123.195 62.6644 122.973C62.531 123.284 62.4865 123.596 62.4865 123.951C62.4865 126.486 65.7332 127.776 72.1375 127.776C78.5419 127.776 81.7886 126.486 81.7886 123.951C81.7886 122.484 80.7212 121.461 78.5864 120.838C86.325 119.059 90.1499 116.568 90.1499 113.277C90.1499 110.253 86.8587 108.296 83.1228 106.962C85.6134 105.672 85.6134 104.293 85.6134 103.626C85.6134 100.202 80.0541 98.7785 74.1834 98.2004C83.6565 92.5521 89.7941 83.1679 91.7065 71.5155C91.9289 71.9602 92.3291 72.2715 92.8184 72.4494C93.4855 72.7163 94.1971 72.6273 94.8197 72.2271L97.4437 70.4481L100.335 70.6704C100.379 70.6704 100.468 70.6704 100.513 70.6704C101.713 70.6704 102.647 69.692 102.647 68.5357C102.647 68.3133 102.603 68.0909 102.558 67.8685V67.8241V67.7796L102.514 67.5127C102.425 67.068 102.247 66.3119 101.98 65.3335V65.289C100.824 60.2188 97.6661 50.9681 92.7294 45.4087C92.3736 44.875 90.9504 43.096 88.9046 41.8063C86.8587 35.2685 83.9679 28.953 80.5433 23.4826C82.1444 17.0338 83.5676 8.80592 81.6996 4.40291C81.2549 3.37999 80.0985 1.68994 77.0743 1.68994C74.1389 1.68994 69.6914 3.37999 63.8652 6.76007C56.2155 2.66839 48.1656 2.66839 40.5159 6.76007C34.7342 3.37999 30.2867 1.68994 27.3069 1.68994C24.2826 1.68994 23.1263 3.37999 22.6815 4.40291C20.8136 8.80592 22.2368 17.0338 23.8379 23.4826C20.4578 28.9086 17.6114 35.1795 15.5211 41.7173C13.3863 43.0071 11.9186 44.9195 11.5628 45.4532C6.62608 51.0126 3.64627 60.2633 2.31202 65.289V65.3779C2.04517 66.3564 1.86727 67.1124 1.77832 67.6017L1.6449 68.1354C1.51147 68.8025 1.68937 69.5141 2.13412 70.0033C2.57887 70.4925 3.24599 70.7594 3.91311 70.7149Z" fill="#B7B7B7"/>
<path d="M3.64554 70.4036L6.5364 70.1813L9.16042 71.9603C9.73859 72.3605 10.4947 72.4495 11.1618 72.1826C11.6955 71.9603 12.1402 71.56 12.3626 71.0708C14.364 83.5237 21.1686 93.3971 31.7092 98.9565L32.9989 104.249C20.9463 105.939 14.8532 108.874 14.8532 113.011C14.8532 114.078 15.2535 115.012 16.0095 115.901C7.33695 117.147 5.33558 119.637 5.33558 121.728C5.33558 127.821 22.1916 128.31 27.3506 128.31C32.1539 128.31 46.9641 127.91 49.0988 122.973C50.2107 123.017 51.2781 123.017 52.39 123.017C55.8145 123.017 59.1946 122.928 62.3968 122.706C62.2634 123.017 62.2189 123.329 62.2189 123.685C62.2189 126.22 65.4656 127.509 71.87 127.509C78.2744 127.509 81.521 126.22 81.521 123.685C81.521 122.217 80.4536 121.194 78.3188 120.571C86.0574 118.792 89.8823 116.302 89.8823 113.011C89.8823 109.986 86.5911 108.029 82.8553 106.695C85.3459 105.405 85.3458 104.027 85.3458 103.359C85.3458 99.9349 79.7865 98.5117 73.9158 97.9336C83.389 92.2853 89.5265 82.9011 91.4389 71.2487C91.6613 71.6934 92.0616 72.0047 92.5508 72.1826C93.2179 72.4495 93.9295 72.3605 94.5521 71.9603L97.1762 70.1813L100.067 70.4036C100.112 70.4036 100.2 70.4036 100.245 70.4036C101.446 70.4036 102.38 69.4252 102.38 68.2244C102.38 68.002 102.335 67.7796 102.291 67.5572V67.5128V67.4683L102.246 67.2014C102.157 66.7567 101.979 66.0006 101.713 65.0222V64.9777C100.334 59.952 97.3985 50.6568 92.4618 45.0974C92.106 44.5637 90.6828 42.7848 88.637 41.495C86.5911 34.9572 83.7003 28.6417 80.2757 23.1713C81.8768 16.7225 83.3 8.49464 81.4321 4.09163C80.9873 3.06871 79.831 1.37866 76.8067 1.37866C73.8713 1.37866 69.4239 3.06871 63.5976 6.4488C55.948 2.35711 47.898 2.35711 40.2483 6.4488C34.4666 3.11318 30.0191 1.42314 27.0393 1.42314C24.015 1.42314 22.8587 3.11318 22.4139 4.1361C20.546 8.53911 21.9692 16.767 23.5703 23.2158C20.1902 28.6417 17.3438 34.9127 15.298 41.406C13.1632 42.6958 11.6955 44.6082 11.3397 45.1419C6.3585 50.7013 3.37869 59.9965 2.04444 64.9777V65.0667C1.77759 66.0451 1.59969 66.8012 1.51074 67.2904L1.37732 67.8241C1.24389 68.4912 1.42179 69.2028 1.86654 69.692C2.31129 70.2257 2.97841 70.4926 3.64554 70.4036Z" fill="#A8A8A8"/>
<path d="M3.37991 70.1368L6.27078 69.9144L8.89479 71.6934C9.47297 72.0937 10.229 72.1826 10.8962 71.9158C11.4299 71.6934 11.8746 71.2931 12.097 70.8039C14.0984 83.2569 20.903 93.1303 31.4435 98.6896L32.7333 103.982C20.6806 105.672 14.5876 108.608 14.5876 112.744C14.5876 113.811 14.9879 114.745 15.7439 115.635C7.07133 116.88 5.06996 119.37 5.06996 121.461C5.06996 127.554 21.9259 128.043 27.085 128.043C31.8883 128.043 46.6984 127.643 48.8332 122.706C49.9451 122.706 51.0125 122.751 52.1244 122.751C55.5489 122.751 58.929 122.662 62.1312 122.439C61.9978 122.751 61.9533 123.062 61.9533 123.418C61.9533 125.953 65.2 127.243 71.6043 127.243C78.0087 127.243 81.2554 125.953 81.2554 123.418C81.2554 121.95 80.188 120.927 78.0532 120.304C85.7918 118.525 89.6167 116.035 89.6167 112.744C89.6167 109.719 86.3255 107.763 82.5896 106.428C85.0802 105.139 85.0802 103.76 85.0802 103.093C85.0802 99.6681 79.5209 98.2449 73.6502 97.6667C83.1233 92.0184 89.2609 82.6342 91.1733 70.9818C91.3957 71.4266 91.7959 71.7379 92.2852 71.9158C92.9523 72.1826 93.6639 72.0937 94.2865 71.6934L96.9105 69.9144L99.8014 70.1368C99.8459 70.1368 99.9348 70.1368 99.9793 70.1368C101.18 70.1368 102.114 69.1583 102.114 67.9575C102.114 67.7352 102.07 67.5128 102.025 67.2904V67.2459V67.2015L101.981 66.9346C101.892 66.4899 101.714 65.7338 101.447 64.7553V64.7109C100.068 59.6852 97.1329 50.39 92.1962 44.8306C91.8404 44.2969 90.4172 42.5179 88.3714 41.2281C86.3255 34.6903 83.4347 28.3749 80.0101 22.9045C81.6112 16.4556 83.0344 8.22779 81.1664 3.82478C80.7217 2.80186 79.5653 1.11182 76.5411 1.11182C73.6057 1.11182 69.1582 2.80186 63.332 6.18195C55.6823 2.09026 47.6324 2.09026 39.9827 6.18195C34.201 2.84634 29.7535 1.11182 26.8182 1.11182C23.7939 1.11182 22.6375 2.80186 22.1928 3.82478C20.3248 8.22779 21.748 16.4556 23.3491 22.9045C19.9246 28.3304 17.0782 34.6014 15.0323 41.0947C12.8975 42.3845 11.4299 44.2969 11.0741 44.8306C6.09288 50.4344 3.11306 59.6852 1.77882 64.7109V64.7998C1.51197 65.7783 1.33407 66.5343 1.24512 67.0236L1.11169 67.5572C0.978269 68.2244 1.15617 68.936 1.60092 69.4252C2.04567 69.9144 2.71279 70.1813 3.37991 70.1368Z" fill="#9A9A9A"/>
<path d="M91.3954 67.5128C91.3954 67.5573 91.3954 67.5573 91.3954 67.5128V67.5128ZM3.11278 69.8699L6.00365 69.6476L8.62766 71.4266C9.20584 71.8268 9.96191 71.9158 10.629 71.6489C11.1627 71.4266 11.6075 71.0263 11.8299 70.5371C13.8312 82.99 20.6359 92.8634 31.1764 98.4228L32.4662 103.715C20.4135 105.405 14.3204 108.341 14.3204 112.477C14.3204 113.544 14.7207 114.478 15.4768 115.368C6.80419 116.613 4.80282 119.104 4.80282 121.194C4.80282 127.287 21.6588 127.776 26.8179 127.776C31.6212 127.776 46.4313 127.376 48.5661 122.439C49.678 122.484 50.7453 122.484 51.8572 122.484C55.2818 122.484 58.6619 122.395 61.8641 122.172C61.7306 122.484 61.6862 122.795 61.6862 123.151C61.6862 125.686 64.9328 126.976 71.3372 126.976C77.7416 126.976 80.9883 125.686 80.9883 123.151C80.9883 121.683 79.9209 120.66 77.7861 120.038C85.5247 118.259 89.3495 115.768 89.3495 112.477C89.3495 109.453 86.0584 107.496 82.3225 106.161C84.8131 104.872 84.8131 103.493 84.8131 102.826C84.8131 99.4013 79.2537 97.9781 73.3831 97.3999C82.8562 91.7516 88.9937 82.3674 90.9061 70.715C91.1285 71.1597 91.5288 71.471 92.018 71.6489C92.6851 71.9158 93.3967 71.8268 94.0194 71.4266L96.6434 69.6476L99.5343 69.8699C99.5787 69.8699 99.6677 69.8699 99.7122 69.8699C100.913 69.8699 101.847 68.8915 101.847 67.7352C101.847 67.5128 101.802 67.2904 101.758 67.068V67.0236V66.9791L101.714 66.7122C101.625 66.2675 101.447 65.5114 101.18 64.533V64.4885C99.8011 59.4628 96.8658 50.1676 91.9291 44.6082C91.5733 44.0745 90.1501 42.2955 88.1042 41.0058C86.0584 34.468 83.1675 28.1525 79.743 22.6821C81.3441 16.2333 82.7672 8.00542 80.8993 3.60241C80.4546 2.57949 79.2982 0.889446 76.2739 0.889446C73.3386 0.889446 68.8911 2.57949 63.0649 5.95958C55.4152 1.86789 47.3653 1.86789 39.7156 5.95958C33.9339 2.53502 29.4864 0.844971 26.551 0.844971C23.5267 0.844971 22.3704 2.53502 21.9256 3.55794C20.0577 7.96095 21.4809 16.1888 23.082 22.6376C19.7019 28.0636 16.811 34.3345 14.7652 40.8279C12.6304 42.1176 11.1627 44.0301 10.8069 44.5638C5.87022 50.1231 2.89041 59.3739 1.55616 64.3995V64.4885C1.28931 65.4669 1.11141 66.223 1.02246 66.7122L0.889038 67.2459C0.755613 67.9131 0.933512 68.6246 1.37826 69.1139C1.77853 69.6476 2.44566 69.9144 3.11278 69.8699Z" fill="#8B8B8B"/>
<path d="M2.8452 69.6031L5.73607 69.3807L8.36008 71.1597C8.93826 71.56 9.69433 71.6489 10.3615 71.3821C10.8952 71.1597 11.3399 70.7594 11.5623 70.2702C13.5636 82.7232 20.3683 92.5966 30.9088 98.156L32.1986 103.448C20.1459 105.139 14.0529 108.074 14.0529 112.21C14.0529 113.277 14.4531 114.211 15.2092 115.101C6.53662 116.346 4.53525 118.837 4.53525 120.927C4.53525 127.02 21.3912 127.509 26.5503 127.509C31.3536 127.509 46.1637 127.109 48.2985 122.172C49.4104 122.217 50.4778 122.217 51.5896 122.217C55.0142 122.217 58.3943 122.128 61.5965 121.906C61.4631 122.217 61.4186 122.528 61.4186 122.884C61.4186 125.419 64.6653 126.709 71.0696 126.709C77.474 126.709 80.7207 125.419 80.7207 122.884C80.7207 121.416 79.6533 120.393 77.5185 119.771C85.2571 117.992 89.0819 115.501 89.0819 112.21C89.0819 109.186 85.7908 107.229 82.0549 105.895C84.5455 104.605 84.5455 103.226 84.5455 102.559C84.5455 99.1344 78.9862 97.7112 73.1155 97.133C82.5886 91.4847 88.7262 82.1005 90.6386 70.4481C90.8609 70.8929 91.2612 71.2042 91.7504 71.3821C92.4176 71.6489 93.1292 71.56 93.7518 71.1597L96.3758 69.3807L99.2667 69.6031C99.3112 69.6031 99.4001 69.6031 99.4446 69.6031C100.645 69.6031 101.579 68.6247 101.579 67.4238C101.579 67.2015 101.535 66.9791 101.49 66.7567V66.7122V66.6678L101.446 66.4009C101.357 65.9562 101.179 65.2001 100.912 64.2216V64.1772C99.5335 59.1515 96.5982 49.8563 91.6615 44.2969C91.3057 43.7632 89.8825 41.9842 87.8366 40.6944C85.7908 34.1566 82.8999 27.8412 79.4754 22.3708C81.0765 15.922 82.4997 7.6941 80.6317 3.29109C80.187 2.26817 79.0306 0.578125 76.0063 0.578125C73.071 0.578125 68.6235 2.26817 62.7973 5.64826C55.1476 1.55657 47.0977 1.55657 39.448 5.64826C33.6663 2.26817 29.2188 0.578125 26.2835 0.578125C23.2592 0.578125 22.1028 2.26817 21.6581 3.29109C19.7901 7.6941 21.2133 15.922 22.8144 22.3708C19.3898 27.7967 16.5435 34.0677 14.4976 40.561C12.3628 41.8508 10.8952 43.7632 10.5394 44.2969C5.60264 49.8563 2.62283 59.1515 1.28858 64.1327V64.2216C1.02173 65.2001 0.843834 65.9562 0.754884 66.4454L0.621459 66.9791C0.488035 67.6462 0.665934 68.3578 1.11068 68.847C1.51096 69.3807 2.17808 69.6476 2.8452 69.6031Z" fill="#7D7D7D"/>
<path d="M2.57913 69.2918L5.47 69.0694L8.09401 70.8484C8.67219 71.2487 9.42826 71.3377 10.0954 71.0708C10.6291 70.8484 11.0738 70.4482 11.2962 69.9589C13.2976 82.4119 20.1022 92.2853 30.6428 97.8447L31.9325 103.137C19.8799 104.827 13.7868 107.763 13.7868 111.899C13.7868 112.966 14.1871 113.9 14.9431 114.79C6.27054 116.035 4.26918 118.525 4.26918 120.616C4.26918 126.709 21.1251 127.198 26.2842 127.198C31.0875 127.198 45.8976 126.798 48.0324 121.861C49.1443 121.906 50.2117 121.906 51.3236 121.906C54.7481 121.906 58.1282 121.817 61.3304 121.594C61.197 121.906 61.1525 122.217 61.1525 122.573C61.1525 125.108 64.3992 126.398 70.8036 126.398C77.2079 126.398 80.4546 125.108 80.4546 122.573C80.4546 121.105 79.3872 120.082 77.2524 119.459C84.991 117.68 88.8159 115.19 88.8159 111.899C88.8159 108.874 85.5247 106.918 81.7888 105.583C84.2794 104.294 84.2794 102.915 84.2794 102.248C84.2794 98.8231 78.7201 97.3999 72.8494 96.8218C82.3225 91.1734 88.4601 81.7893 90.3725 70.1368C90.5949 70.5816 90.9951 70.8929 91.4844 71.0708C92.1515 71.3377 92.8631 71.2487 93.4857 70.8484L96.1098 69.0694L99.0006 69.2918C99.0451 69.2918 99.134 69.2918 99.1785 69.2918C100.379 69.2918 101.313 68.3134 101.313 67.1125C101.313 66.8902 101.269 66.6678 101.224 66.4454V66.401V66.3565L101.18 66.0896C101.091 65.6449 100.913 64.8888 100.646 63.9104V63.8659C99.2675 58.8402 96.3321 49.545 91.3954 43.9856C91.0396 43.4519 89.6164 41.6729 87.5706 40.3832C85.5247 33.8454 82.6339 27.5299 79.2093 22.0595C80.8104 15.6107 82.2336 7.38282 80.3657 2.97981C79.9209 1.95689 78.7646 0.266846 75.7403 0.266846C72.8049 0.266846 68.3574 1.95689 62.5312 5.33698C54.8816 1.24529 46.8316 1.24529 39.1819 5.33698C33.4002 2.00136 28.9527 0.266846 26.0174 0.266846C22.9931 0.266846 21.8367 1.95689 21.392 2.97981C19.524 7.38282 20.9472 15.6107 22.5483 22.0595C19.1683 27.5299 16.2774 33.8009 14.2315 40.2942C12.0968 41.584 10.6291 43.4964 10.2733 44.0301C5.33657 49.5895 2.35676 58.8402 1.02251 63.8659V63.9548C0.755661 64.9333 0.577762 65.6894 0.488812 66.1786L0.310913 66.7123C0.177488 67.3794 0.355387 68.091 0.800136 68.5802C1.24488 69.0694 1.91201 69.3363 2.57913 69.2918Z" fill="#6E6E6E"/>
<path d="M90.5946 66.6678C90.5946 66.7123 90.5946 66.7123 90.5946 66.6678V66.6678ZM2.312 69.025L5.20286 68.8026L7.82688 70.5816C8.40505 70.9819 9.16113 71.0708 9.82825 70.804C10.3619 70.5816 10.8067 70.1813 11.0291 69.6921C13.0304 82.1451 19.8351 92.0185 30.3756 97.5778L31.6654 102.87C19.6127 104.56 13.5197 107.496 13.5197 111.632C13.5197 112.699 13.9199 113.633 14.676 114.523C6.00341 115.768 4.00204 118.259 4.00204 120.349C4.00204 126.442 20.858 126.931 26.0171 126.931C30.8204 126.931 45.6305 126.531 47.7653 121.594C48.8772 121.639 49.9446 121.639 51.0564 121.639C54.481 121.639 57.8611 121.55 61.0633 121.327C60.9299 121.639 60.8854 121.95 60.8854 122.306C60.8854 124.841 64.132 126.131 70.5364 126.131C76.9408 126.131 80.1875 124.841 80.1875 122.306C80.1875 120.838 79.1201 119.815 76.9853 119.193C84.7239 117.414 88.5487 114.923 88.5487 111.632C88.5487 108.608 85.2576 106.651 81.5217 105.316C84.0123 104.027 84.0123 102.648 84.0123 101.981C84.0123 98.5563 78.4529 97.1331 72.5823 96.5549C82.0554 90.9066 88.1929 81.5224 90.1054 69.87C90.3277 70.3148 90.728 70.6261 91.2172 70.804C91.8844 71.0708 92.596 70.9819 93.2186 70.5816L95.8426 68.8026L98.7335 69.025C98.778 69.025 98.8669 69.025 98.9114 69.025C100.112 69.025 101.046 68.0465 101.046 66.8902C101.046 66.6678 101.002 66.4454 100.957 66.2231V66.1786V66.1341L100.913 65.8673C100.824 65.4225 100.646 64.6664 100.379 63.688V63.6435C99.0448 58.6179 96.065 49.3226 91.1283 43.7633C90.7725 43.2296 89.3493 41.4506 87.3034 40.1608C85.2576 33.623 82.3667 27.3076 78.9422 21.8372C80.5433 15.3883 81.9665 7.16045 80.0985 2.75744C79.6538 1.73452 78.4974 0.0444749 75.4731 0.0444749C72.5378 0.0444749 68.0903 1.73452 62.2641 5.11461C54.6144 1.02292 46.5645 1.02292 38.9148 5.11461C33.1331 1.69004 28.6856 0 25.7502 0C22.726 0 21.5696 1.69004 21.1249 2.71297C19.2569 7.11598 20.6801 15.3438 22.2812 21.7927C18.9011 27.2631 16.0103 33.4896 13.9644 40.0274C11.8296 41.3171 10.3619 43.2296 10.0061 43.7633C5.06944 49.3226 2.08962 58.5734 0.755379 63.599V63.688C0.48853 64.6664 0.310631 65.4225 0.221681 65.9117L0.0882563 66.4454C-0.0451682 67.1126 0.132731 67.8242 0.57748 68.3134C0.977753 68.8026 1.64488 69.0695 2.312 69.025Z" fill="#606060"/>
<path d="M2.312 69.025L5.20286 68.8026L7.82688 70.5816C8.40505 70.9819 9.16113 71.0708 9.82825 70.804C10.3619 70.5816 10.8067 70.1813 11.0291 69.6921C13.0304 82.1451 19.8351 92.0185 30.3756 97.5778L31.6654 102.87C19.6127 104.56 13.5197 107.496 13.5197 111.632C13.5197 112.699 13.9199 113.633 14.676 114.523C6.00341 115.768 4.00204 118.259 4.00204 120.349C4.00204 126.442 20.858 126.931 26.0171 126.931C30.8204 126.931 45.6305 126.531 47.7653 121.594C48.8772 121.639 49.9446 121.639 51.0564 121.639C54.481 121.639 57.8611 121.55 61.0633 121.327C60.9299 121.639 60.8854 121.95 60.8854 122.306C60.8854 124.841 64.132 126.131 70.5364 126.131C76.9408 126.131 80.1875 124.841 80.1875 122.306C80.1875 120.838 79.1201 119.815 76.9853 119.193C84.7239 117.414 88.5487 114.923 88.5487 111.632C88.5487 108.608 85.2576 106.651 81.5217 105.316C84.0123 104.027 84.0123 102.648 84.0123 101.981C84.0123 98.5563 78.4529 97.1331 72.5823 96.5549C82.0554 90.9066 88.1929 81.5224 90.1054 69.87C90.3277 70.3148 90.728 70.6261 91.2172 70.804C91.8844 71.0708 92.596 70.9819 93.2186 70.5816L95.8426 68.8026L98.7335 69.025C98.778 69.025 98.8669 69.025 98.9114 69.025C100.112 69.025 101.046 68.0465 101.046 66.8902C101.046 66.6678 101.002 66.4454 100.957 66.2231V66.1786V66.1341L100.913 65.8673C100.824 65.4225 100.646 64.6664 100.379 63.688V63.6435C99.0448 58.6179 96.065 49.3226 91.1283 43.7633C90.7725 43.2296 89.3493 41.4506 87.3034 40.1608C85.2576 33.623 82.3667 27.3076 78.9422 21.8372C80.5433 15.3883 81.9665 7.16045 80.0985 2.75744C79.6538 1.73452 78.4974 0.0444749 75.4731 0.0444749C72.5378 0.0444749 68.0903 1.73452 62.2641 5.11461C54.6144 1.02292 46.5645 1.02292 38.9148 5.11461C33.1331 1.69004 28.6856 0 25.7502 0C22.726 0 21.5696 1.69004 21.1249 2.71297C19.2569 7.11598 20.6801 15.3438 22.2812 21.7927C18.9011 27.2631 16.0103 33.4896 13.9644 40.0274C11.8296 41.3171 10.3619 43.2296 10.0061 43.7633C5.06944 49.3226 2.08962 58.5734 0.755379 63.599V63.688C0.48853 64.6664 0.310631 65.4225 0.221681 65.9117L0.0882563 66.4454C-0.0451682 67.1126 0.132731 67.8242 0.57748 68.3134C0.977753 68.8026 1.64488 69.0695 2.312 69.025ZM90.5946 66.6678C90.5946 66.7123 90.5946 66.7123 90.5946 66.6678V66.6678Z" fill="white"/>
<path d="M72.0474 105.272C77.8736 104.738 81.9653 103.449 81.9653 101.981C81.9653 100.024 74.8048 98.4229 65.9099 98.4229C57.0594 98.4229 49.8544 100.024 49.8544 101.981C49.8544 102.648 50.6105 103.226 51.9892 103.76C51.6779 103.76 51.3666 103.76 51.0997 103.76C31.5753 103.76 15.7422 107.273 15.7422 111.632C15.7422 113.277 17.966 114.79 21.8353 116.035C12.8958 116.48 6.22461 118.259 6.22461 120.349C6.22461 122.795 15.1196 124.752 26.1049 124.752C37.0902 124.752 45.9851 122.751 45.9851 120.349C45.9851 120.038 45.8072 119.682 45.4959 119.371C47.3194 119.415 49.2318 119.459 51.1442 119.459C70.6687 119.459 86.5017 115.946 86.5017 111.587C86.4572 109.008 80.7645 106.695 72.0474 105.272Z" fill="#522D18"/>
<path d="M70.5787 120.616C66.4426 120.616 63.0625 121.372 63.0625 122.306C63.0625 123.24 66.4426 123.996 70.5787 123.996C74.7149 123.996 78.095 123.24 78.095 122.306C78.095 121.372 74.7149 120.616 70.5787 120.616Z" fill="#522D18"/>
<path d="M11.6954 45.0975C11.6954 45.0975 14.3638 41.2282 17.8774 40.8724C21.7467 40.4721 25.2157 44.7417 21.3464 50.5679C18.9003 54.2149 10.9393 61.2864 9.07134 68.8026L5.82467 66.6234L2.17773 66.9347C2.17773 66.8902 5.20202 52.3025 11.6954 45.0975Z" fill="#F3C3D0"/>
<path d="M10.1832 65.6893L3.02276 63.4656C2.44458 65.5559 2.17773 66.8901 2.17773 66.8901L5.82467 66.5788L9.07134 68.7581C9.33819 67.7352 9.69398 66.7122 10.1832 65.6893Z" fill="#A25962"/>
<path d="M89.4382 45.0975C89.4382 45.0975 86.7697 41.2282 83.2562 40.8724C79.3869 40.4721 75.9179 44.7417 79.7872 50.5679C82.2333 54.2149 90.1943 61.2864 92.0623 68.8026L95.3089 66.6234L98.9559 66.9347C98.9559 66.8902 95.9316 52.3025 89.4382 45.0975Z" fill="#F3C3D0"/>
<path d="M90.9512 65.6893L98.1116 63.4656C98.6898 65.5559 98.9566 66.8901 98.9566 66.8901L95.3097 66.5788L92.063 68.7581C91.7962 67.7352 91.4404 66.7122 90.9512 65.6893Z" fill="#A25962"/>
<path d="M45.0952 108.786L48.6087 77.6533H27.75L35.3552 108.786H45.0952Z" fill="#F3A1B6"/>
<path d="M45.0955 108.786H35.3555L36.3339 112.477H39.6695L40.2032 111.41L40.7814 112.477H44.7397L45.0955 108.786Z" fill="#A25962"/>
<path d="M52.6562 77.6533L56.1698 108.786H65.9098L73.4705 77.6533H52.6562Z" fill="#F3A1B6"/>
<path d="M56.1699 108.786H65.9099L64.9315 112.477H61.5514L61.0622 111.41L60.4395 112.477H56.5257L56.1699 108.786Z" fill="#A25962"/>
<path d="M42.3383 9.69562C42.3383 9.69562 25.3489 -1.73441 23.1251 3.55809C20.679 9.3843 25.2599 24.6392 25.2599 24.6392C25.2599 24.6392 33.3988 19.4356 42.3383 9.69562Z" fill="#F3A1B6"/>
<path d="M39.8479 11.7415C39.8479 11.7415 27.217 3.20234 25.527 7.20507C23.7035 11.5636 27.1281 22.9047 27.1281 22.9047C27.1281 22.9047 33.2211 19.0354 39.8479 11.7415Z" fill="#D47492"/>
<path d="M58.9277 9.69555C58.9277 9.69555 75.8727 -1.73449 78.1409 3.60249C80.587 9.4287 75.9616 24.6836 75.9616 24.6836C75.9616 24.6836 67.8672 19.4355 58.9277 9.69555Z" fill="#F3A1B6"/>
<path d="M61.373 11.7415C61.373 11.7415 74.0484 3.20234 75.6939 7.20507C77.5174 11.5636 74.0929 22.9047 74.0929 22.9047C74.0929 22.9047 68.0443 19.0354 61.373 11.7415Z" fill="#D47492"/>
<path d="M88.682 61.6422C88.682 86.3702 71.6481 100.157 50.6115 100.157C29.5749 100.157 12.541 86.3702 12.541 61.6422C12.541 36.9142 29.6194 4.13623 50.6115 4.13623C71.6036 4.13623 88.682 36.9142 88.682 61.6422Z" fill="#F3A1B6"/>
<path d="M78.1859 79.2542C78.1859 92.6412 65.8664 100.113 50.6115 100.113C35.4011 100.113 23.0371 92.6412 23.0371 79.2542C23.0371 65.8673 35.3566 48.1218 50.6115 48.1218C65.8664 48.1663 78.1859 65.8673 78.1859 79.2542Z" fill="#F3C3D0"/>
<path d="M62.1302 30.9992C62.1302 35.4912 56.9711 38.6489 50.6557 38.6489C44.3403 38.6489 39.1367 35.4912 39.1367 30.9992C39.1367 26.5072 44.2958 20.5476 50.6112 20.5476C56.9267 20.5476 62.1302 26.4628 62.1302 30.9992Z" fill="#D47492"/>
<path d="M62.1302 31.8443C62.1302 35.6246 56.9711 38.6489 50.6557 38.6489C44.3403 38.6489 39.1367 35.6246 39.1367 31.8443C39.1367 28.0639 44.2958 23.1272 50.6112 23.1272C56.9267 23.1272 62.1302 28.0639 62.1302 31.8443Z" fill="#F3C3D0"/>
<path d="M47.8533 31.7108C47.8533 33.3119 47.1862 34.6017 46.3856 34.6017C45.5851 34.6017 44.918 33.3119 44.918 31.7108C44.918 30.1097 45.5851 28.8199 46.3856 28.8199C47.1862 28.7755 47.8533 30.1097 47.8533 31.7108Z" fill="#D47492"/>
<path d="M56.3474 31.7108C56.3474 33.3119 55.6803 34.6017 54.8798 34.6017C54.0792 34.6017 53.4121 33.3119 53.4121 31.7108C53.4121 30.1097 54.0792 28.8199 54.8798 28.8199C55.6803 28.7755 56.3474 30.1097 56.3474 31.7108Z" fill="#D47492"/>
<path d="M50.2551 42.8741C47.1419 42.8741 44.251 41.4953 42.2497 39.0937C42.1607 39.0047 42.2052 38.8713 42.2941 38.7824C42.3831 38.6934 42.5165 38.7379 42.6055 38.8268C44.5179 41.1395 47.2753 42.4293 50.2551 42.4293C53.2349 42.4293 56.0369 41.0951 57.9048 38.8268C57.9938 38.7379 58.1272 38.7379 58.2161 38.7824C58.3051 38.8713 58.3051 39.0047 58.2606 39.0937C56.2592 41.5398 53.3239 42.8741 50.2551 42.8741Z" fill="#A25962"/>
<path d="M42.6496 19.2133C42.6496 20.7254 41.4044 21.9707 39.8922 21.9707C38.3801 21.9707 37.1348 20.7254 37.1348 19.2133C37.1348 17.7011 38.3801 16.4558 39.8922 16.4558C41.4044 16.4558 42.6496 17.6566 42.6496 19.2133Z" fill="#4E292C"/>
<path d="M39.6705 18.3238C39.6705 18.813 39.2702 19.1688 38.8255 19.1688C38.3363 19.1688 37.9805 18.7685 37.9805 18.3238C37.9805 17.8346 38.3807 17.4788 38.8255 17.4788C39.3147 17.4788 39.6705 17.879 39.6705 18.3238Z" fill="white"/>
<path d="M38.735 20.1473C38.735 20.3697 38.5571 20.5031 38.3792 20.5031C38.1569 20.5031 38.0234 20.3252 38.0234 20.1473C38.0234 19.9249 38.2013 19.7915 38.3792 19.7915C38.5571 19.7915 38.735 19.9694 38.735 20.1473Z" fill="white"/>
<path d="M64.1301 19.2133C64.1301 20.7254 62.8848 21.9707 61.3727 21.9707C59.8605 21.9707 58.6152 20.7254 58.6152 19.2133C58.6152 17.7011 59.8605 16.4558 61.3727 16.4558C62.8848 16.4558 64.1301 17.6566 64.1301 19.2133Z" fill="#4E292C"/>
<path d="M61.194 18.3238C61.194 18.813 60.7937 19.1688 60.3489 19.1688C59.8597 19.1688 59.5039 18.7685 59.5039 18.3238C59.5039 17.8346 59.9042 17.4788 60.3489 17.4788C60.7937 17.4788 61.194 17.879 61.194 18.3238Z" fill="white"/>
<path d="M60.2155 20.1473C60.2155 20.3697 60.0376 20.5031 59.8597 20.5031C59.6373 20.5031 59.5039 20.3252 59.5039 20.1473C59.5039 19.9249 59.6818 19.7915 59.8597 19.7915C60.0376 19.7915 60.2155 19.9694 60.2155 20.1473Z" fill="white"/>
<path d="M82.0987 47.1879C78.8965 45.3645 84.4558 42.9628 81.3426 40.6946C80.4086 40.0275 78.8075 39.5383 77.8291 40.3388C76.8506 41.1394 76.7172 43.0962 75.294 41.3617C74.0043 39.7606 71.825 39.5383 70.3128 41.0949C69.5568 41.851 68.6228 43.1407 68.8452 44.2971C69.0231 45.1421 69.7347 45.5424 70.3573 46.0316C71.736 47.1879 68.8896 48.9225 68.6228 50.1678C68.0891 52.436 70.7131 54.5708 72.8034 54.3929C74.1377 54.3039 74.8938 53.192 75.4275 52.1246C75.7833 51.413 76.1835 50.1233 77.2064 50.2122C78.7631 50.3456 79.697 52.436 81.476 51.6354C82.7658 51.0572 83.4774 49.3672 82.9882 48.0774C82.8548 47.6772 82.499 47.4548 82.0987 47.1879Z" fill="#522D18"/>
<path d="M79.2975 52.3026C78.5414 51.9913 77.3406 52.1692 76.718 52.6584C76.629 52.7473 76.4956 52.8363 76.4066 52.9252C75.8285 53.281 75.4727 53.8147 75.4727 54.5263C75.5171 55.9495 77.6075 58.3956 79.1641 57.3282C80.4538 56.4832 81.032 53.0587 79.2975 52.3026Z" fill="#522D18"/>
<path d="M18.8997 78.409C21.6127 78.498 18.8108 81.967 21.6127 82.3673C22.4577 82.5007 23.6585 82.2339 24.0143 81.3889C24.3701 80.5438 23.792 79.2096 25.3041 79.8322C26.6828 80.4104 28.195 79.8322 28.6397 78.2756C28.8621 77.5196 29.04 76.3632 28.5063 75.6961C28.106 75.2069 27.4834 75.2069 26.9497 75.0734C25.6599 74.8066 26.9052 72.6718 26.6828 71.7823C26.2381 70.1367 23.8364 69.6475 22.5022 70.448C21.6572 70.9817 21.5682 71.9602 21.5682 72.8497C21.5682 73.4723 21.7461 74.4063 21.079 74.7176C20.0116 75.1624 18.7218 74.095 17.8323 75.2513C17.2097 76.0519 17.2986 77.4306 18.0547 78.0977C18.2326 78.3646 18.5884 78.3646 18.8997 78.409Z" fill="#522D18"/>
<path d="M16.7204 72.9834C17.2986 72.9389 18.0102 72.4052 18.2771 71.8715C18.3215 71.7825 18.366 71.6936 18.366 71.6046C18.6329 71.1599 18.6773 70.7151 18.4105 70.2704C17.9213 69.3809 15.742 68.5359 15.1193 69.6922C14.5856 70.6707 15.3417 73.0723 16.7204 72.9834Z" fill="#522D18"/>
<path d="M17.5203 64.8888C17.8761 64.8443 18.2763 64.533 18.4542 64.2217C18.4987 64.1772 18.4987 64.1327 18.4987 64.0438C18.6321 63.7769 18.6766 63.5101 18.5432 63.2432C18.2319 62.7095 16.9421 62.2203 16.5863 62.8874C16.275 63.5101 16.7197 64.9333 17.5203 64.8888Z" fill="#522D18"/>
</svg>
