<svg width="151" height="120" viewBox="0 0 151 120" fill="none" xmlns="http://www.w3.org/2000/svg">
<g clip-path="url(#clip0_231_1402)">
<path d="M150.698 59.7979C150.663 54.4032 150.083 48.991 149.046 43.6842C148.273 39.7129 146.727 36.0579 147.254 31.9461C147.43 30.6281 147.852 29.1345 148.326 27.553C150.189 21.1392 151.102 13.671 145.163 9.01443C141.315 6.0096 135.551 5.53516 131.422 8.1534C131.211 8.27641 131.07 8.39941 130.965 8.45213L130.842 8.53999C130.701 8.64542 130.561 8.75085 130.42 8.87386L130.367 8.92657C128.259 10.7189 127.152 9.9809 124.902 8.73328C122.179 7.22208 119.174 5.95689 115.712 4.86741C114.306 4.41054 112.795 3.98881 111.266 3.61979C109.913 3.28592 108.508 2.96963 106.979 2.65333C104.273 2.10859 101.496 1.66929 98.7199 1.35299C96.0841 1.05427 93.501 0.878544 91.0585 0.808256C88.7214 0.737967 86.3667 0.755539 84.0999 0.878544C80.2868 1.07184 76.4912 1.51114 72.8186 2.19645C69.7611 2.77633 67.1252 3.79552 64.1556 2.37217L64.0853 2.33703C60.4478 0.614962 56.3887 -0.281216 52.3647 0.0526546C50.3439 0.210804 48.3406 0.685251 46.4604 1.45842C45.0371 2.0383 43.7016 2.88177 42.1728 3.18049C40.7144 3.46165 39.3613 3.72523 37.9731 4.26996C35.021 5.42972 32.35 7.29237 30.2765 9.69975L30.2589 9.71732C29.5209 10.5784 28.8532 11.5272 28.2557 12.5464C27.2717 14.2509 26.6215 16.0609 26.1646 17.9762C26.1119 18.2047 26.0768 18.3979 26.0592 18.5385L26.0065 18.8372C25.7956 20.0497 25.7605 21.1216 25.7605 21.9124C25.7605 22.791 25.7956 23.5641 25.8483 24.2846V24.3197C26.0241 26.6041 25.7429 28.5195 25.0927 30.7511C23.7045 35.4605 23.3004 40.4334 21.7365 45.09C21.3499 46.2146 20.9281 47.1987 20.4537 48.0948C20.2253 48.5166 19.9617 48.9207 19.6805 49.2897C18.099 51.4335 16.1661 52.4703 13.4424 52.3297C12.5287 52.277 11.6149 51.8904 10.666 51.785C8.57495 51.5741 6.39601 51.9255 4.6388 53.1205C3.58447 53.8409 2.89916 54.7019 2.33685 55.4575C-0.492262 59.2531 -0.246252 65.9657 0.526921 70.4114C1.75697 77.5281 5.46469 82.9403 10.7187 87.6672C11.8785 88.7216 12.0718 89.6529 12.845 90.9181L12.9856 91.1289C14.321 93.1849 16.5878 94.4852 18.8195 95.3287C22.1582 96.5763 25.7956 96.4006 29.1519 97.49C33.0178 98.7552 32.473 100.758 32.1392 104.396C31.9107 106.961 32.7366 109.422 34.4235 111.144C35.6009 112.356 37.1999 112.795 38.6584 113.533C40.3981 114.412 40.7846 115.765 42.1553 117.03C45.4061 120.035 51.0995 120.193 55.2816 119.736C59.7625 119.227 64.0853 117.399 67.8281 114.922C69.6908 113.674 71.448 112.233 73.0119 110.616C74.3298 109.263 75.472 106.751 77.0535 105.802C78.5295 104.905 80.7612 105.398 82.2548 106.03C84.3283 106.926 84.3459 108.121 85.4881 109.861C86.2613 111.021 87.298 111.969 88.5281 112.602C89.3715 113.041 90.2853 113.34 91.2342 113.516C91.9898 113.656 92.8333 113.463 93.501 113.938C94.5202 114.658 95.0298 116.099 95.9435 116.978C97.033 118.014 98.4388 118.717 99.8797 119.104C101.865 119.648 103.956 119.631 105.995 119.438C122.038 117.962 135.34 105.116 142.861 91.5858C144.179 89.2312 145.339 86.7711 146.323 84.2758C149.433 76.4914 150.733 68.1622 150.698 59.7979Z" fill="white"/>
<path d="M144.495 54.8073C144.143 48.8504 142.913 42.9286 140.822 37.3406C137.975 29.7319 133.512 22.6152 127.256 17.4314C120.772 12.0719 112.654 8.97924 104.377 7.46804C94.4492 5.67568 83.6423 5.37696 73.7141 7.13417C72.2205 7.39775 70.7795 7.74919 69.3211 8.13578C67.1597 8.73323 64.9456 9.36583 62.7315 8.73323C61.4663 8.36422 60.2714 7.74919 59.0414 7.25718C55.9487 5.99198 52.4518 5.48239 49.2361 6.39614C45.177 7.53833 41.9788 10.8946 40.2743 14.7429C39.1146 17.3611 38.482 20.0321 36.1273 21.8772C32.8413 24.4427 31.2071 28.3789 30.1001 32.2799C29.7838 33.3693 29.5202 34.494 29.2742 35.5834C28.3429 39.871 27.64 44.2816 25.8125 48.3232C24.8987 50.344 23.7038 52.2418 22.1751 53.8584C21.5425 54.5262 20.8747 55.1588 20.1543 55.7211C19.6447 56.1252 19.0297 56.7403 18.4146 56.9687C17.5536 57.3026 16.3587 57.2674 15.4274 57.3026C14.4609 57.3377 13.4944 57.3377 12.528 57.2674C10.9289 57.162 9.18927 56.8106 7.85379 57.8825C5.30584 59.9208 5.44641 63.9273 5.81543 66.8442C6.28987 70.5168 7.44963 73.9961 9.41771 77.1239C11.2452 80.0585 13.7053 82.624 16.6047 84.5218C17.3603 85.0138 18.5904 85.4004 18.9242 86.3141C19.2054 87.0873 18.5728 87.9835 19.223 88.6864C19.5744 89.073 20.1543 89.2311 20.6111 89.3541C20.6814 89.3717 20.7517 89.3893 20.822 89.4068L21.3667 89.565C21.437 89.5826 21.5073 89.6001 21.5776 89.6177C21.7182 89.6528 21.8588 89.688 21.9818 89.7231C21.9818 89.7231 22.5441 89.8637 22.5617 89.8813C26.3924 90.8829 30.3988 91.1289 34.2823 91.8494C38.236 92.5874 42.4884 93.8174 45.5636 96.5235C47.6546 98.351 48.8847 101.04 48.3224 103.834C47.9006 105.889 46.0907 108.525 47.0748 110.652C47.8479 112.321 50.7122 112.655 52.3112 112.778C54.6308 112.971 57.003 112.602 59.1819 111.811C63.3114 110.318 67.3178 107.489 70.3227 104.326C71.8514 102.726 73.0463 100.723 74.8387 99.4054C77.1758 97.6833 78.7573 98.6146 81.3052 98.8255C81.4985 98.8431 81.6918 98.8606 81.8675 98.8782C85.3117 99.2121 88.791 99.2472 92.2527 99.0891C94.5722 98.9661 97.9812 98.1226 99.5451 100.425C100.441 101.742 100.424 103.342 100.23 104.87C100.037 106.329 99.4045 108.068 99.9141 109.492C100.266 110.493 101.179 111.196 102.163 111.618C106.31 113.393 111.6 111.46 115.395 109.615C127.959 103.535 137.378 90.2151 141.648 77.1591C143.985 69.9721 144.934 62.3458 144.495 54.8073Z" fill="url(#paint0_linear_231_1402)"/>
<path d="M135.568 73.1527C129.875 80.2694 121.932 87.1225 112.443 84.9787C107.488 83.8541 101.601 78.7055 97.0498 76.4387C91.8484 73.838 85.4698 73.4163 80.7077 76.0521C76.8594 78.1959 75.2604 79.6544 71.7284 82.6943C68.0558 85.8749 63.1532 87.6848 58.3736 86.8589C52.1355 85.7695 49.0252 80.6033 42.875 79.1096C39.2199 78.231 35.4771 79.6719 31.9275 80.9196C26.8843 82.7119 23.4226 82.5186 18.5903 80.6033C15.9017 79.5489 13.5295 77.862 11.3506 76.0169C9.36492 74.33 8.02944 71.7821 6.74668 69.5328C6.27223 68.7245 5.81535 67.8986 5.34091 67.0903C5.13004 70.6047 7.57257 74.2421 9.40007 77.1415C11.2451 80.0585 13.7052 82.6241 16.6046 84.5218C17.3602 85.0139 18.5903 85.4004 18.9242 86.3142C19.2053 87.0874 18.5727 87.9835 19.2229 88.6864C19.5743 89.073 20.1542 89.2312 20.6111 89.3542C20.6814 89.3717 20.7517 89.3893 20.8219 89.4069L21.3667 89.565C21.437 89.5826 21.5073 89.6002 21.5775 89.6178C21.7181 89.6529 21.8587 89.688 21.9817 89.7232C21.9817 89.7232 22.544 89.8638 22.5616 89.8813C26.3923 90.8829 30.3987 91.129 34.2822 91.8494C38.2359 92.5874 42.4884 93.8175 45.5635 96.5236C47.6546 98.3511 48.8846 101.04 48.3223 103.834C47.9006 105.89 46.0906 108.525 47.0747 110.652C47.8479 112.321 50.7121 112.655 52.3112 112.778C54.6307 112.971 57.0029 112.602 59.1819 111.811C63.3113 110.318 67.3178 107.489 70.3226 104.326C71.8514 102.727 73.0463 100.723 74.8386 99.4054C77.1757 97.6834 78.7572 98.6147 81.3052 98.8255C81.4985 98.8431 81.6918 98.8607 81.8675 98.8783C85.3116 99.2121 88.7909 99.2473 92.2526 99.0891C94.5721 98.9661 97.9811 98.1227 99.545 100.425C100.441 101.743 100.424 103.342 100.23 104.87C100.037 106.329 99.4044 108.068 99.914 109.492C100.265 110.493 101.179 111.196 102.163 111.618C106.31 113.393 111.6 111.46 115.395 109.615C127.959 103.535 137.378 90.2152 141.648 77.1591C143.352 71.9226 144.758 66.0711 144.723 60.571C144.705 57.4256 144.512 54.2978 144.161 51.17C143.862 48.4639 142.79 42.7178 142.79 42.7178C143.598 49.2546 143.001 55.563 141.437 61.3091C140.207 65.7724 138.573 69.3922 135.568 73.1527Z" fill="#997071"/>
<path d="M143.282 16.3771C143.159 15.9378 142.984 15.4985 142.773 15.0943C141.894 13.4426 140.207 12.2477 138.345 12.0192C136.482 11.7908 134.531 12.5464 133.372 14.0049C132.229 15.4458 131.931 17.4842 132.616 19.1887C133.231 20.6999 133.583 22.3341 134.373 23.775C135.217 25.3213 136.236 26.7622 137.238 28.2031C137.519 28.6073 137.8 29.0115 138.204 29.275C138.784 29.6616 139.539 29.6089 140.084 29.152C140.559 28.7479 140.822 28.168 141.068 27.6057C142.193 25.0402 143.353 22.4219 143.564 19.628C143.651 18.5209 143.581 17.4139 143.282 16.3771Z" fill="#FF8080"/>
<path d="M39.1677 18.6792C39.6246 16.799 40.2924 14.9539 41.2237 13.267C41.2588 13.2143 41.3467 13.0913 41.417 12.9858C41.8739 12.3357 42.8227 11.0002 41.7333 10.1567C40.4857 9.20782 38.1837 10.6136 37.0767 11.2638C35.5655 12.1599 34.23 13.3548 33.2108 14.7782C31.2603 17.4843 30.6277 20.6824 30.8034 23.9508C30.8034 24.0035 30.8034 24.0563 30.8034 24.1266C30.8034 24.4077 30.821 24.7591 30.9967 25.1633C31.3833 26.0595 32.297 26.2176 33.0351 25.585C33.4041 25.2687 33.6501 24.847 33.9488 24.4429C34.6517 23.4412 35.5655 22.5978 36.6022 21.9476C37.3051 21.5083 38.0958 21.1569 38.5527 20.4716C38.8866 19.9971 39.0096 19.3997 39.1326 18.8373C39.1326 18.8022 39.1502 18.7319 39.1677 18.6792Z" fill="#FF8080"/>
<path d="M44.6671 97.5602C43.9291 96.8925 43.0857 96.3302 42.2246 95.8382C41.8556 95.6273 41.4866 95.4164 41.0824 95.3462C40.362 95.2231 39.7645 95.6273 39.5361 96.3126C39.3604 96.8222 39.4658 97.3142 39.5537 97.6833L39.5712 97.736C39.8875 99.1769 39.8524 100.706 39.4658 102.129C39.4307 102.27 39.3779 102.41 39.3428 102.551C39.1671 103.131 38.9738 103.798 38.9913 104.519C39.0089 105.187 39.2022 106.048 39.7645 106.469C40.1335 106.733 40.6256 106.768 41.0824 106.786C41.838 106.786 42.5761 106.75 43.3317 106.663C44.1048 106.557 44.9132 106.399 45.5458 105.942C46.1608 105.485 46.5825 104.8 46.8109 104.062C47.1272 103.078 47.1624 101.988 46.8988 100.987C46.6001 99.8446 45.9323 98.8254 45.0889 97.982C44.9307 97.8062 44.7901 97.6833 44.6671 97.5602Z" fill="#DE5656"/>
<path d="M96.84 100.442C96.6467 100.442 96.4535 100.46 96.2777 100.477C95.2761 100.565 94.2921 100.671 93.2905 100.758C92.939 100.794 92.57 100.829 92.2713 101.022C91.1291 101.742 91.3048 103.763 91.1642 104.905C91.1291 105.239 91.094 105.591 91.2345 105.889C91.4981 106.452 92.2186 106.61 92.8512 106.663C94.5908 106.803 98.2282 106.961 98.9311 104.853C99.2474 103.904 99.2826 102.762 98.9487 101.813C98.7554 101.268 98.3688 100.776 97.8416 100.565C97.5078 100.46 97.1739 100.442 96.84 100.442Z" fill="#DE5656"/>
<path d="M105.731 13.8996C104.659 13.8469 103.605 13.6184 102.55 13.39C98.2627 12.5114 93.8872 12.0018 89.5293 11.6152C86.6651 11.3516 83.8184 11.1408 80.9366 11.1232C79.8295 11.1232 78.7049 11.1408 77.633 11.4043C76.8071 11.5976 76.0164 11.9491 75.1905 12.2126C74.7863 12.3532 74.3646 12.4587 73.9253 12.5289C73.6441 12.5817 73.2224 12.7222 72.9237 12.652C72.7304 11.5625 73.363 10.2797 74.1889 9.57683C75.1729 8.75094 76.4908 8.48736 77.756 8.29407C78.9158 8.10077 80.0931 7.94262 81.2704 7.81962C82.4126 7.69661 86.999 7.43303 88.1236 7.41546C90.4958 7.36274 92.868 7.45061 95.2227 7.67904C97.5598 7.88991 99.8793 8.24135 102.181 8.7158C103.534 8.99695 104.905 9.33082 106.117 10.0337C107.242 10.6663 108.402 11.8788 108.033 13.3197C107.98 13.4954 107.91 13.6711 107.769 13.759C107.646 13.8469 107.488 13.8644 107.33 13.882C106.803 13.882 106.258 13.9171 105.731 13.8996Z" fill="#997071"/>
<path d="M45.2299 12.195C48.1469 9.13745 54.0687 6.97608 55.8083 12.5289C56.4761 14.6902 55.8962 17.1328 54.6837 19.0306C53.4712 20.9283 51.6964 22.3517 49.8338 23.5642C48.3577 24.5306 46.829 25.3741 45.2475 26.1121C44.5973 26.4108 43.8944 26.7096 43.1915 26.5514C40.9423 26.077 41.4519 22.9316 41.4519 21.2271C41.4695 19.0657 42.3656 16.6407 43.3673 14.7605C43.8768 13.8292 44.5094 12.9682 45.2299 12.195Z" fill="#FF9999"/>
<path d="M46.056 55.1587C44.5448 57.4782 41.4873 57.9175 38.7988 57.1795C36.2684 56.4942 33.8259 55.1411 32.3322 52.9798C31.2428 51.3983 30.7332 49.4654 30.575 47.55C30.3817 45.1953 30.3993 42.1026 32.2092 40.363C33.0175 39.5898 34.353 39.5195 35.4249 39.5195C41.0656 39.5722 45.7749 44.9669 46.7414 50.2034C46.9522 51.3807 47.0225 52.6283 46.6711 53.7705C46.5305 54.2977 46.3196 54.7546 46.056 55.1587Z" fill="#997071"/>
<path d="M14.9362 70.1303C14.9889 70.3939 15.0768 70.675 15.3228 70.7805C15.5337 70.8859 15.8148 70.7629 15.973 70.5872C16.1311 70.4115 16.2014 70.1655 16.2717 69.937C16.465 69.2868 16.6583 68.6543 16.8516 68.0041C17.2206 66.774 17.5896 65.5264 17.6072 64.2261C17.6248 62.9433 17.2206 61.5903 16.2717 60.7292C15.235 59.7979 13.4777 59.5168 13.0384 61.151C12.7221 62.2931 13.4602 63.5759 13.7062 64.6654C14.1103 66.4929 14.5321 68.3028 14.9362 70.1303Z" fill="#997071"/>
<path d="M145.954 54.7372C145.76 51.3106 145.374 47.9016 144.724 44.5278C144.565 43.6843 144.372 42.8409 144.161 41.9974C144.056 41.5757 143.95 41.1539 143.81 40.7322C143.739 40.5213 143.687 40.3105 143.616 40.0996C142.72 37.3584 142.509 34.2481 142.878 31.3838C143.195 28.9062 144.179 26.6745 144.829 24.3023C144.847 24.2144 144.882 24.1266 144.899 24.0387L144.934 23.8981L144.952 23.7751C144.987 23.617 145.022 23.4764 145.057 23.2831C145.128 22.9316 145.198 22.5802 145.251 22.2288C145.356 21.5259 145.444 20.7878 145.462 20.0147C145.479 19.2591 145.444 18.4683 145.321 17.66C145.198 16.8517 144.97 16.0434 144.601 15.2526V15.2351C144.601 15.2351 144.565 15.1823 144.583 15.1999L144.565 15.1648L144.53 15.1121L144.46 14.989L144.442 14.9363L144.407 14.866L144.319 14.7079C144.267 14.6025 144.214 14.5146 144.144 14.4267C144.091 14.3389 144.038 14.251 143.968 14.1632C143.722 13.8117 143.458 13.4778 143.16 13.1615C142.58 12.529 141.877 11.9842 141.104 11.5801C140.91 11.4746 140.699 11.3868 140.489 11.2989L140.418 11.2638L140.348 11.2462L140.313 11.2286L140.19 11.1759C140.102 11.1408 140.032 11.1232 139.909 11.088L139.575 11.0002L139.259 10.9299C139.153 10.9123 139.048 10.8947 138.942 10.8772C138.837 10.8596 138.731 10.842 138.626 10.8245C137.765 10.719 136.904 10.7717 136.078 10.965C135.674 11.0529 135.27 11.1935 134.883 11.3516C134.69 11.4395 134.497 11.5098 134.321 11.5976L134.18 11.6679L134.11 11.7031H134.092L134.057 11.7206L134.022 11.7382L133.899 11.8085C133.864 11.8261 133.794 11.8788 133.741 11.8964C133.635 11.9666 133.548 12.0369 133.46 12.0897C133.372 12.1599 133.284 12.2302 133.196 12.3005C133.038 12.4411 132.88 12.5817 132.722 12.7398C132.423 13.0385 132.159 13.3724 131.931 13.7239C131.703 14.0753 131.509 14.4443 131.369 14.8485L131.316 15.0066L131.263 15.1472L131.228 15.2702L131.193 15.4108C131.14 15.6041 131.088 15.7798 131.052 15.9731C130.947 16.4827 131.052 17.2207 130.56 17.5194C129.84 17.9412 129.33 17.291 128.838 16.8693C128.206 16.3245 127.556 15.7974 126.888 15.2878C125.587 14.3037 124.199 13.4076 122.776 12.6168C120.035 11.1056 117.188 9.981 114.376 9.08482C112.971 8.64551 111.565 8.24136 110.194 7.90749C108.806 7.55604 107.453 7.25732 106.1 6.97616C103.394 6.43143 100.758 6.02727 98.2277 5.72854C95.6797 5.44739 93.2372 5.27167 90.9177 5.20138C88.5806 5.13109 86.3841 5.16624 84.293 5.27167C80.146 5.48253 76.5437 5.97455 73.6092 6.51929C72.2034 6.78287 70.8152 7.0816 69.427 7.43304C68.3024 7.71419 67.1602 8.17107 66.0004 8.08321C65.3678 8.03049 64.8055 7.74934 64.2784 7.43304C63.6282 7.02888 62.9429 6.67744 62.2576 6.34357C62.0467 6.23813 61.8183 6.1327 61.6074 6.04484C61.502 5.99213 61.379 5.95698 61.2735 5.90426L61.0978 5.83398L60.9748 5.79883L60.8869 5.76369C60.6585 5.67583 60.4652 5.58797 60.2192 5.50011C59.9732 5.41224 59.7272 5.32438 59.4812 5.23652C58.5147 4.92023 57.478 4.63907 56.3709 4.46335C55.2814 4.28763 54.1393 4.1822 52.9619 4.25249C52.8213 4.25249 52.6632 4.27006 52.5226 4.27006C52.382 4.28763 52.2239 4.3052 52.0833 4.32277C51.7846 4.34035 51.4859 4.41063 51.1871 4.44578C51.0466 4.46335 50.8884 4.49849 50.7478 4.53364L50.5194 4.58636L50.414 4.60393L50.3613 4.6215L50.2558 4.65664C50.1152 4.69179 49.9922 4.72693 49.8517 4.76208L49.6584 4.81479C49.5881 4.83237 49.5178 4.84994 49.4475 4.88508C49.1488 4.99051 48.85 5.09595 48.5513 5.21895C48.2702 5.34196 47.989 5.46496 47.7079 5.58797C47.4443 5.72854 47.1631 5.86912 46.8995 6.02727C46.636 6.18542 46.3724 6.36114 46.1088 6.51929C45.7749 6.73015 45.4586 7.09917 45.1248 7.25732C44.7557 7.43304 44.1759 7.27489 43.8069 7.32761C43.8069 7.32761 43.6838 7.34518 43.473 7.36275C43.2621 7.38032 42.9458 7.43304 42.5417 7.50333C42.3484 7.53847 42.1199 7.59119 41.8915 7.6439C41.6631 7.69662 41.3995 7.76691 41.1359 7.8372C40.5912 7.97777 40.0113 8.18864 39.3787 8.43465C38.7461 8.68066 38.0783 9.01453 37.4106 9.40112C37.0767 9.59441 36.7429 9.80527 36.409 10.0337C36.0751 10.2621 35.7412 10.5082 35.4074 10.7893L35.2844 10.8947L35.1789 11.0002L34.9505 11.1935L34.8275 11.2989L34.7045 11.4043L34.4761 11.6328C34.1598 11.9315 33.861 12.2478 33.5799 12.5817C33 13.2494 32.4904 13.9699 32.0511 14.743C31.6118 15.5162 31.2428 16.307 30.9616 17.1328C30.8913 17.3437 30.8211 17.537 30.7683 17.7479C30.6981 17.9587 30.6453 18.152 30.5926 18.3629C30.5399 18.5562 30.4872 18.7846 30.452 18.9955C30.4345 19.1009 30.4169 19.2064 30.3993 19.2942C30.3818 19.3821 30.3642 19.4875 30.3466 19.5754C30.206 20.4188 30.1709 21.192 30.1533 21.93C30.1533 22.6681 30.1885 23.3534 30.2236 23.986C30.3115 25.2512 30.452 26.2879 30.5575 27.0084C30.6453 27.6058 30.6981 27.9924 30.7156 28.0978C30.1885 29.2752 29.6964 30.5931 29.2923 31.9813C28.976 33.0532 28.6948 34.1778 28.4312 35.3376C28.3082 35.9174 28.1852 36.4973 28.0622 37.1123C27.9392 37.7098 27.8338 38.3073 27.7108 38.9223C27.2188 41.3648 26.7443 43.9303 25.8833 46.4607C25.1101 48.7627 23.8098 50.8362 22.6676 52.98C21.9471 54.333 20.6644 55.0183 19.2059 55.4401C17.9934 55.7915 16.7809 56.0902 15.5333 56.3187C14.4438 56.512 13.0732 56.881 12.0189 56.5295C11.6323 56.389 11.2457 56.2835 10.8416 56.2132C9.75209 56.0024 8.10031 56.0902 7.15142 56.7404C6.64183 57.0918 6.25524 57.5839 5.88623 58.0759C5.39421 58.7261 5.28877 59.5344 5.06034 60.3075C4.93733 60.6941 4.84947 61.0631 4.77918 61.4497L4.72647 61.7309L4.69132 62.012L4.62103 62.5392C4.58589 62.9082 4.53317 63.2948 4.5156 63.6462C4.49803 64.0153 4.46288 64.3843 4.46288 64.7357C4.46288 64.9114 4.46288 65.1047 4.44531 65.2805C4.44531 65.4562 4.44531 65.6495 4.44531 65.8252C4.44531 66.1942 4.46288 66.5456 4.48046 66.8971C4.65618 69.7613 5.35906 72.485 6.39582 74.91C6.90541 76.1224 7.50286 77.2646 8.1706 78.319C8.82077 79.3733 9.54123 80.3398 10.2793 81.2184C11.7729 82.9756 13.3895 84.3638 14.9534 85.4357C15.1467 85.5587 15.34 85.6817 15.5333 85.8047C16.1132 86.1737 16.0956 86.5954 16.1483 87.2105C16.1659 87.5267 16.2538 87.8958 16.4295 88.2648V88.2824L16.4646 88.3526L16.4822 88.3702L16.4998 88.4054L16.5525 88.4932C16.5701 88.5284 16.5876 88.5459 16.6052 88.5811C16.6404 88.6338 16.6579 88.6689 16.6931 88.7217C16.8161 88.9149 16.9391 89.0555 17.0621 89.2137C17.3257 89.5124 17.6244 89.7936 17.9583 90.022C18.626 90.514 19.3992 90.8655 20.2075 91.1642C20.3129 91.1993 20.4008 91.2345 20.5062 91.2696C20.6117 91.3048 20.7171 91.3399 20.8225 91.375C21.0158 91.4453 21.2091 91.498 21.42 91.5683C21.6308 91.6386 21.8593 91.6913 22.0877 91.7616C22.2986 91.8144 22.527 91.8846 22.7555 91.9374C23.6692 92.1658 24.6357 92.3767 25.6373 92.5875C26.6565 92.7808 27.7108 92.9565 28.8178 93.1323C29.6613 93.2728 30.4872 93.3958 31.3306 93.5189C32.1741 93.6419 33.0879 93.7121 33.8786 93.9757C35.0208 94.3447 36.1103 94.907 36.7253 95.9789C36.9889 96.4358 37.0592 97.0157 37.1822 97.5429C37.3403 98.2282 37.4457 98.9311 37.5512 99.6339C37.6742 100.495 37.393 101.514 37.1119 102.516C37.0767 102.656 37.024 102.797 36.9889 102.938C36.8307 103.482 36.6374 104.115 36.5671 104.818C36.4441 106.1 36.8307 107.313 37.6215 108.104C38.7812 109.281 40.4506 109.316 41.2589 109.334C41.2589 109.334 41.3116 109.334 41.3819 109.334C41.7333 109.334 42.7877 109.316 43.965 109.158C43.8596 109.861 43.8244 110.617 43.965 111.39L43.9826 111.478L44.0001 111.53C44.0001 111.565 44.0001 111.53 44.0177 111.601L44.0529 111.741L44.1056 111.952L44.1759 112.145C44.2637 112.409 44.3867 112.708 44.5625 112.989C44.7382 113.27 44.9666 113.569 45.2302 113.815C45.4938 114.061 45.7925 114.254 46.0561 114.395C46.6008 114.676 47.0577 114.799 47.4443 114.904L48.0242 115.062L48.5513 115.203L48.6216 115.22L48.7095 115.238L48.8676 115.273L49.1839 115.343C49.3948 115.396 49.5881 115.414 49.7989 115.449C50.0098 115.484 50.2031 115.502 50.414 115.537C50.6248 115.554 50.8181 115.589 51.029 115.589C51.8373 115.66 52.6456 115.66 53.4539 115.607C55.053 115.519 56.5994 115.203 58.0754 114.764C58.2511 114.711 58.4444 114.658 58.6201 114.588C58.8134 114.518 59.0067 114.465 59.1825 114.395C59.5163 114.272 59.8326 114.149 60.2016 113.99C60.5707 113.85 60.9045 113.692 61.2384 113.533C61.5723 113.375 61.9061 113.217 62.24 113.041C64.8582 111.671 67.0899 109.966 69.058 108.244C69.181 108.139 69.304 108.016 69.4446 107.91C69.5676 107.805 69.673 107.7 69.796 107.594C69.9014 107.489 70.0245 107.366 70.1475 107.243C70.2705 107.12 70.3935 107.014 70.4989 106.891C70.9558 106.434 71.3951 105.96 71.7992 105.468C72.6076 104.501 73.328 103.535 73.9606 102.551C74.5932 101.567 74.9974 100.969 76.2801 100.811C77.1939 100.706 77.8792 100.969 78.7402 101.092C79.8121 101.251 80.884 101.374 81.9559 101.461C83.1684 101.567 84.3633 101.655 85.5758 101.707C86.1908 101.725 86.8058 101.743 87.4208 101.76C87.825 101.76 88.5806 101.637 88.8793 101.989C89.1605 102.305 88.9496 102.938 88.8618 103.307C88.7915 103.605 88.7388 103.904 88.686 104.238C88.5103 105.503 88.7036 106.575 89.2659 107.436C90.0742 108.666 91.5151 109.299 93.5359 109.316C93.6414 109.316 93.7292 109.316 93.8171 109.316C94.4848 109.316 95.1526 109.299 95.8027 109.228C96.1366 109.193 96.4529 109.14 96.7868 109.088C97.1382 109.017 97.3842 108.982 97.4194 109.404C97.4545 109.949 97.437 110.476 97.5248 111.021C97.5951 111.39 97.7005 111.776 97.8763 112.18C98.052 112.567 98.298 112.971 98.5967 113.305C98.6319 113.34 98.667 113.393 98.7197 113.428L98.7724 113.498L98.8603 113.569L98.9306 113.639C98.9482 113.656 98.9482 113.657 98.9833 113.674L99.0536 113.744C99.282 113.92 99.4402 114.043 99.6159 114.149C99.9849 114.377 100.336 114.535 100.705 114.658C101.426 114.922 102.129 115.045 102.814 115.115C103.499 115.185 104.185 115.203 104.852 115.185C106.188 115.133 107.506 114.939 108.824 114.658C111.459 114.078 114.078 113.164 116.643 111.934C117.926 111.319 119.209 110.617 120.456 109.808C121.089 109.404 121.704 108.982 122.319 108.525C122.618 108.297 122.934 108.069 123.233 107.823C123.532 107.577 123.83 107.331 124.111 107.102C126.361 105.187 128.592 103.113 130.736 100.846C131.808 99.7042 132.845 98.5269 133.864 97.2793C134.883 96.0492 135.832 94.7489 136.763 93.3958C137.238 92.7281 137.677 92.0428 138.116 91.3399C138.538 90.637 138.977 89.9341 139.382 89.2137C140.19 87.7728 140.963 86.2791 141.631 84.7504C142.299 83.204 142.931 81.6401 143.458 80.0235C143.985 78.4068 144.46 76.7726 144.829 75.1033C144.934 74.6815 145.005 74.2598 145.093 73.8556C145.18 73.4339 145.268 73.0122 145.339 72.5905C145.409 72.1687 145.479 71.747 145.549 71.3253C145.602 70.9035 145.672 70.4818 145.725 70.0425C145.76 69.8316 145.778 69.6208 145.813 69.4099L145.883 68.7773C145.918 68.3556 145.971 67.9163 146.006 67.4945C146.059 66.6335 146.147 65.7725 146.164 64.9114C146.182 64.4721 146.2 64.068 146.217 63.6111L146.235 62.3459L146.252 61.7133V61.0631V59.7804C146.094 58.1462 146.059 56.4417 145.954 54.7372ZM133.231 16.43C133.249 16.2894 133.284 16.1488 133.319 16.0082L133.354 15.9028L133.389 15.7798L133.425 15.6744L133.46 15.5865C133.548 15.3405 133.653 15.0945 133.794 14.866C133.934 14.6376 134.11 14.4092 134.303 14.2159C134.391 14.1104 134.497 14.0226 134.602 13.9347C134.655 13.8996 134.707 13.8469 134.76 13.8117C134.813 13.7766 134.866 13.7239 134.918 13.7063C134.936 13.6887 134.953 13.6711 134.989 13.6536L135.112 13.5833L135.129 13.5657L135.182 13.5481L135.287 13.4954C135.428 13.4251 135.568 13.3548 135.709 13.3021C135.99 13.1791 136.289 13.0913 136.57 13.021C136.869 12.9507 137.167 12.898 137.466 12.898C137.765 12.8804 138.064 12.898 138.38 12.9331C138.45 12.9331 138.538 12.9507 138.608 12.9683C138.679 12.9858 138.767 12.9858 138.837 13.021L139.065 13.0737L139.259 13.144C139.311 13.1615 139.417 13.1967 139.505 13.2318L139.628 13.2846L139.663 13.3021C139.68 13.3021 139.628 13.2846 139.645 13.3021H139.663L139.715 13.3197C139.856 13.3724 139.979 13.4427 140.102 13.513C140.612 13.8117 141.086 14.2159 141.473 14.6903C141.666 14.9363 141.842 15.1823 141.982 15.4459C142.017 15.5162 142.053 15.5865 142.088 15.6392C142.123 15.7095 142.158 15.7798 142.176 15.8325L142.211 15.9204L142.228 15.9731L142.246 16.0258L142.299 16.1488L142.316 16.2191L142.334 16.2542C142.351 16.2894 142.316 16.2367 142.334 16.2367V16.2542C142.738 17.3613 142.773 18.6265 142.65 19.8565C142.58 20.4715 142.474 21.0866 142.334 21.7016C142.263 22.0003 142.193 22.2991 142.123 22.5802C142.088 22.7208 142.035 22.8789 142 23.0371L141.965 23.1601L141.93 23.2479L141.877 23.4412C141.701 23.9508 141.49 24.4604 141.262 24.97C141.016 25.4972 140.77 26.0068 140.541 26.5164C140.418 26.7799 140.295 27.0435 140.19 27.3071C139.961 27.8343 139.715 28.2736 139.065 28.3087C137.941 28.3614 137.308 26.6921 136.781 25.9189C136.377 25.3215 135.902 24.7416 135.516 24.1266C135.322 23.8103 135.358 23.3182 135.656 23.0898C136.043 22.8086 136.623 22.9492 137.062 22.8614C137.22 22.8262 137.361 22.8086 137.519 22.7735C137.677 22.7208 137.818 22.6856 137.958 22.6329C138.099 22.5802 138.239 22.5099 138.38 22.4396C138.521 22.3693 138.644 22.2815 138.767 22.2112C139.276 21.8773 139.663 21.4556 139.926 21.0163C140.207 20.577 140.348 20.1553 140.453 19.7687C140.489 19.5754 140.524 19.3997 140.541 19.2239C140.559 19.0482 140.559 18.9076 140.559 18.7671C140.559 18.6265 140.541 18.5035 140.541 18.398C140.524 18.2926 140.506 18.2047 140.506 18.1345C140.489 17.9939 140.471 17.9236 140.471 17.9236C140.471 17.8884 140.453 17.8533 140.453 17.8182C140.243 16.9747 139.382 16.4475 138.538 16.6584C137.695 16.8693 137.167 17.7303 137.378 18.5738L137.414 18.7319C137.414 18.7319 137.414 18.7495 137.431 18.7846C137.431 18.8022 137.449 18.8198 137.449 18.8373C137.449 18.8549 137.466 18.8901 137.466 18.9252C137.484 18.9603 137.466 18.9955 137.484 19.0482C137.484 19.1009 137.484 19.1361 137.484 19.1888C137.466 19.2942 137.449 19.4172 137.396 19.5402C137.343 19.6632 137.255 19.7862 137.132 19.9092C137.009 20.0322 136.816 20.1377 136.535 20.208C136.465 20.2431 136.412 20.2255 136.359 20.2431C136.324 20.2431 136.306 20.2607 136.271 20.2607C136.271 20.2607 136.254 20.2607 136.236 20.2607H136.183H136.096C136.043 20.2607 135.973 20.2607 135.92 20.2607H135.832H135.814C135.727 20.2607 135.621 20.2607 135.533 20.2431C135.34 20.2255 135.147 20.1904 134.953 20.1553C134.778 20.1025 134.602 20.0498 134.426 19.9795C134.11 19.8214 133.846 19.6105 133.618 19.2766C133.548 19.1888 133.53 19.1185 133.477 19.0482L133.389 18.8373L133.372 18.7846V18.7671L133.337 18.6968C133.249 18.4859 133.196 18.2575 133.161 18.0115C133.091 17.5019 133.108 16.9923 133.231 16.43ZM31.6469 21.9828C31.6821 21.315 31.7348 20.577 31.893 19.8917C31.9105 19.8038 31.9281 19.6984 31.9632 19.6105L31.9984 19.4699L32.0335 19.3469C32.0863 19.1712 32.1214 19.0131 32.1741 18.8198C32.2795 18.4683 32.4025 18.0993 32.5607 17.7479C32.8594 17.045 33.2109 16.3597 33.6326 15.7095C34.0543 15.0593 34.5288 14.4619 35.0559 13.9171C35.3195 13.6536 35.5831 13.39 35.8643 13.144L36.0751 12.9683L36.163 12.898L36.1806 12.8804L36.2157 12.8628L36.2684 12.8101C36.3387 12.7574 36.4266 12.6871 36.4968 12.6344L36.6199 12.5465L36.7253 12.4762C37.0064 12.2829 37.3052 12.0897 37.5863 11.9315C37.885 11.7558 38.1838 11.6152 38.4825 11.4746C39.0624 11.1935 39.6423 11.0002 40.187 10.842C40.4857 10.7542 40.8899 10.6312 41.1886 10.842C41.7333 11.2462 40.679 12.4059 40.433 12.8277C40.0288 13.5657 39.6598 14.3389 39.3435 15.1296C38.9218 16.2015 38.5704 17.3261 38.2892 18.4508C38.1838 18.8901 38.1311 19.3997 37.9202 19.8038C37.6918 20.2255 37.3403 20.3837 36.9537 20.6121C36.3387 20.9811 35.4425 21.561 34.4585 22.4748C33.9665 22.9316 33.4569 23.494 32.9649 24.1441C32.8594 24.3023 32.7364 24.4429 32.6134 24.6186C32.4025 24.9349 32.0335 25.3917 31.7524 24.7767C31.6118 24.478 31.6469 24.1968 31.6294 23.8805C31.6294 23.3182 31.6294 22.6681 31.6469 21.9828ZM46.1615 102.586C46.0561 104.168 45.3883 105.415 43.7541 105.679C42.9282 105.802 42.1024 105.872 41.2589 105.854C41.0305 105.854 40.6263 105.907 40.4154 105.819C39.9761 105.644 39.8531 104.888 39.8356 104.466C39.818 103.728 40.0816 103.025 40.2749 102.34C40.6966 100.776 40.7493 99.1068 40.3979 97.5253C40.3276 97.209 40.2397 96.8927 40.3451 96.5764C40.5736 95.9087 41.1535 96.2601 41.5576 96.471C41.9091 96.6643 42.2429 96.8576 42.5768 97.086L42.9634 97.3496L43.0161 97.3847L43.0513 97.4199L43.1567 97.4901L43.35 97.6307C43.596 97.8064 43.842 98.0173 44.0529 98.2106C44.5097 98.6148 44.8963 99.0541 45.2126 99.5109C45.8979 100.495 46.2318 101.514 46.1615 102.586ZM98.0871 104.589C97.806 105.433 96.6638 105.556 95.9433 105.696C95.1174 105.854 94.274 105.854 93.4305 105.854C92.464 105.854 92.1302 105.644 92.0599 105.556C92.0247 105.503 91.9545 105.257 92.0247 104.8C92.0599 104.589 92.1126 104.343 92.1653 104.097C92.2532 103.658 92.3586 103.184 92.3938 102.656C92.4113 102.393 92.464 102.059 92.6749 101.848C92.9209 101.602 93.3251 101.655 93.6414 101.62C94.2213 101.567 94.8011 101.532 95.381 101.479C96.1366 101.409 97.3667 100.987 97.9114 101.76C98.421 102.481 98.3507 103.781 98.0871 104.589ZM143.23 64.8411C142.527 79.6017 134.69 93.0795 123.778 102.727C118.383 107.506 109.298 113.656 101.654 110.792C101.233 110.634 100.793 110.423 100.512 110.054C100.213 109.668 100.125 109.158 100.161 108.684C100.213 107.928 100.389 106.962 100.723 106.276C100.987 105.714 101.531 105.239 101.742 104.695C102.252 103.377 101.865 101.251 101.584 99.9151C100.846 96.3831 98.8603 93.2201 96.6989 90.391C96.4529 90.0747 96.2069 89.7936 95.996 89.5475C95.8906 89.4245 95.8027 89.3191 95.7149 89.2137C95.627 89.1258 95.5567 89.038 95.4865 88.9677C95.2053 88.6689 95.0647 88.5108 95.0647 88.5108C94.8363 88.2648 94.4497 88.2121 94.151 88.4054C93.8347 88.6162 93.7468 89.0555 93.9577 89.3894C93.9577 89.3894 94.0807 89.5651 94.3091 89.899C94.3618 89.9869 94.4321 90.0747 94.5024 90.1801C94.5727 90.2856 94.643 90.391 94.7133 90.514C94.7836 90.637 94.8714 90.76 94.9593 90.9182C95.0471 91.0588 95.135 91.2169 95.2404 91.375C95.4513 91.6913 95.6446 92.0779 95.873 92.4821C95.9785 92.693 96.0839 92.9038 96.2069 93.1323C96.3123 93.3607 96.4178 93.6067 96.5408 93.8351C96.6462 94.0812 96.7516 94.3447 96.8571 94.6083C97.1382 95.3639 97.4721 96.3128 96.9098 97.0508C96.0136 98.2282 93.7644 98.0876 92.4465 98.1579C90.6893 98.2633 88.932 98.2985 87.1573 98.2809C85.4176 98.2457 83.678 98.1579 81.9383 97.9822C80.515 97.8416 78.7754 97.824 77.5629 96.963C76.6667 96.3304 77.106 95.6802 77.3872 94.8016C77.6332 94.0109 77.844 93.2201 78.0373 92.4118C78.3536 91.129 78.5294 90.1099 78.6524 89.4245C78.7051 89.0731 78.7578 88.8095 78.7754 88.6338C78.8105 88.4581 78.8105 88.3702 78.8105 88.3702C78.8632 88.0188 78.6524 87.6673 78.2833 87.5795C77.9143 87.4916 77.5277 87.7025 77.4223 88.0891V88.1066C77.4223 88.1066 77.4047 88.1945 77.352 88.3702C77.3169 88.5459 77.2466 88.7919 77.1587 89.1258C76.983 89.7936 76.7019 90.7424 76.3153 91.9549C75.9111 93.1498 75.3839 94.6083 74.6459 96.1898C73.9079 97.7713 72.959 99.4934 71.7114 101.198C71.0788 102.059 70.3935 102.902 69.6203 103.728C69.2337 104.132 68.812 104.537 68.3902 104.941C68.2848 105.046 68.1794 105.134 68.0739 105.222C67.9685 105.31 67.8631 105.415 67.7401 105.503C67.6171 105.608 67.4941 105.696 67.3711 105.802C67.2656 105.89 67.1426 105.995 67.0196 106.083C66.0707 106.856 65.0515 107.594 63.9796 108.297C62.9077 108.982 61.7831 109.632 60.6234 110.195C60.3422 110.335 60.0435 110.458 59.7448 110.599C56.4061 112.093 52.9268 112.286 49.4124 111.337C48.7798 111.161 48.0769 110.898 47.7957 110.3C47.5673 109.808 47.7079 109.246 47.7606 108.736C47.8133 108.332 47.743 107.928 47.9012 107.559C48.2877 106.399 49.0258 105.292 49.3421 104.132C49.6935 102.814 49.1663 101.198 48.9555 99.88C48.8676 99.2649 48.7622 98.6499 48.5338 98.0876C48.112 97.0157 47.251 96.1722 46.2845 95.5396C38.5704 90.5843 29.6437 91.0588 21.1037 88.6865C20.4711 88.5108 19.7682 88.2472 19.5398 87.6498C20.4184 87.5619 24.0206 87.9661 24.2491 86.8414C24.3369 86.4549 24.0909 86.0683 23.7043 85.998C23.7043 85.998 23.3529 85.9277 22.6852 85.8047C22.035 85.6817 21.0685 85.506 19.9263 85.1897C19.364 85.0315 18.7666 84.8206 18.1691 84.5395C18.0988 84.5043 18.0461 84.4692 17.9758 84.4341L17.8704 84.3813C17.8353 84.3638 17.7825 84.3286 17.7474 84.3111L17.6244 84.2408L17.5541 84.2056L17.519 84.188L17.5014 84.1705C17.4663 84.1529 17.5365 84.188 17.519 84.188C17.4311 84.1353 17.3608 84.0826 17.273 84.0299C17.1148 83.9245 16.9391 83.819 16.7809 83.7136C16.6228 83.6082 16.4471 83.4852 16.2713 83.3622C10.455 79.2503 6.79998 72.116 6.3431 64.9993C6.20252 62.8555 6.32553 58.5328 8.99649 57.8826C9.73452 57.7069 10.5604 58.3043 11.1754 58.603C11.7729 58.8842 12.5812 58.6558 13.2314 58.5855C14.0573 58.4976 14.8832 58.3746 15.709 58.234C16.8512 58.0407 17.9934 57.7772 19.118 57.4784C20.3129 57.1621 21.3848 57.1797 22.3337 56.2132C24.1261 54.3857 25.2683 51.6796 26.305 49.3777C27.4296 46.9 28.1501 44.2642 28.7827 41.6108C30.0655 36.2513 30.8913 30.2768 33.9313 25.5499C34.0368 25.3917 34.1598 25.2336 34.2652 25.0754C34.6693 24.478 35.1087 23.986 35.5128 23.5467C35.8643 23.1777 36.2508 22.8438 36.6374 22.5275C36.9362 22.2991 37.393 22.053 37.5336 22.6153C37.639 23.0019 37.4457 23.5994 37.4106 24.0035C37.3579 24.601 37.3052 25.1809 37.2876 25.7608C37.2173 26.9381 37.1822 28.0803 37.1822 29.2225C37.1822 29.5036 37.1646 29.8726 37.3052 30.3471C37.3403 30.4701 37.393 30.5931 37.4633 30.7161L37.516 30.804C37.4985 30.7864 37.5687 30.8742 37.5687 30.8742L37.5863 30.8918C37.5863 30.9094 37.6566 30.9972 37.7093 31.05C37.885 31.2608 38.0959 31.419 38.2716 31.5244C38.4649 31.6474 38.6406 31.7177 38.7988 31.788C38.7988 31.788 38.7988 31.788 38.8164 31.788C43.5784 33.8264 49.3245 34.3887 54.3677 33.1586C55.8789 32.7896 57.1089 32.28 58.0754 31.788C59.0419 31.296 59.7448 30.8391 60.2192 30.5052C60.4476 30.3471 60.6234 30.2065 60.7464 30.1011C60.8694 30.0132 60.9221 29.9605 60.9221 29.9605C61.0802 29.8199 61.1681 29.6091 61.1681 29.3806C61.1505 28.9589 60.7991 28.6426 60.3949 28.6602C60.3949 28.6602 60.3071 28.6602 60.1665 28.6777C60.0259 28.6953 59.7975 28.7129 59.5163 28.7656C56.9157 29.1697 54.4204 30.0484 51.8022 30.3998C48.1472 30.8918 44.2989 30.9621 40.7142 30.0484C40.2221 29.9254 39.5544 29.8375 39.2908 29.3455C39.08 28.9589 39.1327 28.4669 39.1151 28.0451C39.0624 27.2895 39.0272 26.5339 39.0097 25.7608C39.0097 25.1985 39.0097 24.6361 39.0272 24.0563C39.0448 23.494 39.08 22.9141 39.1327 22.3518C39.3435 20.0674 39.8531 17.783 40.7317 15.6568C42.4362 11.5625 45.7925 8.04806 50.2382 7.06402C53.4012 6.36114 56.7399 7.01131 59.6745 8.38193C62.978 9.92828 65.5084 12.3181 68.1267 14.7606C68.2672 14.9012 68.3902 15.0066 68.4957 15.1296C68.6011 15.2351 68.7065 15.3405 68.812 15.4284C69.0053 15.6392 69.1634 15.7974 69.2864 15.9028C69.3919 16.0082 69.4621 16.0609 69.4621 16.0609C69.6027 16.184 69.796 16.2542 70.0069 16.2367C70.4286 16.2015 70.7449 15.8325 70.7098 15.4108C70.7098 15.4108 70.7098 15.3229 70.6746 15.1823C70.6571 15.0242 70.6219 14.8133 70.5516 14.5146C70.4989 14.3565 70.4638 14.1983 70.3935 14.005C70.3583 13.9171 70.3232 13.8117 70.288 13.7063C70.2529 13.6009 70.2002 13.513 70.165 13.4076C70.0772 13.2143 69.9893 12.9858 69.8663 12.7574C69.7433 12.529 69.6027 12.3005 69.4621 12.0545C69.0228 11.3165 68.1794 10.6663 68.0915 9.75256C68.0212 8.9091 69.5149 8.85638 70.0947 8.7158C71.3599 8.41708 72.6251 8.17107 73.9079 7.94263C84.3809 6.09756 95.6095 6.48414 106.03 8.7158C111.987 9.981 117.803 12.0897 123.004 15.2702C128.294 18.5035 132.318 22.9316 135.568 28.1857C137.044 30.5579 138.31 33.0532 139.382 35.6363C139.997 37.1299 140.576 38.6763 141.051 40.2226L141.244 40.8201C141.297 40.9958 141.35 41.2066 141.402 41.3999C141.525 41.7865 141.613 42.1731 141.719 42.5773C141.912 43.368 142.088 44.1588 142.228 44.9671C142.826 48.2004 143.16 51.5039 143.318 54.825C143.423 58.1989 143.423 61.5376 143.23 64.8411Z" fill="url(#paint1_linear_231_1402)"/>
<path d="M10.7533 65.0519C9.98016 65.1222 9.85716 66.3171 9.99773 67.6174C10.1207 68.9353 10.7358 69.814 11.5089 69.9194C12.3524 70.0248 13.0553 69.3219 12.9323 68.004C12.8093 66.6861 11.5441 64.9816 10.7533 65.0519Z" fill="url(#paint2_linear_231_1402)"/>
<path d="M38.5881 47.1107C36.9012 46.5132 34.9858 47.6378 34.3005 49.5884C33.6152 51.5389 34.4235 53.6124 36.1104 54.1922C37.7973 54.7897 39.7127 53.6651 40.398 51.7146C41.0833 49.7641 40.275 47.7081 38.5881 47.1107Z" fill="url(#paint3_linear_231_1402)"/>
<path d="M105.063 10.508C104.588 10.4025 104.114 10.3147 103.639 10.2092C99.1935 9.33063 94.6072 8.64532 90.0912 8.62775C85.3819 8.61017 80.6725 9.01433 76.0159 9.78751C74.8562 9.9808 73.5734 11.1933 73.1165 12.2652C72.8705 12.8275 72.9759 13.6007 73.5031 13.917C74.1708 14.3211 75.1022 14.0224 75.8051 13.917C76.7188 13.7764 77.6501 13.6358 78.5639 13.5304C83.2381 12.9505 87.965 12.7748 92.6567 12.9681C95.0114 13.0735 97.3485 13.2668 99.6856 13.5479C102.023 13.8291 104.325 14.3914 106.662 14.6901C107.4 14.778 107.927 14.3738 107.997 13.5831C108.173 12.0895 106.398 10.7891 105.063 10.508Z" fill="url(#paint4_linear_231_1402)"/>
<path d="M36.5154 50.3088C36.9327 50.3088 37.271 49.9705 37.271 49.5532C37.271 49.1359 36.9327 48.7976 36.5154 48.7976C36.0981 48.7976 35.7598 49.1359 35.7598 49.5532C35.7598 49.9705 36.0981 50.3088 36.5154 50.3088Z" fill="white"/>
</g>
<defs>
<linearGradient id="paint0_linear_231_1402" x1="75.0922" y1="112.85" x2="75.0922" y2="5.93299" gradientUnits="userSpaceOnUse">
<stop stop-color="#FF9696"/>
<stop offset="0.5066" stop-color="#FFA4A4"/>
<stop offset="1" stop-color="#FFADAD"/>
</linearGradient>
<linearGradient id="paint1_linear_231_1402" x1="75.2511" y1="115.705" x2="75.2511" y2="4.24916" gradientUnits="userSpaceOnUse">
<stop stop-color="#300A1C"/>
<stop offset="0.4058" stop-color="#400B20"/>
<stop offset="1" stop-color="#5E0D27"/>
</linearGradient>
<linearGradient id="paint2_linear_231_1402" x1="11.4546" y1="112.994" x2="11.4546" y2="6.71816" gradientUnits="userSpaceOnUse">
<stop stop-color="#300A1C"/>
<stop offset="0.4058" stop-color="#400B20"/>
<stop offset="1" stop-color="#5E0D27"/>
</linearGradient>
<linearGradient id="paint3_linear_231_1402" x1="37.345" y1="114.708" x2="37.345" y2="5.27273" gradientUnits="userSpaceOnUse">
<stop stop-color="#300A1C"/>
<stop offset="0.4058" stop-color="#400B20"/>
<stop offset="1" stop-color="#5E0D27"/>
</linearGradient>
<linearGradient id="paint4_linear_231_1402" x1="90.5238" y1="114.7" x2="90.5238" y2="2.73805" gradientUnits="userSpaceOnUse">
<stop stop-color="#300A1C"/>
<stop offset="0.4058" stop-color="#400B20"/>
<stop offset="1" stop-color="#5E0D27"/>
</linearGradient>
<clipPath id="clip0_231_1402">
<rect width="150.698" height="120" fill="white"/>
</clipPath>
</defs>
</svg>
