<svg width="380" height="451" viewBox="0 0 380 451" fill="none" xmlns="http://www.w3.org/2000/svg">
<path d="M240.228 269.387C246.905 267.002 256.034 262.369 261.689 259.44C277.632 250.992 283.423 244.315 294.596 234.981C304.475 226.805 312.378 214.065 317.011 203.096C329.138 174.413 332.885 162.15 331.455 129.788C331.046 119.705 330.909 109.417 329.479 99.4019C326.413 77.6003 307.336 47.0098 287.579 33.5882C245.134 4.56468 219.585 -3.81533 168.964 1.49882C126.996 5.92729 90.8868 27.0477 66.5643 60.1589C38.9716 97.7668 38.4947 150.431 51.9163 193.422C59.2063 216.927 92.5901 247.108 112.143 257.873C132.582 269.114 155.542 271.839 179.933 274.837C196.284 276.881 223.673 275.314 240.228 269.387Z" fill="#E2BF64"/>
<path d="M97.6317 69.9017C98.3811 60.9085 91.6362 53.0054 82.6431 52.0516C76.2388 51.3703 69.2214 49.5308 55.1185 51.9835C21.394 57.9108 10.425 47.7594 9.47122 68.7435C8.313 94.8374 43.5363 77.6004 65.1336 84.8222C82.5749 90.6814 96.201 87.0024 97.6317 69.9017Z" fill="white"/>
<path d="M379.488 169.917C380.169 161.809 373.833 154.655 365.385 153.838C359.389 153.225 352.712 151.521 339.495 153.77C307.746 159.084 297.459 149.954 296.573 168.895C295.483 192.4 328.594 176.866 348.897 183.338C365.385 188.584 378.193 185.314 379.488 169.917Z" fill="white"/>
<path d="M310.337 413.278C310.337 413.278 308.633 413.482 307.679 412.46C307.134 411.847 306.93 410.961 307.134 409.803C307.339 408.713 307.952 408.508 308.429 408.44C309.383 408.372 310.609 409.122 311.29 410.075C311.563 410.416 311.699 410.825 311.767 411.166C311.835 411.847 311.699 412.733 310.337 413.278Z" fill="#111111"/>
<path d="M302.296 423.702C302.296 423.702 301.274 422.407 301.682 421.045C301.887 420.227 302.568 419.478 303.658 418.933C304.68 418.388 305.225 418.796 305.498 419.137C306.247 420.159 305.838 422.543 304.816 423.565C304.271 424.042 303.454 424.451 302.296 423.702Z" fill="#111111"/>
<path d="M293.166 415.39C293.166 415.39 291.599 416.207 290.304 415.662C289.555 415.321 289.01 414.64 288.737 413.55C288.465 412.528 289.01 412.051 289.419 411.847C290.645 411.234 292.893 411.847 293.711 413.005C293.711 413.005 293.711 413.005 293.711 413.073C294.052 413.55 294.256 414.368 293.166 415.39Z" fill="#111111"/>
<path d="M314.628 425.405C314.628 425.405 313.606 424.11 314.014 422.748C314.219 421.93 314.9 421.181 315.99 420.636C317.012 420.091 317.557 420.499 317.83 420.84C318.579 421.862 318.17 424.247 317.148 425.269C316.603 425.745 315.786 426.154 314.628 425.405Z" fill="#111111"/>
<path d="M315.173 435.216C314.559 435.011 313.946 434.398 314.355 433.035C314.355 433.035 315.309 431.536 316.74 431.332C317.625 431.196 318.443 431.468 319.329 432.218C319.465 432.354 319.533 432.422 319.669 432.558C320.078 433.104 319.874 433.58 319.669 433.921C318.852 435.079 316.535 435.761 315.173 435.216Z" fill="#111111"/>
<path d="M280.222 418.66C280.222 418.66 278.519 418.728 277.633 417.638C277.088 417.025 277.02 416.071 277.292 414.981C277.565 413.959 278.246 413.755 278.723 413.755C279.609 413.755 280.631 414.436 281.244 415.322C281.585 415.799 281.789 416.276 281.857 416.753C281.857 417.298 281.585 418.183 280.222 418.66Z" fill="#111111"/>
<path d="M285.536 426.768C285.536 426.768 284.514 425.473 284.923 424.111C285.127 423.293 285.808 422.544 286.898 421.999C287.92 421.453 288.465 421.862 288.738 422.203C289.487 423.225 289.079 425.609 288.057 426.631C287.512 427.176 286.694 427.585 285.536 426.768Z" fill="#111111"/>
<path d="M321.849 415.594C320.964 415.526 320.282 414.981 319.737 413.959C319.192 413.073 319.601 412.46 320.01 412.188C321.1 411.302 323.484 411.302 324.575 412.188C324.711 412.256 324.779 412.392 324.847 412.528C325.188 412.937 325.256 413.618 324.643 414.572C324.575 414.572 323.28 415.73 321.849 415.594Z" fill="#111111"/>
<path d="M298.55 435.761C298.55 435.761 297.528 434.466 297.936 433.104C298.141 432.286 298.822 431.537 299.912 430.992C300.934 430.447 301.479 430.855 301.752 431.196C302.501 432.218 302.092 434.603 301.07 435.625C300.525 436.17 299.708 436.578 298.55 435.761Z" fill="#111111"/>
<path d="M307.882 430.378C307.882 430.378 306.86 429.084 307.268 427.721C307.473 426.904 308.154 426.154 309.244 425.609C310.266 425.064 310.811 425.473 311.084 425.814C311.833 426.836 311.424 429.22 310.402 430.242C309.925 430.719 309.108 431.128 307.882 430.378Z" fill="#111111"/>
<path d="M329.208 424.996C329.208 424.996 328.186 423.702 328.595 422.339C328.799 421.522 329.48 420.772 330.57 420.227C331.592 419.682 332.137 420.091 332.41 420.431C333.159 421.453 332.751 423.838 331.729 424.86C331.184 425.337 330.366 425.746 329.208 424.996Z" fill="#111111"/>
<path d="M338.813 411.37C338.813 411.37 337.791 410.076 338.2 408.713C338.404 407.896 339.086 407.146 340.176 406.601C341.198 406.056 341.743 406.465 342.015 406.805C342.765 407.827 342.356 410.212 341.334 411.234C340.789 411.711 339.971 412.12 338.813 411.37Z" fill="#111111"/>
<path d="M299.776 428.471C299.776 428.471 298.277 429.357 296.914 428.948C296.097 428.675 295.552 427.994 295.211 426.904C294.87 425.882 295.347 425.405 295.824 425.133C297.051 424.451 299.367 424.928 300.185 426.018L300.253 426.086C300.593 426.631 300.73 427.449 299.776 428.471Z" fill="#111111"/>
<path d="M282.199 436.374C282.199 436.374 280.564 437.055 279.337 436.51C278.588 436.17 278.111 435.42 277.906 434.262C277.77 433.24 278.247 432.763 278.724 432.627C279.95 432.15 281.994 432.831 282.812 433.921C282.88 433.989 282.88 434.057 282.88 434.057C283.289 434.534 283.357 435.42 282.199 436.374Z" fill="#111111"/>
<path d="M140.962 398.493C140.758 402.377 140.553 406.328 140.349 410.212C140.281 410.893 143.483 411.029 143.551 410.28C143.755 406.397 143.96 402.445 144.164 398.562C144.164 397.88 141.03 397.744 140.962 398.493Z" fill="#FF858F"/>
<path d="M147.98 400.061C147.775 403.331 147.571 406.601 147.366 409.871C147.298 411.03 150.296 411.983 150.364 410.553C150.568 407.282 150.773 404.012 150.977 400.742C151.045 399.584 148.048 398.63 147.98 400.061Z" fill="#FF858F"/>
<path d="M155.2 400.81C154.995 404.012 154.791 407.146 154.587 410.348C154.45 412.188 157.448 411.643 157.584 410.144C157.789 406.942 157.993 403.808 158.197 400.606C158.334 398.766 155.268 399.311 155.2 400.81Z" fill="#FF858F"/>
<path d="M164.671 400.878C164.467 404.489 164.262 408.1 164.058 411.643C163.99 413.073 166.783 412.665 166.851 411.438C167.056 407.827 167.26 404.216 167.464 400.674C167.533 399.175 164.739 399.584 164.671 400.878Z" fill="#FF858F"/>
<path d="M174.619 399.924C174.619 403.331 174.619 406.669 174.619 410.076C174.619 411.915 177.753 411.438 177.753 409.735C177.753 406.329 177.753 402.99 177.753 399.584C177.753 397.744 174.619 398.289 174.619 399.924Z" fill="#FF858F"/>
<path d="M324.914 315.579C323.756 302.634 318.782 289.553 311.356 278.993C303.93 268.433 293.438 261.415 281.038 258.213C268.025 254.875 254.263 255.079 240.909 254.943C224.763 254.807 208.548 254.262 192.673 250.583C183.953 248.607 175.504 245.677 167.465 241.862C156.837 237.297 145.732 233.755 134.626 230.689C114.528 225.17 92.7944 221.014 71.9465 224.012C62.6127 225.375 53.1426 228.44 45.7845 234.504C37.8814 241.044 33.2486 250.378 31.4772 260.393C26.2311 289.349 30.3871 321.234 45.3076 346.783C59.9556 371.854 84.2099 389.16 111.258 398.357C127.95 404.08 145.323 406.533 162.832 407.759C181.841 409.054 200.985 408.713 219.789 406.056C248.268 402.036 277.972 392.77 299.978 373.217C316.398 358.637 326.958 338.062 324.914 315.579Z" fill="#FFA4AB"/>
<path d="M95.4508 389.296C92.93 387.525 90.4092 385.685 87.8884 383.914C82.7105 380.235 77.5326 376.556 72.4228 372.809C71.7415 372.332 71.6052 372.332 71.6734 372.536C71.6052 372.468 71.5371 372.468 71.5371 372.468C75.9656 392.021 80.4622 411.575 84.8906 431.196C85.5038 433.989 86.1851 436.851 86.7983 439.644C86.8664 439.985 88.774 441.416 88.8422 441.211C89.7279 438.35 90.6817 435.556 91.5674 432.695C92.7256 434.807 93.8838 436.987 95.042 439.099C95.1783 439.44 97.0178 440.734 97.0178 440.462C97.2903 428.675 97.631 416.889 97.9035 405.102C97.9716 402.036 98.0398 399.039 98.1079 395.973C98.1079 394.815 98.5848 392.771 98.2441 391.612C97.9716 390.795 96.2684 389.841 95.4508 389.296Z" fill="#FFA4AB"/>
<path d="M122.432 390.113C115.55 387.797 108.601 385.48 101.72 383.164C101.652 383.164 101.652 383.232 101.72 383.368C101.584 383.3 101.516 383.232 101.516 383.232C104.786 399.72 108.124 416.207 111.395 432.763C111.871 435.079 112.348 437.396 112.825 439.78C112.893 440.121 114.801 441.552 114.869 441.347C115.755 438.486 116.709 435.692 117.594 432.831C118.753 434.943 119.911 437.123 121.069 439.235C121.205 439.576 123.045 440.87 123.045 440.598C123.385 426.359 123.794 412.119 124.135 397.88C124.203 395.836 124.271 393.792 124.271 391.748C124.271 391.135 122.84 390.25 122.432 390.113Z" fill="#FFA4AB"/>
<path d="M217.949 396.041C211.068 393.725 204.119 391.408 197.238 389.092C197.169 389.092 197.169 389.16 197.238 389.296C197.101 389.228 197.033 389.16 197.033 389.16C200.303 405.647 203.642 422.135 206.912 438.691C207.389 441.007 207.866 443.323 208.343 445.708C208.411 446.049 210.319 447.479 210.387 447.275C211.272 444.414 212.226 441.62 213.112 438.759C214.27 440.871 215.428 443.051 216.587 445.163C216.723 445.504 218.562 446.798 218.562 446.526C218.903 432.286 219.312 418.047 219.652 403.808C219.721 401.764 219.789 399.72 219.789 397.676C219.789 397.063 218.358 396.177 217.949 396.041Z" fill="#FFA4AB"/>
<path d="M242.203 396.041C235.322 393.725 228.373 391.408 221.492 389.092C221.423 389.092 221.423 389.16 221.492 389.296C221.355 389.228 221.287 389.16 221.287 389.16C224.557 405.647 227.896 422.135 231.166 438.691C231.643 441.007 232.12 443.323 232.597 445.708C232.665 446.049 234.573 447.479 234.641 447.275C235.526 444.414 236.48 441.62 237.366 438.759C238.524 440.871 239.682 443.051 240.84 445.163C240.977 445.504 242.816 446.798 242.816 446.526C243.157 432.286 243.566 418.047 243.906 403.808C243.974 401.764 244.043 399.72 244.043 397.676C244.043 397.063 242.68 396.177 242.203 396.041Z" fill="#FFA4AB"/>
<path d="M97.0871 421.113C93.0674 421.522 89.0477 421.999 85.0962 422.407H85.028H84.9599C84.8918 422.407 84.8918 422.407 84.8237 422.475C84.1424 422.68 83.2567 423.361 83.3929 423.906C84.5511 430.515 85.7093 437.123 86.8676 443.8C87.0719 444.822 88.9115 443.323 89.0477 442.846C89.729 440.257 90.4785 437.668 91.1598 435.148C92.4542 437.873 93.7487 440.598 95.0432 443.255C95.452 444.073 97.2233 442.506 97.2233 441.893C97.4277 435.079 97.564 428.266 97.7684 421.453C97.7003 421.113 97.2915 421.113 97.0871 421.113Z" fill="#232E39"/>
<path d="M123.044 421.113C119.024 421.522 115.005 421.999 111.053 422.407H110.985H110.917C110.849 422.407 110.849 422.407 110.781 422.475C110.099 422.68 109.214 423.361 109.35 423.906C110.508 430.515 111.666 437.123 112.825 443.8C113.029 444.822 114.868 443.323 115.005 442.846C115.686 440.257 116.435 437.668 117.117 435.148C118.411 437.873 119.706 440.598 121 443.255C121.409 444.073 123.18 442.506 123.18 441.893C123.385 435.079 123.521 428.266 123.725 421.453C123.657 421.113 123.249 421.113 123.044 421.113Z" fill="#232E39"/>
<path d="M218.495 427.04C214.476 427.449 210.456 427.926 206.504 428.335H206.436H206.368C206.3 428.335 206.3 428.335 206.232 428.403C205.551 428.607 204.665 429.288 204.801 429.833C205.959 436.442 207.118 443.051 208.276 449.727C208.48 450.749 210.32 449.251 210.456 448.774C211.137 446.185 211.887 443.596 212.568 441.075C213.862 443.8 215.157 446.525 216.451 449.182C216.86 450 218.632 448.433 218.632 447.82C218.836 441.007 218.972 434.194 219.177 427.381C219.108 427.04 218.7 427.04 218.495 427.04Z" fill="#232E39"/>
<path d="M242.818 427.04C238.798 427.449 234.778 427.926 230.827 428.335H230.759H230.69C230.622 428.335 230.622 428.335 230.554 428.403C229.873 428.607 228.987 429.288 229.123 429.833C230.282 436.442 231.44 443.051 232.598 449.727C232.802 450.749 234.642 449.251 234.778 448.774C235.46 446.185 236.209 443.596 236.89 441.075C238.185 443.8 239.479 446.525 240.774 449.182C241.182 450 242.954 448.433 242.954 447.82C243.158 441.007 243.294 434.194 243.499 427.381C243.431 427.04 243.022 427.04 242.818 427.04Z" fill="#232E39"/>
<path d="M275.18 301.748C275.18 301.748 279.744 296.843 285.467 302.634C285.467 302.634 280.085 306.654 275.18 301.748Z" fill="white"/>
<path d="M280.29 304.405C280.742 304.405 281.108 303.246 281.108 301.816C281.108 300.387 280.742 299.228 280.29 299.228C279.839 299.228 279.473 300.387 279.473 301.816C279.473 303.246 279.839 304.405 280.29 304.405Z" fill="black"/>
<path d="M289.01 300.931C289.01 300.931 293.574 296.025 299.297 301.817C299.297 301.748 293.915 305.836 289.01 300.931Z" fill="white"/>
<path d="M294.938 300.999C294.938 302.43 294.597 303.588 294.12 303.588C293.643 303.588 293.303 302.43 293.303 300.999C293.303 299.568 293.643 298.41 294.12 298.41C294.597 298.41 294.938 299.568 294.938 300.999Z" fill="black"/>
<path d="M310.199 323.414C309.45 322.119 308.36 321.166 307.065 320.621C306.997 320.212 306.384 319.939 305.498 320.144C305.362 320.144 305.226 320.212 305.157 320.212C304.476 320.144 303.727 320.28 303.045 320.484C299.026 320.689 295.279 319.19 293.098 315.306C292.145 313.535 291.463 311.491 291.327 309.447C291.259 308.425 288.261 309.107 288.329 310.265C288.534 312.922 289.624 315.715 291.191 317.895C293.371 320.757 296.505 321.983 299.843 322.188C295.892 325.39 293.575 331.726 293.303 336.359C293.03 341.332 295.347 347.532 301.001 347.873C304.681 348.077 307.542 346.306 309.45 343.24C313.333 337.108 313.946 329.818 310.199 323.414ZM307.883 341.06C306.316 344.398 303.59 348.35 299.639 345.011C295.279 341.332 295.892 334.247 297.799 329.477C298.549 327.57 300.593 323.141 303.045 322.119C303.59 322.051 304.067 321.983 304.612 321.915C304.681 321.915 304.749 321.915 304.817 321.983C305.771 322.256 306.861 323.618 307.269 324.231C310.335 329.546 310.472 335.541 307.883 341.06Z" fill="white"/>
<path d="M302.09 334.86C302.09 335.95 301.681 336.768 301.204 336.768C300.727 336.768 300.318 335.882 300.318 334.86C300.318 333.77 300.727 332.952 301.204 332.952C301.749 332.884 302.09 333.77 302.09 334.86Z" fill="black"/>
<path d="M305.904 335.814C305.904 336.904 305.495 337.722 305.019 337.722C304.542 337.722 304.133 336.836 304.133 335.814C304.133 334.792 304.542 333.906 305.019 333.906C305.495 333.906 305.904 334.724 305.904 335.814Z" fill="black"/>
<path d="M267.141 336.495C270.565 336.495 273.341 333.689 273.341 330.227C273.341 326.766 270.565 323.959 267.141 323.959C263.717 323.959 260.941 326.766 260.941 330.227C260.941 333.689 263.717 336.495 267.141 336.495Z" fill="#FF858F"/>
<path d="M315.719 318.305C319.143 318.305 321.919 315.498 321.919 312.037C321.919 308.575 319.143 305.769 315.719 305.769C312.295 305.769 309.52 308.575 309.52 312.037C309.52 315.498 312.295 318.305 315.719 318.305Z" fill="#FF858F"/>
<path d="M38.6993 258.418C32.5676 256.851 26.3678 254.33 21.1217 250.719C17.7152 248.403 14.2406 245.337 13.423 241.045C12.8098 237.979 13.9681 234.913 15.7394 232.256C16.012 232.528 16.3526 232.801 16.6933 233.005C19.8273 235.594 24.0513 238.864 28.3435 238.524C38.9718 237.638 35.8379 219.72 25.7546 220.061C22.2799 220.197 18.9416 221.9 16.0801 224.421C14.445 222.581 12.9461 220.674 11.6516 218.63C8.31325 213.52 5.72431 207.456 6.26935 201.188C6.88252 193.422 12.2648 187.903 18.5328 183.952C19.691 183.202 19.9635 181.635 18.8734 180.749C17.579 179.727 15.7394 180.341 14.5812 181.09C7.83634 185.314 1.97715 191.446 0.478281 199.553C-0.748062 206.162 1.36397 212.839 4.56609 218.562C6.61 222.173 9.19895 225.579 12.0604 228.577C10.8341 230.144 9.74399 231.847 8.92643 233.414C6.33748 238.524 6.88252 244.11 10.4253 248.539C16.2164 255.897 26.504 260.121 35.2928 262.369C36.7235 262.778 38.5631 262.506 39.5169 261.211C40.2663 260.394 40.1301 258.827 38.6993 258.418ZM25.4139 224.693C26.2996 224.898 27.4578 226.124 28.0029 227.35C28.6161 228.713 28.8886 230.416 28.7523 231.915C28.6842 232.665 28.5479 233.142 28.3435 233.823C28.3435 233.891 28.2754 233.959 28.2754 233.959C27.6622 233.755 27.1172 233.55 26.5721 233.21C25.0733 232.392 23.37 231.166 21.9393 230.076C21.1217 229.394 20.3042 228.713 19.4866 227.964C19.8273 227.691 20.1679 227.35 20.4404 227.078C21.9393 225.852 24.0513 224.421 25.4139 224.693Z" fill="#FF858F"/>
<path d="M254.468 266.73C253.174 266.525 251.743 266.662 250.449 266.594C248.132 266.594 245.68 266.321 243.363 266.866C241.251 267.343 238.867 268.774 239.752 271.295C240.025 272.044 240.706 272.793 241.047 273.543C241.66 274.837 242.069 276.268 242.341 277.699C243.295 282.945 241.387 287.782 241.456 292.96C241.456 295.617 242.205 298.342 244.726 299.569C249.699 302.021 253.923 297.729 256.172 293.709C259.851 286.896 263.666 275.927 257.807 269.319C256.717 268.092 256.24 267.002 254.468 266.73Z" fill="#FF858F"/>
<path d="M294.12 272.112C293.098 267.207 290.714 261.552 285.059 261.143C281.721 260.871 278.587 262.642 275.793 264.345C274.703 265.027 272.591 266.185 272.387 267.684C272.251 268.706 272.932 268.978 273.477 269.659C274.022 270.75 276.338 271.908 277.156 272.725C279.949 275.859 280.971 279.743 282.47 283.49C283.424 285.943 285.059 288.395 287.852 288.668C289.828 288.872 291.804 287.986 293.03 286.419C296.028 282.877 294.938 276.2 294.12 272.112Z" fill="#FF858F"/>
</svg>
