<svg xmlns="http://www.w3.org/2000/svg" width="24" height="24" viewBox="0 0 24 24" fill="none">
  <path d="M7.30909 10.0364L12 5.45455L16.6909 10.1455L19.4182 7.41818L12 0L4.58182 7.41818L7.30909 10.0364ZM0 12L2.72727 9.27273L5.45455 12L2.72727 14.7273L0 12ZM7.30909 13.9636L12 18.5455L16.6909 13.8545L19.4182 16.5818L12 24L4.58182 16.5818L7.30909 13.9636ZM18.5455 12L21.2727 9.27273L24 12L21.2727 14.7273L18.5455 12Z" fill="#111111"/>
  <path d="M14.7273 12L12 9.27273L9.27273 12L12 14.7273L14.7273 12Z" fill="#111111"/>
</svg>