<svg xmlns="http://www.w3.org/2000/svg" width="44" height="44" viewBox="0 0 44 44" fill="none">
  <path d="M17.5556 19.7778V15.3333C17.5556 14.1546 18.0238 13.0241 18.8573 12.1906C19.6908 11.3571 20.8213 10.8889 22 10.8889C23.1787 10.8889 24.3092 11.3571 25.1427 12.1906C25.9762 13.0241 26.4444 14.1546 26.4444 15.3333V19.7778M22 2C38 2 42 6 42 22C42 38 38 42 22 42C6 42 2 38 2 22C2 6 6 2 22 2ZM13.1111 22C13.1111 21.4106 13.3452 20.8454 13.762 20.4287C14.1787 20.0119 14.744 19.7778 15.3333 19.7778H28.6667C29.256 19.7778 29.8213 20.0119 30.238 20.4287C30.6548 20.8454 30.8889 21.4106 30.8889 22V28.6667C30.8889 29.256 30.6548 29.8213 30.238 30.238C29.8213 30.6548 29.256 30.8889 28.6667 30.8889H15.3333C14.744 30.8889 14.1787 30.6548 13.762 30.238C13.3452 29.8213 13.1111 29.256 13.1111 28.6667V22Z" stroke="#F02F66" stroke-width="3" stroke-linecap="round" stroke-linejoin="round"/>
</svg>