<svg xmlns="http://www.w3.org/2000/svg" width="24" height="22" viewBox="0 0 24 22" fill="none">
  <path d="M15.1349 7.33919H8.35754C8.07662 7.33919 7.8308 7.54988 7.8308 7.83081V14.1868C7.8308 14.4501 8.05906 14.6784 8.35754 14.6784H15.1524C15.4334 14.6784 15.6792 14.4677 15.6792 14.1868V7.81325C15.6616 7.54988 15.4334 7.33919 15.1349 7.33919Z" fill="black"/>
  <path d="M7.30407 0H0.526736C0.228252 0 0 0.210694 0 0.49162V6.84757C0 7.11093 0.228252 7.33919 0.526736 7.33919H7.32163C7.60255 7.33919 7.84836 7.12849 7.84836 6.84757V0.49162C7.83081 0.210694 7.60255 0 7.30407 0Z" fill="black"/>
  <path d="M22.9832 0H16.1883C15.9074 0 15.6616 0.210694 15.6616 0.49162V6.84757C15.6616 7.11093 15.8899 7.33919 16.1883 7.33919H22.9832C23.2642 7.33919 23.51 7.12849 23.51 6.84757V0.49162C23.51 0.210694 23.2642 0 22.9832 0Z" fill="black"/>
  <path d="M7.30407 14.6608H0.526736C0.24581 14.6608 0 14.8715 0 15.1524V21.5084C0 21.7717 0.228252 22 0.526736 22H7.32163C7.60255 22 7.84836 21.7893 7.84836 21.5084V15.1524C7.83081 14.8715 7.60255 14.6608 7.30407 14.6608Z" fill="black"/>
  <path d="M22.9832 14.6608H16.1883C15.9074 14.6608 15.6616 14.8715 15.6616 15.1524V21.5084C15.6616 21.7717 15.8899 22 16.1883 22H22.9832C23.2642 22 23.51 21.7893 23.51 21.5084V15.1524C23.51 14.8715 23.2642 14.6608 22.9832 14.6608Z" fill="black"/>
</svg>