<svg xmlns="http://www.w3.org/2000/svg" width="24" height="24" viewBox="0 0 24 24" fill="none">
  <path fill-rule="evenodd" clip-rule="evenodd" d="M4.275 3.75C3.9 1.8 5.4 0 7.35 0C9.075 0 10.5 1.425 10.5 3.15V7.05C10.95 7.05 11.4 6.975 11.85 6.975C12.3 6.975 12.675 6.975 13.125 7.05V3.15C13.125 1.425 14.55 0 16.275 0C18.225 0 19.725 1.8 19.425 3.75L18.6 8.325C21.525 9.6 23.775 11.85 23.775 14.625V16.35C23.775 18.675 22.275 20.625 20.1 21.9C17.925 23.25 15.075 24 11.85 24C8.625 24 5.775 23.25 3.6 21.9C1.5 20.625 0 18.675 0 16.35V14.625C0 11.85 2.175 9.6 5.1 8.325L4.275 3.75ZM17.475 8.925L18.45 3.525C18.675 2.175 17.7 0.9 16.275 0.9C15.075 0.9 14.1 1.875 14.1 3.075V8.025C13.8 7.95 13.425 7.95 13.125 7.95C12.675 7.95 12.3 7.875 11.85 7.875C11.4 7.875 10.95 7.875 10.5 7.95C10.2 7.95 9.825 8.025 9.525 8.025V3.15C9.525 1.95 8.55 0.975 7.35 0.975C6 0.975 4.95 2.25 5.25 3.6L6.225 9C3.075 10.2 0.975 12.3 0.975 14.7V16.425C0.975 20.1 5.85 23.1 11.85 23.1C17.85 23.1 22.725 20.1 22.725 16.425V14.7C22.8 12.225 20.7 10.125 17.475 8.925Z" fill="#111111"/>
  <path d="M22.8008 16.35C22.8008 20.025 17.9258 23.025 11.9258 23.025C5.92578 23.025 1.05078 20.025 1.05078 16.35V14.625H22.8758V16.35H22.8008Z" fill="#111111"/>
  <path fill-rule="evenodd" clip-rule="evenodd" d="M5.25078 3.6001C4.95078 2.2501 6.00078 0.975098 7.35078 0.975098C8.55078 0.975098 9.52578 1.9501 9.52578 3.1501V8.1001C10.2758 8.0251 11.0258 7.9501 11.8508 7.9501C12.6008 7.9501 13.3508 8.0251 14.1008 8.1001V3.1501C14.1008 1.9501 15.0758 0.975098 16.2758 0.975098C17.6258 0.975098 18.6758 2.2501 18.4508 3.6001L17.4758 9.0001C20.6258 10.2001 22.8008 12.3001 22.8008 14.7001C22.8008 18.3751 17.9258 21.3751 11.9258 21.3751C5.92578 21.3751 1.05078 18.3751 1.05078 14.7001C1.05078 12.3001 3.15078 10.2001 6.30078 9.0001L5.25078 3.6001Z" fill="#111111"/>
  <path d="M8.84922 14.175C8.84922 15.15 8.32422 15.975 7.64922 15.975C6.97422 15.975 6.44922 15.15 6.44922 14.175C6.44922 13.2 6.97422 12.375 7.64922 12.375C8.32422 12.375 8.84922 13.2 8.84922 14.175Z" fill="white"/>
  <path d="M17.1754 14.175C17.1754 15.15 16.6504 15.975 15.9754 15.975C15.3004 15.975 14.7754 15.15 14.7754 14.175C14.7754 13.2 15.3004 12.375 15.9754 12.375C16.6504 12.375 17.1754 13.2 17.1754 14.175Z" fill="white"/>
</svg>