<svg xmlns="http://www.w3.org/2000/svg" width="25" height="20" viewBox="0 0 25 20" fill="none">
  <path d="M8.61112 20H3.77385L7.05144 14.7321C3.13323 14.565 0 11.2936 0 7.36937C0 3.32742 3.32382 0.00102809 7.36327 0H14.6402L12.0716 4.09335H7.36327C5.58269 4.11546 4.13038 5.58768 4.13038 7.36937C4.13038 9.15054 5.58269 10.6228 7.36327 10.6449H14.3762L8.61112 20Z" fill="#111111"/>
  <path d="M16.373 0H21.2098L17.9322 5.26795C21.8504 5.43501 24.9836 8.7064 24.9836 12.6306C24.9836 16.6726 21.6598 19.999 17.6204 20H10.3424L12.911 15.9066H17.6229C19.4035 15.8845 20.8558 14.4123 20.8558 12.6306C20.8558 10.8495 19.4035 9.37723 17.6229 9.35513H10.608L16.373 0Z" fill="#111111"/>
</svg>