<svg xmlns="http://www.w3.org/2000/svg" width="26" height="20" viewBox="0 0 26 20" fill="none">
  <g clip-path="url(#clip0_231_376)">
    <path d="M4.1463 15.2648C4.3003 15.1108 4.51204 15.021 4.73662 15.021H25.1024C25.4745 15.021 25.6606 15.4701 25.3975 15.7332L21.3744 19.7563C21.2204 19.9103 21.0087 20.0001 20.7841 20.0001H0.418361C0.0462084 20.0001 -0.139868 19.551 0.123206 19.2879L4.1463 15.2648Z" fill="#111111"/>
    <path d="M4.14435 0.243824C4.30476 0.0898299 4.5165 0 4.73466 0H25.1004C25.4726 0 25.6586 0.44915 25.3956 0.712223L21.3725 4.73532C21.2185 4.88932 21.0067 4.97915 20.7821 4.97915H0.416408C0.0442553 4.97915 -0.141821 4.53 0.121252 4.26692L4.14435 0.243824Z" fill="#111111"/>
    <path d="M21.3744 7.70623C21.2204 7.55223 21.0087 7.4624 20.7841 7.4624H0.418361C0.0462084 7.4624 -0.139868 7.91155 0.123206 8.17463L4.1463 12.1977C4.3003 12.3517 4.51204 12.4415 4.73662 12.4415H25.1024C25.4745 12.4415 25.6606 11.9924 25.3975 11.7293L21.3744 7.70623Z" fill="#111111"/>
  </g>
  <defs>
    <clipPath id="clip0_231_376">
      <rect width="25.5181" height="20" fill="white"/>
    </clipPath>
  </defs>
</svg>