<svg xmlns="http://www.w3.org/2000/svg" width="44" height="44" viewBox="0 0 44 44" fill="none">
  <path d="M15.3333 26.4444C15.3333 30.1267 21.3022 33.1111 28.6667 33.1111C36.0311 33.1111 42 30.1267 42 26.4444M15.3333 26.4444C15.3333 22.7622 21.3022 19.7778 28.6667 19.7778C36.0311 19.7778 42 22.7622 42 26.4444M15.3333 26.4444V35.3333C15.3333 39.0133 21.3022 42 28.6667 42C36.0311 42 42 39.0133 42 35.3333V26.4444M2 8.66667C2 11.0489 4.54222 13.2489 8.66667 14.44C12.7911 15.6311 17.8756 15.6311 22 14.44C26.1244 13.2489 28.6667 11.0489 28.6667 8.66667C28.6667 6.28444 26.1244 4.08444 22 2.89333C17.8756 1.70222 12.7911 1.70222 8.66667 2.89333C4.54222 4.08444 2 6.28444 2 8.66667ZM2 8.66667V30.8889C2 32.8622 3.71556 34.1111 6.44444 35.3333M2 19.7778C2 21.7511 3.71556 23 6.44444 24.2222" stroke="#F02F66" stroke-width="3" stroke-linecap="round" stroke-linejoin="round"/>
</svg>