<svg xmlns="http://www.w3.org/2000/svg" width="21" height="14" viewBox="0 0 21 14" fill="none">
  <path d="M20.5657 11.0269L18.3008 13.1343C17.7587 13.6765 16.9891 14 16.1672 14C15.3452 14 14.5844 13.6852 13.9985 13.0993L11.7687 11.0181C11.2352 10.5197 11.209 9.69769 11.7074 9.16427C12.2059 8.63086 13.0366 8.60462 13.5613 9.10306L14.8555 10.3098V4.81824C14.8555 3.61149 13.8761 2.6321 12.6693 2.6321H11.7949C11.0691 2.6321 10.4832 2.04622 10.4832 1.32042C10.4832 0.594628 11.0691 0.00874453 11.7949 0.00874453H12.6693C15.3189 0.00874453 17.4788 2.16864 17.4788 4.81824V10.3098L18.773 9.10306C19.2977 8.60462 20.1284 8.6396 20.6269 9.16427C21.1166 9.69769 21.0903 10.5197 20.5657 11.0181V11.0269ZM9.18027 11.3766H8.30582C7.09907 11.3766 6.11968 10.3973 6.11968 9.19051V3.69894L7.41387 4.90568C7.66746 5.14179 7.99101 5.25547 8.30582 5.25547C8.6556 5.25547 9.00538 5.11555 9.26771 4.83573C9.75741 4.30231 9.73117 3.48032 9.2065 2.98189L6.97665 0.900687C6.39951 0.323548 5.62999 0 4.808 0C3.98602 0 3.22524 0.314803 2.67434 0.865709L0.418246 2.98189C-0.115171 3.48032 -0.141404 4.30231 0.357034 4.83573C0.855473 5.36914 1.67746 5.39538 2.21088 4.89694L3.50507 3.69019V9.18176C3.50507 11.8314 5.66497 13.9913 8.31456 13.9913H9.18901C9.91481 13.9913 10.5007 13.4054 10.5007 12.6796C10.5007 11.9538 9.91481 11.3679 9.18901 11.3679L9.18027 11.3766Z" fill="#F02F66"/>
</svg>