<svg xmlns="http://www.w3.org/2000/svg" width="27" height="30" viewBox="0 0 27 30" fill="none">
  <g clip-path="url(#clip0_231_353)">
    <path d="M10.2105 6.82293C9.88555 6.77652 9.87007 6.76104 10.0248 6.74557C10.3188 6.69916 10.9995 6.76104 11.4791 6.86935C12.5931 7.13237 13.5988 7.81313 14.6664 9.00447L14.9449 9.32938L15.3471 9.26749C17.0645 8.989 18.8283 9.2056 20.2981 9.88637C20.7004 10.072 21.3347 10.4434 21.4121 10.5362C21.443 10.5671 21.4895 10.7683 21.5204 10.9694C21.6287 11.6966 21.5823 12.2381 21.3502 12.6558C21.2264 12.8879 21.2264 12.9498 21.3038 13.1509C21.3657 13.3057 21.5514 13.414 21.7215 13.414C22.0929 13.414 22.4797 12.826 22.6653 12.006L22.7427 11.6811L22.8819 11.8358C23.671 12.7177 24.2899 13.94 24.3827 14.8064L24.4137 15.0385L24.2744 14.8374C24.0423 14.4815 23.8257 14.2494 23.5318 14.0483C23.0057 13.6925 22.4487 13.5841 20.9789 13.5068C19.6483 13.4294 18.8902 13.3211 18.1475 13.0736C16.8788 12.6558 16.229 12.1143 14.7282 10.1184C14.063 9.23655 13.6452 8.75692 13.2275 8.35465C12.3146 7.47275 11.4018 7.00859 10.2105 6.82293Z" fill="black"/>
    <path d="M21.738 8.78794C21.769 8.20001 21.8463 7.81321 22.0165 7.45736C22.0784 7.31811 22.1403 7.19434 22.1558 7.19434C22.1713 7.19434 22.1403 7.30264 22.0939 7.42641C21.9701 7.7668 21.9546 8.24642 22.032 8.78794C22.1403 9.48418 22.1867 9.57701 22.9294 10.3351C23.2698 10.691 23.672 11.1397 23.8267 11.3253L24.0898 11.6657L23.8267 11.4182C23.5018 11.1087 22.7592 10.5208 22.589 10.4434C22.4807 10.3815 22.4652 10.3815 22.3879 10.4589C22.326 10.5208 22.3105 10.6136 22.3105 11.0623C22.295 11.7585 22.2022 12.1918 21.9701 12.6404C21.8463 12.8725 21.8309 12.8261 21.9392 12.5631C22.0165 12.3619 22.032 12.2691 22.032 11.6038C22.032 10.2578 21.8773 9.93286 20.9335 9.39135C20.7014 9.2521 20.2992 9.05096 20.0671 8.94266C19.8195 8.83436 19.6339 8.74153 19.6493 8.74153C19.6803 8.71058 20.5931 8.9736 20.949 9.12832C21.4905 9.34493 21.5833 9.3604 21.6452 9.34493C21.6916 9.29851 21.7226 9.17474 21.738 8.78794Z" fill="black"/>
    <path d="M10.847 11.0933C10.1972 10.1959 9.77942 8.80342 9.87225 7.7668L9.9032 7.44189L10.0579 7.47284C10.3364 7.51925 10.816 7.70492 11.0481 7.84416C11.667 8.21549 11.9455 8.72606 12.2085 9.99476C12.2859 10.3661 12.3942 10.7993 12.4406 10.9385C12.5179 11.1706 12.8119 11.7121 13.0595 12.0525C13.2297 12.3001 13.1213 12.4238 12.7346 12.3929C12.1466 12.331 11.3576 11.7895 10.847 11.0933Z" fill="black"/>
    <path d="M20.9492 17.8237C17.8858 16.5859 16.8027 15.5184 16.8027 13.7081C16.8027 13.4451 16.8182 13.2285 16.8182 13.2285C16.8337 13.2285 16.942 13.3213 17.0812 13.4297C17.7001 13.9248 18.3963 14.1414 20.3303 14.4199C21.4598 14.59 22.1096 14.7138 22.6975 14.915C24.5696 15.5338 25.73 16.8025 26.0085 18.5199C26.0859 19.015 26.0395 19.9588 25.9157 20.4539C25.8074 20.8407 25.4979 21.5524 25.4206 21.5679C25.4051 21.5679 25.3742 21.4905 25.3742 21.3667C25.3432 20.7169 25.0183 20.098 24.4768 19.6184C23.827 19.0614 22.9915 18.6437 20.9492 17.8237Z" fill="black"/>
    <path d="M18.784 18.334C18.7531 18.102 18.6757 17.808 18.6293 17.6842L18.5519 17.4521L18.6912 17.6223C18.8923 17.8544 19.047 18.1329 19.1863 18.5197C19.2946 18.8137 19.2946 18.9065 19.2946 19.3861C19.2946 19.8503 19.2791 19.9586 19.1863 20.2216C19.0316 20.6394 18.8459 20.9333 18.5365 21.2582C17.9795 21.8307 17.2523 22.1401 16.2157 22.2794C16.03 22.2949 15.504 22.3413 15.0398 22.3722C13.8794 22.4341 13.1058 22.5579 12.4096 22.8054C12.3168 22.8364 12.2239 22.8673 12.2085 22.8518C12.1775 22.8209 12.6571 22.5424 13.0439 22.3567C13.5855 22.0937 14.1424 21.9545 15.3647 21.7379C15.9681 21.645 16.587 21.5213 16.7417 21.4594C18.2734 20.9797 19.0316 19.7884 18.784 18.334Z" fill="black"/>
    <path d="M20.191 20.8252C19.7888 19.9433 19.6959 19.1078 19.9125 18.3188C19.9435 18.2414 19.9744 18.1641 20.0054 18.1641C20.0363 18.1641 20.1292 18.2105 20.222 18.2724C20.4076 18.3961 20.7944 18.6127 21.7846 19.1543C23.0379 19.835 23.7496 20.3611 24.2447 20.9645C24.6779 21.4905 24.9409 22.0939 25.0647 22.8366C25.142 23.2543 25.0956 24.26 24.9873 24.6777C24.6469 25.9928 23.8734 27.0449 22.7439 27.6483C22.5737 27.7412 22.4345 27.8031 22.419 27.8031C22.4035 27.8031 22.4654 27.6483 22.5582 27.4627C22.9296 26.6736 22.976 25.9155 22.6975 25.0645C22.5273 24.5385 22.1714 23.9041 21.4597 22.8366C20.6088 21.5988 20.4076 21.2739 20.191 20.8252Z" fill="black"/>
    <path d="M8.66475 25.5596C9.80967 24.6003 11.2176 23.9196 12.5173 23.703C13.0742 23.6101 14.0026 23.6411 14.5131 23.7803C15.3331 23.9969 16.0758 24.4611 16.4626 25.0335C16.8339 25.5905 17.0041 26.0702 17.1743 27.1377C17.2362 27.5555 17.3135 27.9887 17.329 28.0815C17.4528 28.6385 17.7003 29.0717 18.0098 29.3038C18.4894 29.6596 19.3249 29.6751 20.1449 29.3657C20.2841 29.3193 20.4079 29.2728 20.4079 29.2883C20.4389 29.3193 20.0211 29.5978 19.7426 29.737C19.3558 29.9381 19.0464 30 18.6287 30C17.886 30 17.2517 29.6132 16.7411 28.8396C16.6328 28.6849 16.4162 28.2362 16.2305 27.8185C15.689 26.5653 15.4105 26.1939 14.7762 25.7762C14.2192 25.4203 13.5075 25.343 12.9659 25.606C12.2542 25.9464 12.0686 26.8592 12.5637 27.4162C12.7648 27.6483 13.1361 27.834 13.4456 27.8804C14.018 27.9577 14.5131 27.5091 14.5131 26.9366C14.5131 26.5653 14.3739 26.3487 14.0026 26.1785C13.5075 25.9619 12.9659 26.2094 12.9814 26.689C12.9814 26.8902 13.0742 27.014 13.2754 27.1068C13.3992 27.1687 13.3992 27.1687 13.3063 27.1532C12.8576 27.0604 12.7493 26.5034 13.1052 26.1475C13.5384 25.7143 14.4512 25.9 14.7607 26.5034C14.8845 26.7509 14.8999 27.246 14.7916 27.5555C14.5286 28.2362 13.7859 28.5921 13.0278 28.3909C12.5173 28.2517 12.3006 28.1125 11.6818 27.4781C10.5987 26.3641 10.181 26.1475 8.63381 25.9154L8.33984 25.869L8.66475 25.5596Z" fill="black"/>
    <path fill-rule="evenodd" clip-rule="evenodd" d="M0.526733 0.665291C4.13168 5.04384 9.68609 11.8515 9.96459 12.2228C10.1967 12.5322 10.1038 12.8262 9.71704 13.0428C9.50043 13.1666 9.05174 13.2904 8.83514 13.2904C8.58759 13.2904 8.29362 13.1666 8.09249 12.9654C7.95324 12.8262 7.34984 11.9443 5.98831 9.82465C4.95169 8.2001 4.0698 6.85405 4.05432 6.83858C3.99244 6.80763 3.99244 6.80763 5.88001 10.1805C7.07134 12.3002 7.45814 13.0583 7.45814 13.1511C7.45814 13.3522 7.39625 13.4605 7.1487 13.739C6.73096 14.2032 6.5453 14.7292 6.40605 15.8277C6.25133 17.05 5.83359 17.9165 4.64226 19.3863C3.94602 20.2527 3.83772 20.4074 3.66753 20.7633C3.45092 21.1965 3.38903 21.444 3.35809 22.001C3.32715 22.589 3.38903 22.9603 3.55922 23.5173C3.71394 24.0124 3.88413 24.3373 4.30187 24.9716C4.65773 25.5286 4.87433 25.9464 4.87433 26.1011C4.87433 26.2249 4.90528 26.2249 5.46227 26.1011C6.79285 25.7916 7.89135 25.2656 8.49476 24.6158C8.86608 24.2135 8.95891 23.9969 8.95891 23.4399C8.95891 23.0841 8.94344 23.0067 8.85061 22.7901C8.69589 22.4497 8.40193 22.1712 7.76758 21.738C6.9321 21.1656 6.57624 20.7014 6.48341 20.0825C6.40605 19.5565 6.49888 19.2006 6.96304 18.2259C7.44267 17.2202 7.56644 16.8025 7.6438 15.7813C7.69022 15.1315 7.76758 14.8685 7.95324 14.6674C8.15438 14.4507 8.32457 14.3734 8.8042 14.3115C9.59326 14.2032 10.1038 14.0021 10.5061 13.6153C10.862 13.2904 11.0167 12.9654 11.0321 12.4858L11.0476 12.13L10.8465 11.9134C10.1193 11.0779 0.0471039 0 0.000688197 0C-0.0147837 0 0.232767 0.293966 0.526733 0.665291ZM5.2766 22.6663C5.44679 22.3724 5.35396 22.001 5.07547 21.8154C4.81245 21.6452 4.41018 21.7225 4.41018 21.9546C4.41018 22.0165 4.44112 22.0784 4.53395 22.1093C4.6732 22.1867 4.68867 22.2641 4.58037 22.4342C4.47206 22.6044 4.47206 22.7592 4.61131 22.8675C4.82792 23.0376 5.12188 22.9448 5.2766 22.6663Z" fill="black"/>
    <path fill-rule="evenodd" clip-rule="evenodd" d="M11.5428 14.5281C11.1715 14.6364 10.8156 15.0386 10.7073 15.4409C10.6454 15.6884 10.6764 16.1371 10.7847 16.2764C10.9549 16.493 11.1096 16.5549 11.5428 16.5549C12.3938 16.5549 13.1209 16.1835 13.1983 15.7349C13.2757 15.3635 12.9507 14.853 12.5021 14.6209C12.27 14.4971 11.7904 14.4507 11.5428 14.5281ZM12.533 15.3016C12.6568 15.116 12.6104 14.9149 12.3783 14.7756C11.9605 14.5126 11.3262 14.7292 11.3262 15.1315C11.3262 15.3326 11.6511 15.5492 11.9605 15.5492C12.1617 15.5492 12.4402 15.4254 12.533 15.3016Z" fill="black"/>
  </g>
  <defs>
    <clipPath id="clip0_231_353">
      <rect width="26.0392" height="30" fill="white"/>
    </clipPath>
  </defs>
</svg>