<svg width="95" height="100" viewBox="0 0 95 100" fill="none" xmlns="http://www.w3.org/2000/svg">
<g clip-path="url(#clip0_227_24)">
<path d="M93.9813 59.9526C97.9911 34.1413 80.3174 9.96652 54.5061 5.95676C28.6948 1.94701 4.52005 19.6207 0.510298 45.432C-3.49945 71.2433 14.1742 95.418 39.9855 99.4278C65.7968 103.438 89.9716 85.7639 93.9813 59.9526Z" fill="#9D2245"/>
<path d="M47.2984 94.5967C73.4205 94.5967 94.5967 73.4205 94.5967 47.2984C94.5967 21.1762 73.4205 0 47.2984 0C21.1762 0 0 21.1762 0 47.2984C0 73.4205 21.1762 94.5967 47.2984 94.5967Z" fill="#E47582"/>
<path d="M47.2984 2.50586C21.1433 2.50586 0 23.6492 0 49.8042C0 75.9593 21.1433 97.1026 47.2984 97.1026C73.4534 97.1026 94.5967 75.9593 94.5967 49.8042C94.5967 23.6492 73.3751 2.50586 47.2984 2.50586ZM47.2984 91.3861C24.2757 91.3861 5.71652 72.7486 5.71652 49.8042C5.71652 26.8598 24.354 8.22238 47.2984 8.22238C70.2428 8.22238 88.8802 26.8598 88.8802 49.8042C88.8019 72.7486 70.2428 91.3861 47.2984 91.3861Z" fill="#E25D70"/>
<path d="M47.2984 0C21.1433 0 0 21.1433 0 47.2984C0 73.4534 21.1433 94.5967 47.2984 94.5967C73.4534 94.5967 94.5967 73.4534 94.5967 47.2984C94.5967 21.1433 73.3751 0 47.2984 0ZM47.2984 88.8019C24.2757 88.8019 5.71652 70.2428 5.71652 47.2984C5.71652 24.2757 24.2757 5.71652 47.2984 5.71652C70.3211 5.71652 88.8802 24.354 88.8802 47.2984C88.8019 70.2428 70.2428 88.8019 47.2984 88.8019Z" fill="url(#paint0_linear_227_24)"/>
<path d="M53.0203 26.7214C48.2291 31.6933 48.5003 39.6484 53.4723 44.3492C58.4442 49.1403 66.3993 48.8691 71.1001 43.8972C75.8912 38.9253 74.9872 23.015 73.6312 23.1054C73.6312 23.1054 57.721 21.7495 53.0203 26.7214Z" fill="#FFDFD1"/>
<path opacity="0.2" d="M73.7227 23.1053C73.7227 23.1053 65.858 24.4613 65.858 26.8116C65.858 29.0716 71.1011 32.8684 72.5475 40.3715C72.5475 40.3715 66.762 28.4388 56.5469 24.6421C56.5469 24.6421 64.4116 21.6589 73.7227 23.1053Z" fill="#510102"/>
<path d="M41.2688 26.7214C46.0599 31.6933 45.7887 39.6484 40.8168 44.3492C35.8448 49.1403 27.8897 48.8691 23.189 43.8972C18.3978 38.9253 19.3018 23.015 20.6578 23.1054C20.5674 23.1054 36.4776 21.7495 41.2688 26.7214Z" fill="#FFDFD1"/>
<path d="M47.1442 77.5253C62.2219 77.5253 74.4447 65.3024 74.4447 50.2248C74.4447 35.1472 62.2219 22.9243 47.1442 22.9243C32.0666 22.9243 19.8438 35.1472 19.8438 50.2248C19.8438 65.3024 32.0666 77.5253 47.1442 77.5253Z" fill="#EDCFC2"/>
<path d="M45.4275 72.6441C59.1072 72.6441 70.1968 61.5545 70.1968 47.8748C70.1968 34.1951 59.1072 23.1055 45.4275 23.1055C31.7478 23.1055 20.6582 34.1951 20.6582 47.8748C20.6582 61.5545 31.7478 72.6441 45.4275 72.6441Z" fill="#FFDFD1"/>
<path opacity="0.15" d="M59.1678 59.8072C59.1678 64.2368 55.0094 67.8527 50.0375 67.8527H44.7944C39.732 67.8527 35.6641 64.2368 35.6641 59.8072C35.6641 55.3777 39.8224 51.7617 44.7944 51.7617H50.0375C55.0998 51.7617 59.1678 55.3777 59.1678 59.8072Z" fill="#2F2F56"/>
<path d="M59.0779 56.9146C59.0779 61.3442 54.9196 64.9602 49.9477 64.9602H44.7045C39.6422 64.9602 35.5742 61.3442 35.5742 56.9146C35.5742 52.4851 39.7326 48.8691 44.7045 48.8691H49.9477C55.01 48.9595 59.0779 52.5755 59.0779 56.9146Z" fill="#FFE8DE"/>
<path d="M49.6759 48.8691H44.5232C39.6416 48.8691 35.6641 52.4851 35.6641 56.9146C35.6641 58.7226 36.3873 60.4402 37.5624 61.7962C36.6584 60.7114 36.1161 59.4458 36.1161 57.9994C36.1161 54.2931 39.9128 51.2195 44.5232 51.2195H49.3143C53.9247 51.2195 57.7214 54.2931 57.7214 57.9994C57.7214 61.7058 53.9247 64.7794 49.3143 64.7794H44.5232C42.3536 64.7794 40.3648 64.1466 38.9184 63.0618C40.4552 64.237 42.444 64.8698 44.5232 64.8698H49.6759C54.5574 64.8698 58.535 61.2538 58.535 56.8242C58.535 52.4851 54.5574 48.8691 49.6759 48.8691Z" fill="#FFF3F0"/>
<path d="M42.7145 60.3494C43.9127 60.3494 44.8841 59.3781 44.8841 58.1798C44.8841 56.9816 43.9127 56.0103 42.7145 56.0103C41.5163 56.0103 40.5449 56.9816 40.5449 58.1798C40.5449 59.3781 41.5163 60.3494 42.7145 60.3494Z" fill="#4E0204"/>
<path d="M52.2067 60.3494C53.4049 60.3494 54.3763 59.3781 54.3763 58.1798C54.3763 56.9816 53.4049 56.0103 52.2067 56.0103C51.0085 56.0103 50.0371 56.9816 50.0371 58.1798C50.0371 59.3781 51.0085 60.3494 52.2067 60.3494Z" fill="#4E0204"/>
<path d="M41.087 41.3657C42.2353 41.3657 43.1662 39.9086 43.1662 38.1113C43.1662 36.314 42.2353 34.8569 41.087 34.8569C39.9387 34.8569 39.0078 36.314 39.0078 38.1113C39.0078 39.9086 39.9387 41.3657 41.087 41.3657Z" fill="#4E0204"/>
<path d="M52.5694 41.3657C53.7177 41.3657 54.6486 39.9086 54.6486 38.1113C54.6486 36.314 53.7177 34.8569 52.5694 34.8569C51.4211 34.8569 50.4902 36.314 50.4902 38.1113C50.4902 39.9086 51.4211 41.3657 52.5694 41.3657Z" fill="#4E0204"/>
<path opacity="0.2" d="M20.5684 23.1053C20.5684 23.1053 28.4331 24.4613 28.4331 26.8116C28.4331 29.0716 23.1899 32.8684 21.7435 40.3715C21.7435 40.3715 27.5291 28.4388 37.7442 24.6421C37.7442 24.6421 29.8795 21.6589 20.5684 23.1053Z" fill="#510102"/>
</g>
<defs>
<linearGradient id="paint0_linear_227_24" x1="11.7135" y1="116.054" x2="55.0594" y2="32.1896" gradientUnits="userSpaceOnUse">
<stop stop-color="#FF6B80"/>
<stop offset="1" stop-color="#FD9998"/>
</linearGradient>
<clipPath id="clip0_227_24">
<rect width="94.5184" height="100" fill="white"/>
</clipPath>
</defs>
</svg>
